<ttFont>
    <TTGlyph name="A" xMin="20" yMin="-2" xMax="744" yMax="736">
      <contour>
        <pt x="20" y="212" on="1"/>
        <pt x="20" y="254" on="0"/>
        <pt x="26" y="326" on="0"/>
        <pt x="40" y="395" on="0"/>
        <pt x="59" y="466" on="0"/>
        <pt x="73" y="507" on="1"/>
        <pt x="82" y="535" on="0"/>
        <pt x="121" y="615" on="0"/>
        <pt x="176" y="686" on="0"/>
        <pt x="245" y="736" on="0"/>
        <pt x="283" y="736" on="1"/>
        <pt x="366" y="736" on="1"/>
        <pt x="367" y="736" on="0"/>
        <pt x="378" y="733" on="0"/>
        <pt x="381" y="732" on="1"/>
        <pt x="420" y="713" on="0"/>
        <pt x="464" y="658" on="0"/>
        <pt x="472" y="615" on="1"/>
        <pt x="481" y="574" on="0"/>
        <pt x="502" y="499" on="0"/>
        <pt x="502" y="458" on="1"/>
        <pt x="502" y="409" on="0"/>
        <pt x="497" y="313" on="0"/>
        <pt x="497" y="264" on="1"/>
        <pt x="497" y="261" on="0"/>
        <pt x="497" y="246" on="0"/>
        <pt x="498" y="228" on="0"/>
        <pt x="498" y="212" on="0"/>
        <pt x="498" y="210" on="1"/>
        <pt x="499" y="202" on="0"/>
        <pt x="501" y="172" on="0"/>
        <pt x="507" y="136" on="0"/>
        <pt x="513" y="98" on="0"/>
        <pt x="522" y="67" on="0"/>
        <pt x="534" y="47" on="0"/>
        <pt x="542" y="47" on="1"/>
        <pt x="569" y="47" on="0"/>
        <pt x="628" y="61" on="0"/>
        <pt x="652" y="76" on="1"/>
        <pt x="654" y="78" on="0"/>
        <pt x="669" y="89" on="0"/>
        <pt x="686" y="102" on="0"/>
        <pt x="701" y="113" on="0"/>
        <pt x="705" y="116" on="1"/>
        <pt x="712" y="121" on="0"/>
        <pt x="721" y="126" on="0"/>
        <pt x="728" y="126" on="1"/>
        <pt x="734" y="126" on="0"/>
        <pt x="744" y="119" on="0"/>
        <pt x="744" y="112" on="1"/>
        <pt x="744" y="89" on="0"/>
        <pt x="693" y="49" on="0"/>
        <pt x="625" y="17" on="0"/>
        <pt x="556" y="-2" on="0"/>
        <pt x="539" y="-2" on="1"/>
        <pt x="517" y="-2" on="0"/>
        <pt x="486" y="43" on="0"/>
        <pt x="463" y="104" on="0"/>
        <pt x="446" y="169" on="0"/>
        <pt x="438" y="190" on="1"/>
        <pt x="424" y="150" on="0"/>
        <pt x="369" y="81" on="0"/>
        <pt x="299" y="29" on="0"/>
        <pt x="217" y="-1" on="0"/>
        <pt x="175" y="-1" on="1"/>
        <pt x="129" y="-1" on="0"/>
        <pt x="68" y="36" on="0"/>
        <pt x="33" y="95" on="0"/>
        <pt x="20" y="172" on="0"/>
      </contour>
      <contour>
        <pt x="82" y="220" on="1"/>
        <pt x="82" y="190" on="0"/>
        <pt x="85" y="129" on="0"/>
        <pt x="104" y="79" on="0"/>
        <pt x="145" y="48" on="0"/>
        <pt x="183" y="48" on="1"/>
        <pt x="233" y="48" on="0"/>
        <pt x="311" y="93" on="0"/>
        <pt x="369" y="166" on="0"/>
        <pt x="409" y="261" on="0"/>
        <pt x="433" y="360" on="0"/>
        <pt x="444" y="454" on="0"/>
        <pt x="444" y="491" on="1"/>
        <pt x="418" y="491" on="0"/>
        <pt x="418" y="515" on="1"/>
        <pt x="418" y="530" on="0"/>
        <pt x="430" y="553" on="0"/>
        <pt x="430" y="571" on="1"/>
        <pt x="430" y="593" on="0"/>
        <pt x="415" y="635" on="0"/>
        <pt x="386" y="669" on="0"/>
        <pt x="347" y="688" on="0"/>
        <pt x="324" y="688" on="1"/>
        <pt x="277" y="688" on="0"/>
        <pt x="206" y="637" on="0"/>
        <pt x="152" y="555" on="0"/>
        <pt x="115" y="452" on="0"/>
        <pt x="92" y="347" on="0"/>
        <pt x="82" y="252" on="0"/>
      </contour>
    </TTGlyph>
    <TTGlyph name="AE" xMin="20" yMin="-1" xMax="931" yMax="760">
      <contour>
        <pt x="20" y="212" on="1"/>
        <pt x="20" y="254" on="0"/>
        <pt x="26" y="326" on="0"/>
        <pt x="40" y="395" on="0"/>
        <pt x="59" y="466" on="0"/>
        <pt x="73" y="507" on="1"/>
        <pt x="82" y="535" on="0"/>
        <pt x="121" y="615" on="0"/>
        <pt x="176" y="686" on="0"/>
        <pt x="245" y="736" on="0"/>
        <pt x="283" y="736" on="1"/>
        <pt x="314" y="736" on="0"/>
        <pt x="352" y="735" on="0"/>
        <pt x="372" y="733" on="0"/>
        <pt x="379" y="732" on="0"/>
        <pt x="381" y="732" on="1"/>
        <pt x="417" y="714" on="0"/>
        <pt x="459" y="665" on="0"/>
        <pt x="469" y="629" on="1"/>
        <pt x="478" y="663" on="0"/>
        <pt x="529" y="713" on="0"/>
        <pt x="596" y="745" on="0"/>
        <pt x="670" y="760" on="0"/>
        <pt x="701" y="760" on="1"/>
        <pt x="719" y="760" on="0"/>
        <pt x="759" y="756" on="0"/>
        <pt x="791" y="741" on="0"/>
        <pt x="813" y="714" on="0"/>
        <pt x="813" y="691" on="1"/>
        <pt x="813" y="677" on="0"/>
        <pt x="796" y="661" on="0"/>
        <pt x="782" y="661" on="1"/>
        <pt x="770" y="661" on="0"/>
        <pt x="762" y="675" on="0"/>
        <pt x="751" y="692" on="0"/>
        <pt x="728" y="706" on="0"/>
        <pt x="702" y="706" on="1"/>
        <pt x="676" y="706" on="0"/>
        <pt x="612" y="697" on="0"/>
        <pt x="556" y="673" on="0"/>
        <pt x="518" y="628" on="0"/>
        <pt x="518" y="592" on="1"/>
        <pt x="518" y="563" on="0"/>
        <pt x="555" y="536" on="0"/>
        <pt x="609" y="526" on="0"/>
        <pt x="670" y="528" on="0"/>
        <pt x="719" y="526" on="0"/>
        <pt x="745" y="516" on="0"/>
        <pt x="738" y="499" on="1"/>
        <pt x="718" y="454" on="1"/>
        <pt x="626" y="361" on="0"/>
        <pt x="541" y="220" on="0"/>
        <pt x="525" y="126" on="0"/>
        <pt x="565" y="78" on="0"/>
        <pt x="598" y="78" on="1"/>
        <pt x="613" y="78" on="0"/>
        <pt x="663" y="93" on="0"/>
        <pt x="724" y="116" on="0"/>
        <pt x="789" y="146" on="0"/>
        <pt x="848" y="176" on="0"/>
        <pt x="895" y="204" on="0"/>
        <pt x="906" y="215" on="1"/>
        <pt x="911" y="215" on="1"/>
        <pt x="919" y="215" on="0"/>
        <pt x="931" y="206" on="0"/>
        <pt x="931" y="198" on="1"/>
        <pt x="931" y="193" on="0"/>
        <pt x="921" y="178" on="0"/>
        <pt x="908" y="166" on="0"/>
        <pt x="897" y="157" on="0"/>
        <pt x="897" y="157" on="1"/>
        <pt x="834" y="105" on="0"/>
        <pt x="728" y="48" on="0"/>
        <pt x="642" y="25" on="0"/>
        <pt x="574" y="31" on="0"/>
        <pt x="525" y="50" on="0"/>
        <pt x="493" y="79" on="0"/>
        <pt x="485" y="92" on="1"/>
        <pt x="484" y="93" on="0"/>
        <pt x="478" y="65" on="0"/>
        <pt x="470" y="35" on="0"/>
        <pt x="459" y="17" on="0"/>
        <pt x="449" y="38" on="0"/>
        <pt x="441" y="112" on="0"/>
        <pt x="438" y="190" on="1"/>
        <pt x="424" y="150" on="0"/>
        <pt x="369" y="81" on="0"/>
        <pt x="299" y="29" on="0"/>
        <pt x="217" y="-1" on="0"/>
        <pt x="175" y="-1" on="1"/>
        <pt x="129" y="-1" on="0"/>
        <pt x="68" y="36" on="0"/>
        <pt x="33" y="95" on="0"/>
        <pt x="20" y="172" on="0"/>
      </contour>
      <contour>
        <pt x="82" y="220" on="1"/>
        <pt x="82" y="190" on="0"/>
        <pt x="85" y="129" on="0"/>
        <pt x="104" y="79" on="0"/>
        <pt x="145" y="48" on="0"/>
        <pt x="183" y="48" on="1"/>
        <pt x="233" y="48" on="0"/>
        <pt x="311" y="93" on="0"/>
        <pt x="369" y="166" on="0"/>
        <pt x="409" y="261" on="0"/>
        <pt x="433" y="360" on="0"/>
        <pt x="444" y="454" on="0"/>
        <pt x="444" y="491" on="1"/>
        <pt x="418" y="491" on="0"/>
        <pt x="418" y="515" on="1"/>
        <pt x="418" y="530" on="0"/>
        <pt x="430" y="553" on="0"/>
        <pt x="430" y="571" on="1"/>
        <pt x="430" y="593" on="0"/>
        <pt x="415" y="635" on="0"/>
        <pt x="386" y="669" on="0"/>
        <pt x="347" y="688" on="0"/>
        <pt x="324" y="688" on="1"/>
        <pt x="277" y="688" on="0"/>
        <pt x="206" y="637" on="0"/>
        <pt x="152" y="555" on="0"/>
        <pt x="115" y="452" on="0"/>
        <pt x="92" y="347" on="0"/>
        <pt x="82" y="252" on="0"/>
      </contour>
      <contour>
        <pt x="635" y="471" on="1"/>
        <pt x="618" y="471" on="0"/>
        <pt x="580" y="476" on="0"/>
        <pt x="543" y="487" on="0"/>
        <pt x="508" y="505" on="0"/>
        <pt x="495" y="518" on="1"/>
        <pt x="502" y="487" on="0"/>
        <pt x="502" y="458" on="1"/>
        <pt x="502" y="409" on="0"/>
        <pt x="497" y="319" on="0"/>
        <pt x="497" y="270" on="1"/>
        <pt x="508" y="291" on="0"/>
        <pt x="531" y="334" on="0"/>
        <pt x="535" y="341" on="1"/>
        <pt x="544" y="358" on="0"/>
        <pt x="566" y="396" on="0"/>
        <pt x="591" y="431" on="0"/>
        <pt x="619" y="461" on="0"/>
      </contour>
    </TTGlyph>
    <TTGlyph name="AEacute" xMin="20" yMin="-1" xMax="931" yMax="1055">
      <component glyphName="AE" x="0" y="0" flags="0x1204"/>
      <component glyphName="acute" x="265" y="301" flags="0x1004"/>
    </TTGlyph>
    <TTGlyph name="Aacute" xMin="20" yMin="-2" xMax="744" yMax="1055">
      <component glyphName="A" x="0" y="0" flags="0x1204"/>
      <component glyphName="acute" x="160" y="301" flags="0x1004"/>
    </TTGlyph>
    <TTGlyph name="Abreve" xMin="20" yMin="-2" xMax="744" yMax="941">
      <component glyphName="A" x="0" y="0" flags="0x1204"/>
      <component glyphName="breve" x="218" y="301" flags="0x1004"/>
    </TTGlyph>
    <TTGlyph name="Acircumflex" xMin="20" yMin="-2" xMax="744" yMax="1079">
      <component glyphName="A" x="0" y="0" flags="0x1204"/>
      <component glyphName="circumflex" x="75" y="149" flags="0x1004"/>
    </TTGlyph>
    <TTGlyph name="Adieresis" xMin="20" yMin="-2" xMax="744" yMax="1006">
      <component glyphName="A" x="0" y="0" flags="0x1204"/>
      <component glyphName="dieresis" x="-28" y="301" flags="0x1004"/>
    </TTGlyph>
    <TTGlyph name="Agrave" xMin="20" yMin="-2" xMax="744" yMax="1049">
      <component glyphName="A" x="0" y="0" flags="0x1204"/>
      <component glyphName="grave" x="64" y="301" flags="0x1004"/>
    </TTGlyph>
    <TTGlyph name="Amacron" xMin="20" yMin="-2" xMax="744" yMax="951">
      <component glyphName="A" x="0" y="0" flags="0x1204"/>
      <component glyphName="macron" x="140" y="301" flags="0x1004"/>
    </TTGlyph>
    <TTGlyph name="Aogonek" xMin="20" yMin="-198" xMax="744" yMax="736">
      <contour>
        <pt x="669" y="-178" on="1"/>
        <pt x="688" y="-192" on="0"/>
        <pt x="672" y="-202" on="0"/>
        <pt x="630" y="-194" on="0"/>
        <pt x="572" y="-171" on="0"/>
        <pt x="527" y="-134" on="0"/>
        <pt x="506" y="-86" on="0"/>
        <pt x="520" y="-56" on="1"/>
        <pt x="536" y="-22" on="0"/>
        <pt x="548" y="-1" on="1"/>
        <pt x="543" y="-2" on="0"/>
        <pt x="539" y="-2" on="1"/>
        <pt x="517" y="-2" on="0"/>
        <pt x="486" y="43" on="0"/>
        <pt x="463" y="104" on="0"/>
        <pt x="446" y="169" on="0"/>
        <pt x="438" y="190" on="1"/>
        <pt x="424" y="150" on="0"/>
        <pt x="369" y="81" on="0"/>
        <pt x="299" y="29" on="0"/>
        <pt x="217" y="-1" on="0"/>
        <pt x="175" y="-1" on="1"/>
        <pt x="129" y="-1" on="0"/>
        <pt x="68" y="36" on="0"/>
        <pt x="33" y="95" on="0"/>
        <pt x="20" y="172" on="0"/>
        <pt x="20" y="212" on="1"/>
        <pt x="20" y="254" on="0"/>
        <pt x="26" y="326" on="0"/>
        <pt x="40" y="395" on="0"/>
        <pt x="59" y="466" on="0"/>
        <pt x="73" y="507" on="1"/>
        <pt x="82" y="535" on="0"/>
        <pt x="121" y="615" on="0"/>
        <pt x="176" y="686" on="0"/>
        <pt x="245" y="736" on="0"/>
        <pt x="283" y="736" on="1"/>
        <pt x="366" y="736" on="1"/>
        <pt x="367" y="736" on="0"/>
        <pt x="373" y="734" on="1"/>
        <pt x="381" y="732" on="1"/>
        <pt x="420" y="713" on="0"/>
        <pt x="464" y="658" on="0"/>
        <pt x="472" y="615" on="1"/>
        <pt x="481" y="574" on="0"/>
        <pt x="502" y="499" on="0"/>
        <pt x="502" y="458" on="1"/>
        <pt x="502" y="409" on="0"/>
        <pt x="497" y="313" on="0"/>
        <pt x="497" y="264" on="1"/>
        <pt x="497" y="253" on="1"/>
        <pt x="497" y="246" on="0"/>
        <pt x="498" y="228" on="0"/>
        <pt x="498" y="220" on="1"/>
        <pt x="498" y="210" on="1"/>
        <pt x="499" y="202" on="0"/>
        <pt x="501" y="172" on="0"/>
        <pt x="507" y="136" on="0"/>
        <pt x="513" y="98" on="0"/>
        <pt x="522" y="67" on="0"/>
        <pt x="534" y="47" on="0"/>
        <pt x="542" y="47" on="1"/>
        <pt x="569" y="47" on="0"/>
        <pt x="628" y="61" on="0"/>
        <pt x="652" y="76" on="1"/>
        <pt x="654" y="78" on="0"/>
        <pt x="669" y="89" on="0"/>
        <pt x="686" y="102" on="0"/>
        <pt x="701" y="113" on="0"/>
        <pt x="705" y="116" on="1"/>
        <pt x="712" y="121" on="0"/>
        <pt x="721" y="126" on="0"/>
        <pt x="728" y="126" on="1"/>
        <pt x="734" y="126" on="0"/>
        <pt x="744" y="119" on="0"/>
        <pt x="744" y="112" on="1"/>
        <pt x="744" y="89" on="0"/>
        <pt x="693" y="49" on="0"/>
        <pt x="625" y="17" on="0"/>
        <pt x="590" y="7" on="1"/>
        <pt x="589" y="7" on="0"/>
        <pt x="587" y="6" on="1"/>
        <pt x="587" y="4" on="1"/>
        <pt x="587" y="-18" on="0"/>
        <pt x="582" y="-68" on="0"/>
        <pt x="579" y="-111" on="0"/>
        <pt x="582" y="-114" on="1"/>
      </contour>
      <contour>
        <pt x="82" y="220" on="1"/>
        <pt x="82" y="190" on="0"/>
        <pt x="85" y="129" on="0"/>
        <pt x="104" y="79" on="0"/>
        <pt x="145" y="48" on="0"/>
        <pt x="183" y="48" on="1"/>
        <pt x="233" y="48" on="0"/>
        <pt x="311" y="93" on="0"/>
        <pt x="369" y="166" on="0"/>
        <pt x="409" y="261" on="0"/>
        <pt x="433" y="360" on="0"/>
        <pt x="444" y="454" on="0"/>
        <pt x="444" y="491" on="1"/>
        <pt x="418" y="491" on="0"/>
        <pt x="418" y="515" on="1"/>
        <pt x="418" y="530" on="0"/>
        <pt x="430" y="553" on="0"/>
        <pt x="430" y="571" on="1"/>
        <pt x="430" y="593" on="0"/>
        <pt x="415" y="635" on="0"/>
        <pt x="386" y="669" on="0"/>
        <pt x="347" y="688" on="0"/>
        <pt x="324" y="688" on="1"/>
        <pt x="277" y="688" on="0"/>
        <pt x="206" y="637" on="0"/>
        <pt x="152" y="555" on="0"/>
        <pt x="115" y="452" on="0"/>
        <pt x="92" y="347" on="0"/>
        <pt x="82" y="252" on="0"/>
      </contour>
    </TTGlyph>
    <TTGlyph name="Aring" xMin="20" yMin="-2" xMax="744" yMax="1000">
      <contour>
        <pt x="190" y="806" on="1"/>
        <pt x="190" y="862" on="0"/>
        <pt x="237" y="943" on="0"/>
        <pt x="285" y="981" on="1"/>
        <pt x="286" y="982" on="0"/>
        <pt x="295" y="988" on="0"/>
        <pt x="307" y="994" on="0"/>
        <pt x="318" y="1000" on="0"/>
        <pt x="322" y="1000" on="1"/>
        <pt x="329" y="1000" on="0"/>
        <pt x="341" y="989" on="0"/>
        <pt x="341" y="983" on="1"/>
        <pt x="341" y="981" on="1"/>
        <pt x="341" y="979" on="0"/>
        <pt x="337" y="972" on="0"/>
        <pt x="336" y="971" on="1"/>
        <pt x="336" y="968" on="1"/>
        <pt x="336" y="965" on="0"/>
        <pt x="355" y="958" on="0"/>
        <pt x="380" y="949" on="0"/>
        <pt x="403" y="941" on="0"/>
        <pt x="408" y="938" on="1"/>
        <pt x="431" y="918" on="0"/>
        <pt x="454" y="867" on="0"/>
        <pt x="454" y="841" on="1"/>
        <pt x="454" y="811" on="0"/>
        <pt x="421" y="764" on="0"/>
        <pt x="396" y="748" on="1"/>
        <pt x="384" y="741" on="0"/>
        <pt x="372" y="734" on="1"/>
        <pt x="373" y="734" on="1"/>
        <pt x="381" y="732" on="1"/>
        <pt x="420" y="713" on="0"/>
        <pt x="464" y="658" on="0"/>
        <pt x="472" y="615" on="1"/>
        <pt x="481" y="574" on="0"/>
        <pt x="502" y="499" on="0"/>
        <pt x="502" y="458" on="1"/>
        <pt x="502" y="409" on="0"/>
        <pt x="497" y="313" on="0"/>
        <pt x="497" y="264" on="1"/>
        <pt x="497" y="253" on="1"/>
        <pt x="497" y="246" on="0"/>
        <pt x="498" y="228" on="0"/>
        <pt x="498" y="220" on="1"/>
        <pt x="498" y="210" on="1"/>
        <pt x="499" y="202" on="0"/>
        <pt x="501" y="172" on="0"/>
        <pt x="507" y="136" on="0"/>
        <pt x="513" y="98" on="0"/>
        <pt x="522" y="67" on="0"/>
        <pt x="534" y="47" on="0"/>
        <pt x="542" y="47" on="1"/>
        <pt x="569" y="47" on="0"/>
        <pt x="628" y="61" on="0"/>
        <pt x="652" y="76" on="1"/>
        <pt x="654" y="78" on="0"/>
        <pt x="669" y="89" on="0"/>
        <pt x="686" y="102" on="0"/>
        <pt x="701" y="113" on="0"/>
        <pt x="705" y="116" on="1"/>
        <pt x="712" y="121" on="0"/>
        <pt x="721" y="126" on="0"/>
        <pt x="728" y="126" on="1"/>
        <pt x="734" y="126" on="0"/>
        <pt x="744" y="119" on="0"/>
        <pt x="744" y="112" on="1"/>
        <pt x="744" y="89" on="0"/>
        <pt x="693" y="49" on="0"/>
        <pt x="625" y="17" on="0"/>
        <pt x="556" y="-2" on="0"/>
        <pt x="539" y="-2" on="1"/>
        <pt x="517" y="-2" on="0"/>
        <pt x="486" y="43" on="0"/>
        <pt x="463" y="104" on="0"/>
        <pt x="446" y="169" on="0"/>
        <pt x="438" y="190" on="1"/>
        <pt x="424" y="150" on="0"/>
        <pt x="369" y="81" on="0"/>
        <pt x="299" y="29" on="0"/>
        <pt x="217" y="-1" on="0"/>
        <pt x="175" y="-1" on="1"/>
        <pt x="129" y="-1" on="0"/>
        <pt x="68" y="36" on="0"/>
        <pt x="33" y="95" on="0"/>
        <pt x="20" y="172" on="0"/>
        <pt x="20" y="212" on="1"/>
        <pt x="20" y="254" on="0"/>
        <pt x="26" y="326" on="0"/>
        <pt x="40" y="395" on="0"/>
        <pt x="59" y="466" on="0"/>
        <pt x="73" y="507" on="1"/>
        <pt x="82" y="535" on="0"/>
        <pt x="121" y="615" on="0"/>
        <pt x="176" y="686" on="0"/>
        <pt x="211" y="711" on="1"/>
        <pt x="218" y="716" on="0"/>
        <pt x="224" y="720" on="1"/>
        <pt x="217" y="724" on="0"/>
        <pt x="212" y="729" on="1"/>
        <pt x="202" y="740" on="0"/>
        <pt x="193" y="766" on="0"/>
        <pt x="190" y="794" on="0"/>
      </contour>
      <contour>
        <pt x="82" y="220" on="1"/>
        <pt x="82" y="190" on="0"/>
        <pt x="85" y="129" on="0"/>
        <pt x="104" y="79" on="0"/>
        <pt x="145" y="48" on="0"/>
        <pt x="183" y="48" on="1"/>
        <pt x="233" y="48" on="0"/>
        <pt x="311" y="93" on="0"/>
        <pt x="369" y="166" on="0"/>
        <pt x="409" y="261" on="0"/>
        <pt x="433" y="360" on="0"/>
        <pt x="444" y="454" on="0"/>
        <pt x="444" y="491" on="1"/>
        <pt x="418" y="491" on="0"/>
        <pt x="418" y="515" on="1"/>
        <pt x="418" y="530" on="0"/>
        <pt x="430" y="553" on="0"/>
        <pt x="430" y="571" on="1"/>
        <pt x="430" y="593" on="0"/>
        <pt x="415" y="635" on="0"/>
        <pt x="386" y="669" on="0"/>
        <pt x="347" y="688" on="0"/>
        <pt x="324" y="688" on="1"/>
        <pt x="277" y="688" on="0"/>
        <pt x="206" y="637" on="0"/>
        <pt x="152" y="555" on="0"/>
        <pt x="115" y="452" on="0"/>
        <pt x="92" y="347" on="0"/>
        <pt x="82" y="252" on="0"/>
      </contour>
      <contour>
        <pt x="240" y="835" on="1"/>
        <pt x="249" y="817" on="0"/>
        <pt x="254" y="797" on="0"/>
        <pt x="258" y="784" on="0"/>
        <pt x="271" y="773" on="0"/>
        <pt x="287" y="766" on="1"/>
        <pt x="337" y="766" on="0"/>
        <pt x="382" y="800" on="0"/>
        <pt x="382" y="846" on="1"/>
        <pt x="382" y="868" on="0"/>
        <pt x="378" y="891" on="0"/>
        <pt x="364" y="904" on="0"/>
        <pt x="336" y="912" on="0"/>
        <pt x="311" y="921" on="1"/>
        <pt x="288" y="916" on="0"/>
        <pt x="260" y="900" on="0"/>
        <pt x="245" y="877" on="0"/>
        <pt x="240" y="850" on="0"/>
      </contour>
    </TTGlyph>
    <TTGlyph name="Atilde" xMin="20" yMin="-2" xMax="744" yMax="1070">
      <component glyphName="A" x="0" y="0" flags="0x1204"/>
      <component glyphName="tilde" x="67" y="301" flags="0x1004"/>
    </TTGlyph>
    <TTGlyph name="B" xMin="24" yMin="-1" xMax="546" yMax="844">
      <contour>
        <pt x="53" y="156" on="1"/>
        <pt x="47" y="157" on="0"/>
        <pt x="34" y="162" on="0"/>
        <pt x="29" y="166" on="1"/>
        <pt x="31" y="242" on="0"/>
        <pt x="24" y="383" on="0"/>
        <pt x="24" y="459" on="1"/>
        <pt x="24" y="499" on="0"/>
        <pt x="34" y="571" on="0"/>
        <pt x="51" y="641" on="0"/>
        <pt x="75" y="709" on="0"/>
        <pt x="87" y="746" on="1"/>
        <pt x="90" y="755" on="0"/>
        <pt x="90" y="783" on="0"/>
        <pt x="94" y="810" on="0"/>
        <pt x="105" y="829" on="0"/>
        <pt x="121" y="829" on="1"/>
        <pt x="130" y="829" on="0"/>
        <pt x="143" y="818" on="0"/>
        <pt x="151" y="818" on="1"/>
        <pt x="160" y="818" on="0"/>
        <pt x="181" y="826" on="0"/>
        <pt x="205" y="836" on="0"/>
        <pt x="230" y="844" on="0"/>
        <pt x="243" y="844" on="1"/>
        <pt x="300" y="844" on="0"/>
        <pt x="361" y="772" on="0"/>
        <pt x="361" y="717" on="1"/>
        <pt x="361" y="707" on="0"/>
        <pt x="354" y="677" on="0"/>
        <pt x="355" y="668" on="1"/>
        <pt x="347" y="623" on="0"/>
        <pt x="312" y="540" on="0"/>
        <pt x="287" y="502" on="1"/>
        <pt x="343" y="498" on="0"/>
        <pt x="437" y="454" on="0"/>
        <pt x="507" y="383" on="0"/>
        <pt x="546" y="286" on="0"/>
        <pt x="546" y="229" on="1"/>
        <pt x="546" y="180" on="0"/>
        <pt x="517" y="95" on="0"/>
        <pt x="462" y="34" on="0"/>
        <pt x="382" y="-1" on="0"/>
        <pt x="331" y="-1" on="1"/>
        <pt x="283" y="-1" on="0"/>
        <pt x="205" y="20" on="0"/>
        <pt x="138" y="60" on="0"/>
        <pt x="80" y="118" on="0"/>
      </contour>
      <contour>
        <pt x="99" y="182" on="1"/>
        <pt x="100" y="180" on="0"/>
        <pt x="102" y="176" on="0"/>
        <pt x="103" y="175" on="1"/>
        <pt x="104" y="172" on="0"/>
        <pt x="113" y="160" on="0"/>
        <pt x="122" y="148" on="0"/>
        <pt x="130" y="138" on="0"/>
        <pt x="130" y="137" on="1"/>
        <pt x="167" y="95" on="0"/>
        <pt x="258" y="49" on="0"/>
        <pt x="314" y="49" on="1"/>
        <pt x="400" y="49" on="0"/>
        <pt x="483" y="148" on="0"/>
        <pt x="483" y="231" on="1"/>
        <pt x="483" y="280" on="0"/>
        <pt x="454" y="360" on="0"/>
        <pt x="398" y="418" on="0"/>
        <pt x="320" y="449" on="0"/>
        <pt x="274" y="449" on="1"/>
        <pt x="262" y="449" on="0"/>
        <pt x="245" y="439" on="0"/>
        <pt x="230" y="428" on="0"/>
        <pt x="214" y="418" on="0"/>
        <pt x="204" y="418" on="1"/>
        <pt x="192" y="418" on="0"/>
        <pt x="180" y="436" on="0"/>
        <pt x="180" y="448" on="1"/>
        <pt x="180" y="463" on="0"/>
        <pt x="194" y="482" on="0"/>
        <pt x="215" y="498" on="0"/>
        <pt x="236" y="514" on="0"/>
        <pt x="243" y="526" on="1"/>
        <pt x="247" y="533" on="0"/>
        <pt x="258" y="553" on="0"/>
        <pt x="269" y="573" on="0"/>
        <pt x="277" y="589" on="0"/>
        <pt x="277" y="589" on="1"/>
        <pt x="279" y="596" on="0"/>
        <pt x="288" y="628" on="0"/>
        <pt x="298" y="663" on="0"/>
        <pt x="306" y="696" on="0"/>
        <pt x="307" y="702" on="1"/>
        <pt x="307" y="709" on="1"/>
        <pt x="307" y="742" on="0"/>
        <pt x="275" y="790" on="0"/>
        <pt x="240" y="790" on="1"/>
        <pt x="230" y="790" on="0"/>
        <pt x="202" y="781" on="0"/>
        <pt x="174" y="767" on="0"/>
        <pt x="152" y="747" on="0"/>
        <pt x="151" y="736" on="1"/>
        <pt x="112" y="454" on="1"/>
        <pt x="112" y="444" on="1"/>
        <pt x="112" y="438" on="0"/>
        <pt x="108" y="407" on="0"/>
        <pt x="104" y="364" on="0"/>
        <pt x="99" y="318" on="0"/>
        <pt x="95" y="275" on="0"/>
        <pt x="92" y="244" on="0"/>
        <pt x="92" y="238" on="1"/>
        <pt x="92" y="236" on="1"/>
        <pt x="92" y="229" on="0"/>
        <pt x="107" y="216" on="0"/>
        <pt x="107" y="206" on="1"/>
        <pt x="107" y="200" on="1"/>
        <pt x="106" y="198" on="0"/>
        <pt x="98" y="187" on="0"/>
        <pt x="97" y="185" on="1"/>
      </contour>
      <contour>
        <pt x="63" y="444" on="1"/>
        <pt x="59" y="444" on="0"/>
        <pt x="59" y="434" on="0"/>
        <pt x="63" y="434" on="1"/>
        <pt x="67" y="434" on="0"/>
        <pt x="67" y="444" on="0"/>
      </contour>
    </TTGlyph>
    <TTGlyph name="C" xMin="28" yMin="-1" xMax="658" yMax="951">
      <contour>
        <pt x="28" y="392" on="1"/>
        <pt x="18" y="446" on="0"/>
        <pt x="45" y="565" on="0"/>
        <pt x="105" y="683" on="0"/>
        <pt x="193" y="792" on="0"/>
        <pt x="294" y="880" on="0"/>
        <pt x="405" y="940" on="0"/>
        <pt x="458" y="951" on="1"/>
        <pt x="474" y="951" on="0"/>
        <pt x="499" y="931" on="0"/>
        <pt x="517" y="901" on="0"/>
        <pt x="526" y="867" on="0"/>
        <pt x="526" y="853" on="1"/>
        <pt x="526" y="756" on="1"/>
        <pt x="526" y="746" on="0"/>
        <pt x="510" y="741" on="0"/>
        <pt x="504" y="741" on="1"/>
        <pt x="497" y="741" on="0"/>
        <pt x="477" y="745" on="0"/>
        <pt x="477" y="756" on="1"/>
        <pt x="477" y="760" on="0"/>
        <pt x="475" y="778" on="0"/>
        <pt x="473" y="800" on="0"/>
        <pt x="472" y="820" on="0"/>
        <pt x="472" y="823" on="1"/>
        <pt x="472" y="825" on="0"/>
        <pt x="471" y="848" on="0"/>
        <pt x="467" y="872" on="0"/>
        <pt x="459" y="892" on="0"/>
        <pt x="453" y="892" on="1"/>
        <pt x="418" y="892" on="1"/>
        <pt x="418" y="892" on="0"/>
        <pt x="400" y="883" on="0"/>
        <pt x="376" y="871" on="0"/>
        <pt x="352" y="858" on="0"/>
        <pt x="346" y="853" on="1"/>
        <pt x="343" y="851" on="0"/>
        <pt x="330" y="841" on="0"/>
        <pt x="316" y="831" on="0"/>
        <pt x="304" y="821" on="0"/>
        <pt x="301" y="819" on="1"/>
        <pt x="247" y="767" on="0"/>
        <pt x="167" y="678" on="0"/>
        <pt x="113" y="582" on="0"/>
        <pt x="86" y="471" on="0"/>
        <pt x="86" y="395" on="1"/>
        <pt x="86" y="365" on="0"/>
        <pt x="93" y="292" on="0"/>
        <pt x="108" y="216" on="0"/>
        <pt x="136" y="143" on="0"/>
        <pt x="178" y="87" on="0"/>
        <pt x="238" y="53" on="0"/>
        <pt x="279" y="53" on="1"/>
        <pt x="301" y="53" on="1"/>
        <pt x="346" y="68" on="0"/>
        <pt x="415" y="93" on="0"/>
        <pt x="470" y="119" on="0"/>
        <pt x="515" y="150" on="0"/>
        <pt x="558" y="194" on="0"/>
        <pt x="604" y="256" on="0"/>
        <pt x="633" y="298" on="1"/>
        <pt x="634" y="298" on="0"/>
        <pt x="638" y="299" on="0"/>
        <pt x="640" y="299" on="1"/>
        <pt x="658" y="299" on="0"/>
        <pt x="658" y="281" on="1"/>
        <pt x="658" y="258" on="0"/>
        <pt x="635" y="201" on="0"/>
        <pt x="574" y="133" on="0"/>
        <pt x="465" y="58" on="0"/>
        <pt x="380" y="20" on="1"/>
        <pt x="364" y="13" on="0"/>
        <pt x="340" y="4" on="0"/>
        <pt x="318" y="0" on="0"/>
        <pt x="295" y="-1" on="0"/>
        <pt x="281" y="-1" on="1"/>
        <pt x="229" y="-1" on="0"/>
        <pt x="152" y="35" on="0"/>
        <pt x="96" y="96" on="0"/>
        <pt x="59" y="175" on="0"/>
        <pt x="37" y="264" on="0"/>
        <pt x="28" y="353" on="0"/>
      </contour>
    </TTGlyph>
    <TTGlyph name="Cacute" xMin="28" yMin="-1" xMax="658" yMax="1113">
      <component glyphName="C" x="0" y="0" flags="0x1204"/>
      <component glyphName="acute" x="62" y="359" flags="0x1004"/>
    </TTGlyph>
    <TTGlyph name="Ccaron" xMin="28" yMin="-1" xMax="658" yMax="1205">
      <component glyphName="C" x="0" y="0" flags="0x1204"/>
      <component glyphName="caron" x="98" y="301" flags="0x1004"/>
    </TTGlyph>
    <TTGlyph name="Ccedilla" xMin="28" yMin="-410" xMax="658" yMax="951">
      <contour>
        <pt x="159" y="-391" on="1"/>
        <pt x="150" y="-386" on="0"/>
        <pt x="127" y="-374" on="0"/>
        <pt x="107" y="-357" on="0"/>
        <pt x="93" y="-337" on="0"/>
        <pt x="93" y="-324" on="1"/>
        <pt x="93" y="-322" on="0"/>
        <pt x="99" y="-317" on="0"/>
        <pt x="101" y="-316" on="1"/>
        <pt x="103" y="-316" on="1"/>
        <pt x="106" y="-315" on="1"/>
        <pt x="110" y="-316" on="1"/>
        <pt x="112" y="-318" on="0"/>
        <pt x="124" y="-330" on="0"/>
        <pt x="126" y="-333" on="1"/>
        <pt x="148" y="-340" on="0"/>
        <pt x="178" y="-350" on="0"/>
        <pt x="203" y="-356" on="0"/>
        <pt x="228" y="-358" on="0"/>
        <pt x="244" y="-358" on="1"/>
        <pt x="254" y="-358" on="0"/>
        <pt x="295" y="-365" on="0"/>
        <pt x="346" y="-371" on="0"/>
        <pt x="398" y="-374" on="0"/>
        <pt x="441" y="-368" on="0"/>
        <pt x="468" y="-350" on="0"/>
        <pt x="468" y="-331" on="1"/>
        <pt x="468" y="-329" on="0"/>
        <pt x="467" y="-323" on="0"/>
        <pt x="466" y="-323" on="1"/>
        <pt x="226" y="-175" on="1"/>
        <pt x="216" y="-168" on="0"/>
        <pt x="187" y="-141" on="0"/>
        <pt x="161" y="-109" on="0"/>
        <pt x="142" y="-74" on="0"/>
        <pt x="142" y="-59" on="1"/>
        <pt x="133" y="-2" on="0"/>
        <pt x="138" y="24" on="1"/>
        <pt x="140" y="38" on="0"/>
        <pt x="144" y="46" on="1"/>
        <pt x="133" y="55" on="0"/>
        <pt x="124" y="66" on="1"/>
        <pt x="96" y="96" on="0"/>
        <pt x="59" y="175" on="0"/>
        <pt x="37" y="264" on="0"/>
        <pt x="28" y="353" on="0"/>
        <pt x="28" y="392" on="1"/>
        <pt x="18" y="446" on="0"/>
        <pt x="45" y="565" on="0"/>
        <pt x="105" y="683" on="0"/>
        <pt x="193" y="792" on="0"/>
        <pt x="294" y="880" on="0"/>
        <pt x="405" y="940" on="0"/>
        <pt x="458" y="951" on="1"/>
        <pt x="474" y="951" on="0"/>
        <pt x="499" y="931" on="0"/>
        <pt x="517" y="901" on="0"/>
        <pt x="526" y="867" on="0"/>
        <pt x="526" y="853" on="1"/>
        <pt x="526" y="756" on="1"/>
        <pt x="526" y="746" on="0"/>
        <pt x="510" y="741" on="0"/>
        <pt x="504" y="741" on="1"/>
        <pt x="497" y="741" on="0"/>
        <pt x="477" y="745" on="0"/>
        <pt x="477" y="756" on="1"/>
        <pt x="477" y="760" on="0"/>
        <pt x="475" y="778" on="0"/>
        <pt x="473" y="800" on="0"/>
        <pt x="472" y="820" on="0"/>
        <pt x="472" y="823" on="1"/>
        <pt x="472" y="825" on="0"/>
        <pt x="471" y="848" on="0"/>
        <pt x="467" y="872" on="0"/>
        <pt x="459" y="892" on="0"/>
        <pt x="453" y="892" on="1"/>
        <pt x="418" y="892" on="1"/>
        <pt x="418" y="892" on="0"/>
        <pt x="409" y="887" on="1"/>
        <pt x="388" y="877" on="1"/>
        <pt x="376" y="871" on="0"/>
        <pt x="352" y="858" on="0"/>
        <pt x="346" y="853" on="1"/>
        <pt x="343" y="851" on="0"/>
        <pt x="330" y="841" on="0"/>
        <pt x="316" y="831" on="0"/>
        <pt x="304" y="821" on="0"/>
        <pt x="301" y="819" on="1"/>
        <pt x="247" y="767" on="0"/>
        <pt x="167" y="678" on="0"/>
        <pt x="113" y="582" on="0"/>
        <pt x="86" y="471" on="0"/>
        <pt x="86" y="395" on="1"/>
        <pt x="86" y="365" on="0"/>
        <pt x="93" y="292" on="0"/>
        <pt x="108" y="216" on="0"/>
        <pt x="136" y="143" on="0"/>
        <pt x="178" y="87" on="0"/>
        <pt x="238" y="53" on="0"/>
        <pt x="279" y="53" on="1"/>
        <pt x="301" y="53" on="1"/>
        <pt x="346" y="68" on="0"/>
        <pt x="415" y="93" on="0"/>
        <pt x="470" y="119" on="0"/>
        <pt x="515" y="150" on="0"/>
        <pt x="558" y="194" on="0"/>
        <pt x="604" y="256" on="0"/>
        <pt x="633" y="298" on="1"/>
        <pt x="634" y="298" on="0"/>
        <pt x="638" y="299" on="0"/>
        <pt x="640" y="299" on="1"/>
        <pt x="658" y="299" on="0"/>
        <pt x="658" y="281" on="1"/>
        <pt x="658" y="258" on="0"/>
        <pt x="635" y="201" on="0"/>
        <pt x="574" y="133" on="0"/>
        <pt x="465" y="58" on="0"/>
        <pt x="380" y="20" on="1"/>
        <pt x="364" y="13" on="0"/>
        <pt x="340" y="4" on="0"/>
        <pt x="318" y="0" on="0"/>
        <pt x="295" y="-1" on="0"/>
        <pt x="281" y="-1" on="1"/>
        <pt x="239" y="-1" on="0"/>
        <pt x="205" y="11" on="1"/>
        <pt x="210" y="-2" on="0"/>
        <pt x="211" y="-16" on="1"/>
        <pt x="213" y="-37" on="0"/>
        <pt x="200" y="-50" on="1"/>
        <pt x="200" y="-85" on="0"/>
        <pt x="248" y="-136" on="0"/>
        <pt x="320" y="-176" on="0"/>
        <pt x="405" y="-211" on="0"/>
        <pt x="477" y="-248" on="0"/>
        <pt x="526" y="-291" on="0"/>
        <pt x="526" y="-320" on="1"/>
        <pt x="526" y="-364" on="0"/>
        <pt x="482" y="-401" on="0"/>
        <pt x="418" y="-412" on="0"/>
        <pt x="342" y="-408" on="0"/>
        <pt x="309" y="-408" on="1"/>
        <pt x="301" y="-408" on="0"/>
        <pt x="257" y="-403" on="0"/>
        <pt x="211" y="-398" on="0"/>
        <pt x="167" y="-392" on="0"/>
      </contour>
    </TTGlyph>
    <TTGlyph name="Ccircumflex" xMin="28" yMin="-1" xMax="658" yMax="1276">
      <component glyphName="C" x="0" y="0" flags="0x1204"/>
      <component glyphName="circumflex" x="143" y="346" flags="0x1004"/>
    </TTGlyph>
    <TTGlyph name="Cdotaccent" xMin="15" yMin="-11" xMax="645" yMax="1074">
      <component glyphName="C" x="-13" y="-10" flags="0x1204"/>
      <component glyphName="dotaccent" x="267" y="491" flags="0x1004"/>
    </TTGlyph>
    <TTGlyph name="D" xMin="23" yMin="0" xMax="507" yMax="840">
      <contour>
        <pt x="199" y="36" on="1"/>
        <pt x="199" y="41" on="0"/>
        <pt x="200" y="49" on="0"/>
        <pt x="204" y="53" on="1"/>
        <pt x="206" y="53" on="0"/>
        <pt x="215" y="54" on="0"/>
        <pt x="217" y="54" on="1"/>
        <pt x="235" y="54" on="0"/>
        <pt x="268" y="48" on="0"/>
        <pt x="286" y="48" on="1"/>
        <pt x="319" y="48" on="0"/>
        <pt x="379" y="66" on="0"/>
        <pt x="426" y="101" on="0"/>
        <pt x="454" y="154" on="0"/>
        <pt x="454" y="190" on="1"/>
        <pt x="454" y="211" on="0"/>
        <pt x="441" y="253" on="0"/>
        <pt x="419" y="293" on="0"/>
        <pt x="391" y="328" on="0"/>
        <pt x="375" y="341" on="1"/>
        <pt x="151" y="526" on="1"/>
        <pt x="149" y="529" on="0"/>
        <pt x="134" y="544" on="0"/>
        <pt x="130" y="546" on="1"/>
        <pt x="129" y="544" on="1"/>
        <pt x="128" y="544" on="0"/>
        <pt x="127" y="544" on="1"/>
        <pt x="126" y="544" on="1"/>
        <pt x="126" y="151" on="1"/>
        <pt x="121" y="78" on="1"/>
        <pt x="121" y="69" on="0"/>
        <pt x="103" y="60" on="0"/>
        <pt x="97" y="58" on="1"/>
        <pt x="85" y="57" on="0"/>
        <pt x="74" y="67" on="0"/>
        <pt x="68" y="85" on="0"/>
        <pt x="68" y="105" on="0"/>
        <pt x="68" y="112" on="1"/>
        <pt x="68" y="619" on="1"/>
        <pt x="48" y="650" on="0"/>
        <pt x="23" y="714" on="0"/>
        <pt x="23" y="751" on="1"/>
        <pt x="23" y="760" on="0"/>
        <pt x="25" y="790" on="0"/>
        <pt x="32" y="819" on="0"/>
        <pt x="49" y="840" on="0"/>
        <pt x="64" y="840" on="1"/>
        <pt x="74" y="840" on="0"/>
        <pt x="83" y="824" on="0"/>
        <pt x="83" y="815" on="1"/>
        <pt x="83" y="800" on="0"/>
        <pt x="77" y="774" on="0"/>
        <pt x="77" y="759" on="1"/>
        <pt x="77" y="750" on="0"/>
        <pt x="76" y="722" on="0"/>
        <pt x="82" y="712" on="1"/>
        <pt x="83" y="724" on="0"/>
        <pt x="84" y="764" on="0"/>
        <pt x="92" y="802" on="0"/>
        <pt x="111" y="830" on="0"/>
        <pt x="131" y="830" on="1"/>
        <pt x="139" y="830" on="0"/>
        <pt x="151" y="823" on="0"/>
        <pt x="151" y="814" on="1"/>
        <pt x="151" y="712" on="1"/>
        <pt x="139" y="699" on="0"/>
        <pt x="136" y="666" on="0"/>
        <pt x="136" y="650" on="1"/>
        <pt x="136" y="637" on="1"/>
        <pt x="136" y="634" on="0"/>
        <pt x="137" y="629" on="1"/>
        <pt x="138" y="626" on="0"/>
        <pt x="145" y="616" on="0"/>
        <pt x="154" y="603" on="0"/>
        <pt x="162" y="592" on="0"/>
        <pt x="165" y="589" on="1"/>
        <pt x="390" y="405" on="1"/>
        <pt x="441" y="362" on="0"/>
        <pt x="507" y="255" on="0"/>
        <pt x="507" y="188" on="1"/>
        <pt x="507" y="144" on="0"/>
        <pt x="471" y="75" on="0"/>
        <pt x="411" y="26" on="0"/>
        <pt x="334" y="0" on="0"/>
        <pt x="293" y="0" on="1"/>
        <pt x="285" y="0" on="0"/>
        <pt x="253" y="2" on="0"/>
        <pt x="222" y="8" on="0"/>
        <pt x="199" y="22" on="0"/>
      </contour>
    </TTGlyph>
    <TTGlyph name="Dcaron" xMin="23" yMin="0" xMax="507" yMax="1205">
      <component glyphName="D" x="0" y="0" flags="0x1204"/>
      <component glyphName="caron" x="56" y="301" flags="0x1004"/>
    </TTGlyph>
    <TTGlyph name="E" xMin="23" yMin="4" xMax="527" yMax="840">
      <contour>
        <pt x="48" y="39" on="1"/>
        <pt x="46" y="42" on="0"/>
        <pt x="39" y="59" on="0"/>
        <pt x="31" y="80" on="0"/>
        <pt x="25" y="98" on="0"/>
        <pt x="24" y="103" on="1"/>
        <pt x="24" y="103" on="0"/>
        <pt x="23" y="122" on="0"/>
        <pt x="23" y="128" on="1"/>
        <pt x="23" y="149" on="0"/>
        <pt x="27" y="193" on="0"/>
        <pt x="34" y="215" on="1"/>
        <pt x="37" y="220" on="0"/>
        <pt x="53" y="251" on="0"/>
        <pt x="72" y="285" on="0"/>
        <pt x="88" y="316" on="0"/>
        <pt x="92" y="321" on="1"/>
        <pt x="117" y="365" on="0"/>
        <pt x="194" y="433" on="0"/>
        <pt x="234" y="463" on="1"/>
        <pt x="238" y="466" on="0"/>
        <pt x="265" y="488" on="0"/>
        <pt x="299" y="512" on="0"/>
        <pt x="328" y="534" on="0"/>
        <pt x="331" y="536" on="1"/>
        <pt x="332" y="537" on="0"/>
        <pt x="336" y="541" on="0"/>
        <pt x="337" y="541" on="1"/>
        <pt x="337" y="544" on="1"/>
        <pt x="337" y="546" on="1"/>
        <pt x="307" y="552" on="0"/>
        <pt x="250" y="567" on="0"/>
        <pt x="206" y="596" on="0"/>
        <pt x="180" y="641" on="0"/>
        <pt x="180" y="676" on="1"/>
        <pt x="180" y="719" on="0"/>
        <pt x="228" y="780" on="0"/>
        <pt x="299" y="821" on="0"/>
        <pt x="381" y="840" on="0"/>
        <pt x="416" y="840" on="1"/>
        <pt x="434" y="840" on="0"/>
        <pt x="473" y="835" on="0"/>
        <pt x="506" y="820" on="0"/>
        <pt x="527" y="793" on="0"/>
        <pt x="527" y="770" on="1"/>
        <pt x="527" y="756" on="0"/>
        <pt x="510" y="741" on="0"/>
        <pt x="497" y="741" on="1"/>
        <pt x="485" y="741" on="0"/>
        <pt x="477" y="754" on="0"/>
        <pt x="466" y="771" on="0"/>
        <pt x="443" y="785" on="0"/>
        <pt x="417" y="785" on="1"/>
        <pt x="395" y="785" on="0"/>
        <pt x="352" y="778" on="0"/>
        <pt x="331" y="780" on="1"/>
        <pt x="314" y="775" on="0"/>
        <pt x="279" y="754" on="0"/>
        <pt x="251" y="726" on="0"/>
        <pt x="233" y="691" on="0"/>
        <pt x="233" y="671" on="1"/>
        <pt x="233" y="643" on="0"/>
        <pt x="261" y="614" on="0"/>
        <pt x="304" y="601" on="0"/>
        <pt x="353" y="599" on="0"/>
        <pt x="396" y="594" on="0"/>
        <pt x="424" y="579" on="0"/>
        <pt x="424" y="560" on="1"/>
        <pt x="424" y="551" on="1"/>
        <pt x="394" y="522" on="1"/>
        <pt x="389" y="517" on="0"/>
        <pt x="364" y="500" on="0"/>
        <pt x="335" y="479" on="0"/>
        <pt x="302" y="454" on="0"/>
        <pt x="273" y="432" on="0"/>
        <pt x="248" y="414" on="0"/>
        <pt x="243" y="409" on="1"/>
        <pt x="215" y="386" on="0"/>
        <pt x="157" y="327" on="0"/>
        <pt x="108" y="258" on="0"/>
        <pt x="77" y="183" on="0"/>
        <pt x="77" y="144" on="1"/>
        <pt x="77" y="98" on="0"/>
        <pt x="113" y="58" on="0"/>
        <pt x="155" y="58" on="1"/>
        <pt x="196" y="58" on="0"/>
        <pt x="279" y="82" on="0"/>
        <pt x="359" y="121" on="0"/>
        <pt x="432" y="170" on="0"/>
        <pt x="463" y="195" on="1"/>
        <pt x="467" y="195" on="1"/>
        <pt x="475" y="195" on="0"/>
        <pt x="488" y="186" on="0"/>
        <pt x="488" y="178" on="1"/>
        <pt x="488" y="173" on="0"/>
        <pt x="477" y="158" on="0"/>
        <pt x="464" y="146" on="0"/>
        <pt x="454" y="137" on="0"/>
        <pt x="454" y="137" on="1"/>
        <pt x="421" y="112" on="0"/>
        <pt x="346" y="65" on="0"/>
        <pt x="267" y="27" on="0"/>
        <pt x="184" y="4" on="0"/>
        <pt x="141" y="4" on="1"/>
        <pt x="137" y="4" on="0"/>
        <pt x="107" y="4" on="0"/>
        <pt x="103" y="4" on="1"/>
        <pt x="70" y="13" on="0"/>
      </contour>
    </TTGlyph>
    <TTGlyph name="Eacute" xMin="23" yMin="4" xMax="527" yMax="1055">
      <component glyphName="E" x="0" y="0" flags="0x1204"/>
      <component glyphName="acute" x="76" y="301" flags="0x1004"/>
    </TTGlyph>
    <TTGlyph name="Ebreve" xMin="23" yMin="4" xMax="527" yMax="1003">
      <component glyphName="E" x="0" y="0" flags="0x1204"/>
      <component glyphName="breve" x="134" y="363" flags="0x1004"/>
    </TTGlyph>
    <TTGlyph name="Ecaron" xMin="23" yMin="4" xMax="527" yMax="1205">
      <component glyphName="E" x="0" y="0" flags="0x1204"/>
      <component glyphName="caron" x="66" y="301" flags="0x1004"/>
    </TTGlyph>
    <TTGlyph name="Ecircumflex" xMin="23" yMin="4" xMax="527" yMax="1231">
      <component glyphName="E" x="0" y="0" flags="0x1204"/>
      <component glyphName="circumflex" x="56" y="301" flags="0x1004"/>
    </TTGlyph>
    <TTGlyph name="Edieresis" xMin="23" yMin="4" xMax="577" yMax="1006">
      <component glyphName="E" x="0" y="0" flags="0x1204"/>
      <component glyphName="dieresis" x="-13" y="301" flags="0x1004"/>
    </TTGlyph>
    <TTGlyph name="Edotaccent" xMin="23" yMin="4" xMax="527" yMax="965">
      <component glyphName="E" x="0" y="0" flags="0x1204"/>
      <component glyphName="dotaccent" x="321" y="382" flags="0x1004"/>
    </TTGlyph>
    <TTGlyph name="Egrave" xMin="23" yMin="4" xMax="527" yMax="1049">
      <component glyphName="E" x="0" y="0" flags="0x1204"/>
      <component glyphName="grave" x="-18" y="301" flags="0x1004"/>
    </TTGlyph>
    <TTGlyph name="Emacron" xMin="23" yMin="4" xMax="527" yMax="951">
      <component glyphName="E" x="0" y="0" flags="0x1204"/>
      <component glyphName="macron" x="57" y="301" flags="0x1004"/>
    </TTGlyph>
    <TTGlyph name="Eogonek" xMin="23" yMin="-138" xMax="527" yMax="840">
      <contour>
        <pt x="444" y="-119" on="1"/>
        <pt x="463" y="-132" on="0"/>
        <pt x="447" y="-142" on="0"/>
        <pt x="405" y="-134" on="0"/>
        <pt x="347" y="-112" on="0"/>
        <pt x="302" y="-75" on="0"/>
        <pt x="281" y="-26" on="0"/>
        <pt x="295" y="4" on="1"/>
        <pt x="310" y="33" on="0"/>
        <pt x="319" y="52" on="1"/>
        <pt x="313" y="49" on="0"/>
        <pt x="307" y="46" on="1"/>
        <pt x="267" y="27" on="0"/>
        <pt x="184" y="4" on="0"/>
        <pt x="141" y="4" on="1"/>
        <pt x="137" y="4" on="0"/>
        <pt x="107" y="4" on="0"/>
        <pt x="103" y="4" on="1"/>
        <pt x="70" y="13" on="0"/>
        <pt x="48" y="39" on="1"/>
        <pt x="46" y="42" on="0"/>
        <pt x="39" y="59" on="0"/>
        <pt x="31" y="80" on="0"/>
        <pt x="25" y="98" on="0"/>
        <pt x="24" y="103" on="1"/>
        <pt x="24" y="103" on="0"/>
        <pt x="23" y="122" on="0"/>
        <pt x="23" y="128" on="1"/>
        <pt x="23" y="149" on="0"/>
        <pt x="27" y="193" on="0"/>
        <pt x="34" y="215" on="1"/>
        <pt x="37" y="220" on="0"/>
        <pt x="53" y="251" on="0"/>
        <pt x="72" y="285" on="0"/>
        <pt x="88" y="316" on="0"/>
        <pt x="92" y="321" on="1"/>
        <pt x="117" y="365" on="0"/>
        <pt x="194" y="433" on="0"/>
        <pt x="234" y="463" on="1"/>
        <pt x="238" y="466" on="0"/>
        <pt x="265" y="488" on="0"/>
        <pt x="299" y="512" on="0"/>
        <pt x="313" y="523" on="1"/>
        <pt x="331" y="536" on="1"/>
        <pt x="334" y="539" on="1"/>
        <pt x="336" y="541" on="0"/>
        <pt x="337" y="541" on="1"/>
        <pt x="337" y="546" on="1"/>
        <pt x="307" y="552" on="0"/>
        <pt x="250" y="567" on="0"/>
        <pt x="206" y="596" on="0"/>
        <pt x="180" y="641" on="0"/>
        <pt x="180" y="676" on="1"/>
        <pt x="180" y="719" on="0"/>
        <pt x="228" y="780" on="0"/>
        <pt x="299" y="821" on="0"/>
        <pt x="381" y="840" on="0"/>
        <pt x="416" y="840" on="1"/>
        <pt x="434" y="840" on="0"/>
        <pt x="473" y="835" on="0"/>
        <pt x="506" y="820" on="0"/>
        <pt x="527" y="793" on="0"/>
        <pt x="527" y="770" on="1"/>
        <pt x="527" y="756" on="0"/>
        <pt x="510" y="741" on="0"/>
        <pt x="497" y="741" on="1"/>
        <pt x="485" y="741" on="0"/>
        <pt x="477" y="754" on="0"/>
        <pt x="466" y="771" on="0"/>
        <pt x="443" y="785" on="0"/>
        <pt x="417" y="785" on="1"/>
        <pt x="395" y="785" on="0"/>
        <pt x="352" y="778" on="0"/>
        <pt x="331" y="780" on="1"/>
        <pt x="314" y="775" on="0"/>
        <pt x="279" y="754" on="0"/>
        <pt x="251" y="726" on="0"/>
        <pt x="233" y="691" on="0"/>
        <pt x="233" y="671" on="1"/>
        <pt x="233" y="643" on="0"/>
        <pt x="261" y="614" on="0"/>
        <pt x="304" y="601" on="0"/>
        <pt x="353" y="599" on="0"/>
        <pt x="396" y="594" on="0"/>
        <pt x="424" y="579" on="0"/>
        <pt x="424" y="560" on="1"/>
        <pt x="424" y="551" on="1"/>
        <pt x="394" y="522" on="1"/>
        <pt x="389" y="517" on="0"/>
        <pt x="364" y="500" on="0"/>
        <pt x="335" y="479" on="0"/>
        <pt x="302" y="454" on="0"/>
        <pt x="273" y="432" on="0"/>
        <pt x="248" y="414" on="0"/>
        <pt x="243" y="409" on="1"/>
        <pt x="215" y="386" on="0"/>
        <pt x="157" y="327" on="0"/>
        <pt x="108" y="258" on="0"/>
        <pt x="77" y="183" on="0"/>
        <pt x="77" y="144" on="1"/>
        <pt x="77" y="98" on="0"/>
        <pt x="113" y="58" on="0"/>
        <pt x="155" y="58" on="1"/>
        <pt x="196" y="58" on="0"/>
        <pt x="279" y="82" on="0"/>
        <pt x="359" y="121" on="0"/>
        <pt x="432" y="170" on="0"/>
        <pt x="463" y="195" on="1"/>
        <pt x="467" y="195" on="1"/>
        <pt x="475" y="195" on="0"/>
        <pt x="488" y="186" on="0"/>
        <pt x="488" y="178" on="1"/>
        <pt x="488" y="173" on="0"/>
        <pt x="477" y="158" on="0"/>
        <pt x="464" y="146" on="0"/>
        <pt x="459" y="141" on="1"/>
        <pt x="454" y="137" on="1"/>
        <pt x="421" y="112" on="0"/>
        <pt x="383" y="88" on="1"/>
        <pt x="373" y="81" on="0"/>
        <pt x="362" y="75" on="1"/>
        <pt x="362" y="63" on="1"/>
        <pt x="362" y="41" on="0"/>
        <pt x="357" y="-9" on="0"/>
        <pt x="354" y="-51" on="0"/>
        <pt x="357" y="-55" on="1"/>
      </contour>
    </TTGlyph>
    <TTGlyph name="Eth" xMin="-65" yMin="0" xMax="507" yMax="840">
      <contour>
        <pt x="-65" y="265" on="1"/>
        <pt x="-63" y="272" on="0"/>
        <pt x="-39" y="287" on="0"/>
        <pt x="-32" y="290" on="1"/>
        <pt x="18" y="291" on="0"/>
        <pt x="41" y="290" on="1"/>
        <pt x="59" y="290" on="0"/>
        <pt x="68" y="289" on="1"/>
        <pt x="68" y="619" on="1"/>
        <pt x="48" y="650" on="0"/>
        <pt x="23" y="714" on="0"/>
        <pt x="23" y="751" on="1"/>
        <pt x="23" y="760" on="0"/>
        <pt x="25" y="790" on="0"/>
        <pt x="32" y="819" on="0"/>
        <pt x="49" y="840" on="0"/>
        <pt x="64" y="840" on="1"/>
        <pt x="74" y="840" on="0"/>
        <pt x="83" y="824" on="0"/>
        <pt x="83" y="815" on="1"/>
        <pt x="83" y="800" on="0"/>
        <pt x="77" y="774" on="0"/>
        <pt x="77" y="759" on="1"/>
        <pt x="77" y="750" on="0"/>
        <pt x="76" y="722" on="0"/>
        <pt x="82" y="712" on="1"/>
        <pt x="83" y="724" on="0"/>
        <pt x="84" y="764" on="0"/>
        <pt x="92" y="802" on="0"/>
        <pt x="111" y="830" on="0"/>
        <pt x="131" y="830" on="1"/>
        <pt x="139" y="830" on="0"/>
        <pt x="151" y="823" on="0"/>
        <pt x="151" y="814" on="1"/>
        <pt x="151" y="712" on="1"/>
        <pt x="165" y="589" on="1"/>
        <pt x="390" y="405" on="1"/>
        <pt x="441" y="362" on="0"/>
        <pt x="507" y="255" on="0"/>
        <pt x="507" y="188" on="1"/>
        <pt x="507" y="144" on="0"/>
        <pt x="471" y="75" on="0"/>
        <pt x="411" y="26" on="0"/>
        <pt x="334" y="0" on="0"/>
        <pt x="293" y="0" on="1"/>
        <pt x="285" y="0" on="0"/>
        <pt x="253" y="2" on="0"/>
        <pt x="222" y="8" on="0"/>
        <pt x="199" y="22" on="0"/>
        <pt x="199" y="36" on="1"/>
        <pt x="199" y="41" on="0"/>
        <pt x="200" y="49" on="0"/>
        <pt x="204" y="53" on="1"/>
        <pt x="206" y="53" on="0"/>
        <pt x="215" y="54" on="0"/>
        <pt x="217" y="54" on="1"/>
        <pt x="235" y="54" on="0"/>
        <pt x="268" y="48" on="0"/>
        <pt x="286" y="48" on="1"/>
        <pt x="319" y="48" on="0"/>
        <pt x="379" y="66" on="0"/>
        <pt x="426" y="101" on="0"/>
        <pt x="454" y="154" on="0"/>
        <pt x="454" y="190" on="1"/>
        <pt x="454" y="211" on="0"/>
        <pt x="441" y="253" on="0"/>
        <pt x="419" y="293" on="0"/>
        <pt x="391" y="328" on="0"/>
        <pt x="375" y="341" on="1"/>
        <pt x="151" y="526" on="1"/>
        <pt x="149" y="529" on="0"/>
        <pt x="134" y="544" on="0"/>
        <pt x="130" y="546" on="1"/>
        <pt x="129" y="544" on="1"/>
        <pt x="128" y="544" on="0"/>
        <pt x="127" y="544" on="1"/>
        <pt x="126" y="544" on="1"/>
        <pt x="126" y="280" on="1"/>
        <pt x="149" y="279" on="0"/>
        <pt x="174" y="277" on="1"/>
        <pt x="208" y="274" on="0"/>
        <pt x="239" y="264" on="1"/>
        <pt x="223" y="247" on="1"/>
        <pt x="223" y="247" on="0"/>
        <pt x="208" y="247" on="1"/>
        <pt x="188" y="245" on="0"/>
        <pt x="156" y="241" on="1"/>
        <pt x="141" y="240" on="0"/>
        <pt x="126" y="238" on="1"/>
        <pt x="126" y="151" on="1"/>
        <pt x="121" y="78" on="1"/>
        <pt x="121" y="69" on="0"/>
        <pt x="103" y="60" on="0"/>
        <pt x="97" y="58" on="1"/>
        <pt x="85" y="57" on="0"/>
        <pt x="74" y="67" on="0"/>
        <pt x="68" y="85" on="0"/>
        <pt x="68" y="95" on="1"/>
        <pt x="68" y="233" on="1"/>
        <pt x="42" y="230" on="0"/>
        <pt x="20" y="229" on="1"/>
        <pt x="-9" y="229" on="0"/>
        <pt x="-38" y="232" on="0"/>
        <pt x="-24" y="239" on="1"/>
        <pt x="-29" y="239" on="0"/>
        <pt x="-43" y="241" on="0"/>
        <pt x="-58" y="247" on="0"/>
        <pt x="-67" y="256" on="0"/>
      </contour>
    </TTGlyph>
    <TTGlyph name="Euro" xMin="-5" yMin="-12" xMax="580" yMax="784">
      <contour>
        <pt x="455" y="415" on="1"/>
        <pt x="405" y="411" on="0"/>
        <pt x="293" y="400" on="0"/>
        <pt x="236" y="393" on="1"/>
        <pt x="211" y="391" on="0"/>
        <pt x="184" y="389" on="1"/>
        <pt x="182" y="372" on="0"/>
        <pt x="180" y="355" on="1"/>
        <pt x="177" y="328" on="0"/>
        <pt x="175" y="305" on="1"/>
        <pt x="192" y="309" on="0"/>
        <pt x="210" y="311" on="1"/>
        <pt x="250" y="319" on="0"/>
        <pt x="335" y="331" on="0"/>
        <pt x="417" y="339" on="0"/>
        <pt x="452" y="339" on="1"/>
        <pt x="452" y="296" on="1"/>
        <pt x="175" y="256" on="1"/>
        <pt x="176" y="213" on="0"/>
        <pt x="191" y="173" on="1"/>
        <pt x="208" y="125" on="0"/>
        <pt x="266" y="57" on="0"/>
        <pt x="344" y="25" on="0"/>
        <pt x="389" y="38" on="1"/>
        <pt x="468" y="60" on="0"/>
        <pt x="555" y="70" on="0"/>
        <pt x="588" y="59" on="0"/>
        <pt x="571" y="34" on="0"/>
        <pt x="519" y="8" on="0"/>
        <pt x="439" y="-12" on="0"/>
        <pt x="393" y="-12" on="1"/>
        <pt x="256" y="-12" on="0"/>
        <pt x="193" y="64" on="1"/>
        <pt x="138" y="131" on="0"/>
        <pt x="131" y="251" on="1"/>
        <pt x="36" y="238" on="1"/>
        <pt x="-5" y="246" on="1"/>
        <pt x="-5" y="255" on="1"/>
        <pt x="-5" y="256" on="0"/>
        <pt x="27" y="265" on="0"/>
        <pt x="71" y="279" on="0"/>
        <pt x="95" y="285" on="1"/>
        <pt x="116" y="291" on="0"/>
        <pt x="131" y="294" on="1"/>
        <pt x="132" y="333" on="0"/>
        <pt x="138" y="379" on="1"/>
        <pt x="139" y="382" on="0"/>
        <pt x="139" y="384" on="1"/>
        <pt x="122" y="383" on="1"/>
        <pt x="66" y="380" on="0"/>
        <pt x="13" y="380" on="1"/>
        <pt x="13" y="387" on="0"/>
        <pt x="23" y="400" on="0"/>
        <pt x="38" y="409" on="0"/>
        <pt x="52" y="414" on="0"/>
        <pt x="57" y="415" on="1"/>
        <pt x="102" y="427" on="0"/>
        <pt x="147" y="436" on="1"/>
        <pt x="152" y="463" on="0"/>
        <pt x="159" y="489" on="1"/>
        <pt x="174" y="544" on="0"/>
        <pt x="218" y="651" on="0"/>
        <pt x="277" y="733" on="0"/>
        <pt x="354" y="784" on="0"/>
        <pt x="400" y="784" on="1"/>
        <pt x="427" y="784" on="0"/>
        <pt x="479" y="770" on="0"/>
        <pt x="520" y="743" on="0"/>
        <pt x="546" y="700" on="0"/>
        <pt x="546" y="670" on="1"/>
        <pt x="546" y="643" on="0"/>
        <pt x="540" y="599" on="0"/>
        <pt x="534" y="580" on="0"/>
        <pt x="527" y="588" on="0"/>
        <pt x="527" y="611" on="1"/>
        <pt x="527" y="636" on="0"/>
        <pt x="497" y="678" on="0"/>
        <pt x="454" y="709" on="0"/>
        <pt x="405" y="729" on="0"/>
        <pt x="386" y="733" on="1"/>
        <pt x="351" y="742" on="0"/>
        <pt x="292" y="697" on="0"/>
        <pt x="246" y="617" on="0"/>
        <pt x="210" y="512" on="0"/>
        <pt x="198" y="458" on="1"/>
        <pt x="194" y="445" on="1"/>
        <pt x="224" y="449" on="0"/>
        <pt x="255" y="452" on="1"/>
        <pt x="355" y="461" on="0"/>
        <pt x="455" y="461" on="1"/>
      </contour>
    </TTGlyph>
    <TTGlyph name="F" xMin="8" yMin="4" xMax="629" yMax="805">
      <contour>
        <pt x="165" y="22" on="1"/>
        <pt x="165" y="37" on="0"/>
        <pt x="172" y="56" on="0"/>
        <pt x="182" y="71" on="0"/>
        <pt x="194" y="87" on="0"/>
        <pt x="200" y="98" on="1"/>
        <pt x="215" y="130" on="0"/>
        <pt x="245" y="196" on="0"/>
        <pt x="268" y="265" on="0"/>
        <pt x="283" y="336" on="0"/>
        <pt x="283" y="373" on="1"/>
        <pt x="283" y="382" on="0"/>
        <pt x="273" y="385" on="0"/>
        <pt x="265" y="385" on="1"/>
        <pt x="218" y="385" on="0"/>
        <pt x="125" y="381" on="0"/>
        <pt x="78" y="381" on="1"/>
        <pt x="69" y="381" on="0"/>
        <pt x="56" y="381" on="0"/>
        <pt x="43" y="382" on="0"/>
        <pt x="30" y="383" on="0"/>
        <pt x="20" y="385" on="1"/>
        <pt x="11" y="388" on="0"/>
        <pt x="8" y="398" on="0"/>
        <pt x="8" y="405" on="1"/>
        <pt x="8" y="409" on="0"/>
        <pt x="11" y="421" on="0"/>
        <pt x="20" y="419" on="1"/>
        <pt x="50" y="418" on="0"/>
        <pt x="120" y="420" on="0"/>
        <pt x="190" y="426" on="0"/>
        <pt x="258" y="432" on="0"/>
        <pt x="287" y="434" on="1"/>
        <pt x="293" y="445" on="0"/>
        <pt x="299" y="481" on="0"/>
        <pt x="300" y="520" on="0"/>
        <pt x="298" y="558" on="0"/>
        <pt x="298" y="571" on="1"/>
        <pt x="298" y="585" on="0"/>
        <pt x="300" y="620" on="0"/>
        <pt x="298" y="655" on="0"/>
        <pt x="292" y="689" on="0"/>
        <pt x="283" y="702" on="1"/>
        <pt x="276" y="711" on="0"/>
        <pt x="263" y="723" on="0"/>
        <pt x="251" y="733" on="0"/>
        <pt x="243" y="745" on="0"/>
        <pt x="243" y="756" on="1"/>
        <pt x="243" y="761" on="0"/>
        <pt x="244" y="770" on="0"/>
        <pt x="248" y="775" on="1"/>
        <pt x="250" y="775" on="0"/>
        <pt x="261" y="776" on="0"/>
        <pt x="263" y="776" on="1"/>
        <pt x="276" y="776" on="0"/>
        <pt x="303" y="769" on="0"/>
        <pt x="329" y="762" on="0"/>
        <pt x="356" y="756" on="0"/>
        <pt x="372" y="756" on="1"/>
        <pt x="418" y="756" on="0"/>
        <pt x="515" y="761" on="0"/>
        <pt x="561" y="770" on="1"/>
        <pt x="566" y="771" on="0"/>
        <pt x="567" y="783" on="0"/>
        <pt x="566" y="796" on="0"/>
        <pt x="570" y="805" on="0"/>
        <pt x="580" y="805" on="1"/>
        <pt x="588" y="805" on="0"/>
        <pt x="603" y="795" on="0"/>
        <pt x="616" y="781" on="0"/>
        <pt x="625" y="769" on="0"/>
        <pt x="628" y="766" on="1"/>
        <pt x="628" y="765" on="0"/>
        <pt x="629" y="760" on="0"/>
        <pt x="629" y="759" on="1"/>
        <pt x="629" y="746" on="0"/>
        <pt x="601" y="727" on="0"/>
        <pt x="589" y="726" on="1"/>
        <pt x="346" y="706" on="1"/>
        <pt x="346" y="699" on="1"/>
        <pt x="346" y="675" on="0"/>
        <pt x="351" y="627" on="0"/>
        <pt x="351" y="602" on="1"/>
        <pt x="351" y="562" on="0"/>
        <pt x="346" y="485" on="0"/>
        <pt x="346" y="445" on="1"/>
        <pt x="346" y="441" on="0"/>
        <pt x="347" y="432" on="0"/>
        <pt x="355" y="434" on="1"/>
        <pt x="517" y="434" on="1"/>
        <pt x="523" y="434" on="0"/>
        <pt x="549" y="434" on="0"/>
        <pt x="576" y="429" on="0"/>
        <pt x="596" y="418" on="0"/>
        <pt x="596" y="406" on="1"/>
        <pt x="596" y="391" on="0"/>
        <pt x="569" y="375" on="0"/>
        <pt x="556" y="375" on="1"/>
        <pt x="516" y="375" on="0"/>
        <pt x="433" y="386" on="0"/>
        <pt x="391" y="386" on="1"/>
        <pt x="385" y="386" on="0"/>
        <pt x="368" y="385" on="0"/>
        <pt x="360" y="385" on="1"/>
        <pt x="341" y="385" on="1"/>
        <pt x="331" y="307" on="1"/>
        <pt x="273" y="117" on="1"/>
        <pt x="215" y="10" on="1"/>
        <pt x="211" y="4" on="0"/>
        <pt x="190" y="4" on="0"/>
        <pt x="187" y="4" on="1"/>
        <pt x="170" y="4" on="1"/>
        <pt x="166" y="9" on="0"/>
        <pt x="165" y="16" on="0"/>
      </contour>
    </TTGlyph>
    <TTGlyph name="G" xMin="24" yMin="-1" xMax="902" yMax="902">
      <contour>
        <pt x="258" y="190" on="1"/>
        <pt x="257" y="190" on="0"/>
        <pt x="256" y="191" on="0"/>
        <pt x="256" y="191" on="1"/>
        <pt x="254" y="190" on="1"/>
        <pt x="252" y="189" on="0"/>
        <pt x="240" y="183" on="0"/>
        <pt x="238" y="181" on="1"/>
        <pt x="231" y="175" on="0"/>
        <pt x="195" y="144" on="0"/>
        <pt x="155" y="110" on="0"/>
        <pt x="119" y="79" on="0"/>
        <pt x="112" y="73" on="1"/>
        <pt x="110" y="71" on="0"/>
        <pt x="98" y="55" on="0"/>
        <pt x="83" y="35" on="0"/>
        <pt x="67" y="20" on="0"/>
        <pt x="61" y="20" on="1"/>
        <pt x="50" y="20" on="0"/>
        <pt x="24" y="33" on="0"/>
        <pt x="24" y="46" on="1"/>
        <pt x="24" y="54" on="0"/>
        <pt x="49" y="84" on="0"/>
        <pt x="86" y="120" on="0"/>
        <pt x="133" y="158" on="0"/>
        <pt x="177" y="194" on="0"/>
        <pt x="214" y="225" on="0"/>
        <pt x="224" y="234" on="1"/>
        <pt x="195" y="275" on="0"/>
        <pt x="142" y="341" on="0"/>
        <pt x="112" y="381" on="1"/>
        <pt x="112" y="392" on="1"/>
        <pt x="112" y="409" on="0"/>
        <pt x="126" y="420" on="0"/>
        <pt x="142" y="420" on="1"/>
        <pt x="153" y="420" on="0"/>
        <pt x="167" y="416" on="0"/>
        <pt x="180" y="409" on="1"/>
        <pt x="228" y="401" on="0"/>
        <pt x="307" y="390" on="0"/>
        <pt x="350" y="390" on="1"/>
        <pt x="375" y="390" on="1"/>
        <pt x="378" y="392" on="0"/>
        <pt x="389" y="404" on="0"/>
        <pt x="401" y="418" on="0"/>
        <pt x="412" y="431" on="0"/>
        <pt x="414" y="434" on="1"/>
        <pt x="419" y="440" on="0"/>
        <pt x="419" y="449" on="1"/>
        <pt x="419" y="456" on="0"/>
        <pt x="413" y="472" on="0"/>
        <pt x="405" y="489" on="0"/>
        <pt x="399" y="506" on="0"/>
        <pt x="399" y="515" on="1"/>
        <pt x="399" y="522" on="1"/>
        <pt x="458" y="766" on="1"/>
        <pt x="463" y="788" on="0"/>
        <pt x="495" y="837" on="0"/>
        <pt x="537" y="877" on="0"/>
        <pt x="588" y="902" on="0"/>
        <pt x="612" y="902" on="1"/>
        <pt x="624" y="902" on="0"/>
        <pt x="638" y="890" on="0"/>
        <pt x="646" y="873" on="0"/>
        <pt x="649" y="853" on="0"/>
        <pt x="649" y="844" on="1"/>
        <pt x="649" y="820" on="0"/>
        <pt x="643" y="774" on="0"/>
        <pt x="633" y="751" on="1"/>
        <pt x="555" y="561" on="1"/>
        <pt x="553" y="553" on="0"/>
        <pt x="542" y="535" on="0"/>
        <pt x="529" y="516" on="0"/>
        <pt x="516" y="498" on="0"/>
        <pt x="511" y="492" on="1"/>
        <pt x="519" y="492" on="1"/>
        <pt x="536" y="492" on="0"/>
        <pt x="564" y="506" on="0"/>
        <pt x="580" y="512" on="1"/>
        <pt x="680" y="553" on="0"/>
        <pt x="815" y="684" on="0"/>
        <pt x="858" y="785" on="1"/>
        <pt x="862" y="789" on="0"/>
        <pt x="873" y="791" on="0"/>
        <pt x="878" y="791" on="1"/>
        <pt x="888" y="791" on="0"/>
        <pt x="902" y="778" on="0"/>
        <pt x="902" y="768" on="1"/>
        <pt x="902" y="767" on="0"/>
        <pt x="902" y="761" on="0"/>
        <pt x="901" y="760" on="1"/>
        <pt x="897" y="752" on="0"/>
        <pt x="882" y="716" on="0"/>
        <pt x="863" y="671" on="0"/>
        <pt x="843" y="622" on="0"/>
        <pt x="825" y="577" on="0"/>
        <pt x="812" y="541" on="0"/>
        <pt x="809" y="532" on="1"/>
        <pt x="805" y="519" on="0"/>
        <pt x="794" y="479" on="0"/>
        <pt x="782" y="432" on="0"/>
        <pt x="770" y="382" on="0"/>
        <pt x="761" y="341" on="0"/>
        <pt x="756" y="311" on="0"/>
        <pt x="756" y="307" on="1"/>
        <pt x="756" y="298" on="1"/>
        <pt x="756" y="295" on="0"/>
        <pt x="750" y="265" on="0"/>
        <pt x="742" y="228" on="0"/>
        <pt x="733" y="191" on="0"/>
        <pt x="731" y="181" on="1"/>
        <pt x="724" y="155" on="0"/>
        <pt x="701" y="91" on="0"/>
        <pt x="665" y="36" on="0"/>
        <pt x="615" y="-1" on="0"/>
        <pt x="581" y="-1" on="1"/>
        <pt x="534" y="-1" on="0"/>
        <pt x="442" y="32" on="0"/>
        <pt x="358" y="86" on="0"/>
        <pt x="286" y="155" on="0"/>
      </contour>
      <contour>
        <pt x="292" y="229" on="1"/>
        <pt x="292" y="229" on="0"/>
        <pt x="297" y="222" on="0"/>
        <pt x="305" y="212" on="0"/>
        <pt x="313" y="202" on="0"/>
        <pt x="316" y="200" on="1"/>
        <pt x="340" y="174" on="0"/>
        <pt x="400" y="121" on="0"/>
        <pt x="467" y="76" on="0"/>
        <pt x="540" y="49" on="0"/>
        <pt x="578" y="49" on="1"/>
        <pt x="604" y="49" on="0"/>
        <pt x="634" y="83" on="0"/>
        <pt x="652" y="130" on="0"/>
        <pt x="667" y="180" on="0"/>
        <pt x="678" y="195" on="1"/>
        <pt x="716" y="375" on="1"/>
        <pt x="716" y="381" on="1"/>
        <pt x="720" y="406" on="0"/>
        <pt x="729" y="448" on="0"/>
        <pt x="742" y="490" on="0"/>
        <pt x="756" y="537" on="0"/>
        <pt x="765" y="566" on="1"/>
        <pt x="754" y="557" on="0"/>
        <pt x="724" y="535" on="0"/>
        <pt x="694" y="515" on="0"/>
        <pt x="664" y="498" on="0"/>
        <pt x="653" y="492" on="1"/>
        <pt x="643" y="487" on="0"/>
        <pt x="604" y="472" on="0"/>
        <pt x="565" y="456" on="0"/>
        <pt x="535" y="445" on="0"/>
        <pt x="531" y="444" on="1"/>
        <pt x="472" y="434" on="1"/>
        <pt x="472" y="434" on="0"/>
        <pt x="464" y="426" on="0"/>
        <pt x="463" y="424" on="1"/>
        <pt x="461" y="422" on="0"/>
        <pt x="453" y="410" on="0"/>
        <pt x="443" y="399" on="0"/>
        <pt x="435" y="387" on="0"/>
        <pt x="433" y="385" on="1"/>
        <pt x="436" y="385" on="0"/>
        <pt x="455" y="387" on="0"/>
        <pt x="476" y="384" on="0"/>
        <pt x="492" y="375" on="0"/>
        <pt x="492" y="366" on="1"/>
        <pt x="492" y="356" on="0"/>
        <pt x="474" y="347" on="0"/>
        <pt x="467" y="346" on="1"/>
        <pt x="463" y="346" on="0"/>
        <pt x="443" y="345" on="0"/>
        <pt x="419" y="343" on="0"/>
        <pt x="399" y="341" on="0"/>
        <pt x="394" y="341" on="1"/>
      </contour>
      <contour>
        <pt x="260" y="265" on="1"/>
        <pt x="331" y="337" on="1"/>
        <pt x="331" y="341" on="1"/>
        <pt x="320" y="342" on="0"/>
        <pt x="292" y="346" on="0"/>
        <pt x="260" y="348" on="0"/>
        <pt x="229" y="351" on="0"/>
        <pt x="217" y="351" on="1"/>
        <pt x="214" y="351" on="1"/>
        <pt x="212" y="350" on="0"/>
        <pt x="201" y="347" on="0"/>
        <pt x="199" y="346" on="1"/>
      </contour>
      <contour>
        <pt x="600" y="840" on="1"/>
        <pt x="583" y="840" on="0"/>
        <pt x="553" y="823" on="0"/>
        <pt x="528" y="798" on="0"/>
        <pt x="510" y="767" on="0"/>
        <pt x="507" y="751" on="1"/>
        <pt x="463" y="580" on="1"/>
        <pt x="461" y="574" on="0"/>
        <pt x="459" y="552" on="0"/>
        <pt x="457" y="527" on="0"/>
        <pt x="457" y="504" on="0"/>
        <pt x="457" y="498" on="1"/>
        <pt x="463" y="498" on="1"/>
        <pt x="485" y="538" on="0"/>
        <pt x="534" y="618" on="0"/>
        <pt x="574" y="702" on="0"/>
        <pt x="600" y="790" on="0"/>
      </contour>
    </TTGlyph>
    <TTGlyph name="Gbreve" xMin="24" yMin="-1" xMax="902" yMax="1072">
      <component glyphName="G" x="0" y="0" flags="0x1204"/>
      <component glyphName="breve" x="391" y="432" flags="0x1004"/>
    </TTGlyph>
    <TTGlyph name="Gcircumflex" xMin="24" yMin="-1" xMax="902" yMax="1207">
      <component glyphName="G" x="0" y="0" flags="0x1204"/>
      <component glyphName="circumflex" x="355" y="277" flags="0x1004"/>
    </TTGlyph>
    <TTGlyph name="Gcommaaccent" xMin="24" yMin="-330" xMax="902" yMax="902">
      <component glyphName="G" x="0" y="0" flags="0x1204"/>
      <component glyphName="commaaccent" x="237" y="0" flags="0x1004"/>
    </TTGlyph>
    <TTGlyph name="Gdotaccent" xMin="24" yMin="-1" xMax="902" yMax="1035">
      <component glyphName="G" x="0" y="0" flags="0x1204"/>
      <component glyphName="dotaccent" x="698" y="452" flags="0x1004"/>
    </TTGlyph>
    <TTGlyph name="H" xMin="24" yMin="0" xMax="824" yMax="868">
      <contour>
        <pt x="147" y="278" on="1"/>
        <pt x="147" y="279" on="0"/>
        <pt x="150" y="289" on="0"/>
        <pt x="155" y="301" on="0"/>
        <pt x="159" y="313" on="0"/>
        <pt x="160" y="317" on="1"/>
        <pt x="160" y="319" on="1"/>
        <pt x="160" y="321" on="1"/>
        <pt x="147" y="322" on="0"/>
        <pt x="103" y="328" on="0"/>
        <pt x="63" y="343" on="0"/>
        <pt x="33" y="367" on="0"/>
        <pt x="33" y="388" on="1"/>
        <pt x="33" y="408" on="0"/>
        <pt x="61" y="433" on="0"/>
        <pt x="101" y="448" on="0"/>
        <pt x="143" y="454" on="0"/>
        <pt x="157" y="454" on="1"/>
        <pt x="176" y="454" on="0"/>
        <pt x="202" y="453" on="0"/>
        <pt x="222" y="449" on="1"/>
        <pt x="222" y="463" on="1"/>
        <pt x="371" y="752" on="1"/>
        <pt x="234" y="722" on="1"/>
        <pt x="204" y="722" on="1"/>
        <pt x="193" y="722" on="0"/>
        <pt x="157" y="724" on="0"/>
        <pt x="123" y="733" on="0"/>
        <pt x="98" y="751" on="0"/>
        <pt x="98" y="769" on="1"/>
        <pt x="98" y="792" on="0"/>
        <pt x="111" y="829" on="0"/>
        <pt x="137" y="829" on="1"/>
        <pt x="148" y="829" on="0"/>
        <pt x="157" y="813" on="0"/>
        <pt x="160" y="793" on="0"/>
        <pt x="166" y="774" on="0"/>
        <pt x="175" y="770" on="1"/>
        <pt x="178" y="770" on="0"/>
        <pt x="189" y="770" on="0"/>
        <pt x="202" y="769" on="0"/>
        <pt x="214" y="769" on="0"/>
        <pt x="217" y="769" on="1"/>
        <pt x="238" y="769" on="0"/>
        <pt x="273" y="773" on="0"/>
        <pt x="306" y="780" on="0"/>
        <pt x="339" y="792" on="0"/>
        <pt x="360" y="800" on="1"/>
        <pt x="373" y="805" on="0"/>
        <pt x="399" y="828" on="0"/>
        <pt x="424" y="851" on="0"/>
        <pt x="450" y="868" on="0"/>
        <pt x="464" y="868" on="1"/>
        <pt x="483" y="868" on="0"/>
        <pt x="483" y="847" on="1"/>
        <pt x="483" y="839" on="0"/>
        <pt x="481" y="827" on="0"/>
        <pt x="477" y="819" on="1"/>
        <pt x="277" y="449" on="1"/>
        <pt x="277" y="434" on="1"/>
        <pt x="332" y="415" on="0"/>
        <pt x="375" y="381" on="1"/>
        <pt x="381" y="381" on="1"/>
        <pt x="545" y="405" on="1"/>
        <pt x="555" y="409" on="1"/>
        <pt x="558" y="418" on="0"/>
        <pt x="573" y="456" on="0"/>
        <pt x="591" y="499" on="0"/>
        <pt x="607" y="538" on="0"/>
        <pt x="609" y="546" on="1"/>
        <pt x="611" y="548" on="0"/>
        <pt x="617" y="564" on="0"/>
        <pt x="619" y="566" on="1"/>
        <pt x="706" y="790" on="1"/>
        <pt x="710" y="797" on="0"/>
        <pt x="729" y="809" on="0"/>
        <pt x="736" y="809" on="1"/>
        <pt x="749" y="809" on="0"/>
        <pt x="756" y="786" on="0"/>
        <pt x="756" y="777" on="1"/>
        <pt x="756" y="770" on="1"/>
        <pt x="653" y="507" on="1"/>
        <pt x="649" y="499" on="0"/>
        <pt x="638" y="474" on="0"/>
        <pt x="628" y="450" on="0"/>
        <pt x="621" y="428" on="0"/>
        <pt x="619" y="424" on="1"/>
        <pt x="622" y="424" on="0"/>
        <pt x="634" y="427" on="0"/>
        <pt x="648" y="429" on="0"/>
        <pt x="661" y="433" on="0"/>
        <pt x="662" y="434" on="1"/>
        <pt x="669" y="436" on="0"/>
        <pt x="701" y="448" on="0"/>
        <pt x="737" y="463" on="0"/>
        <pt x="769" y="475" on="0"/>
        <pt x="775" y="478" on="1"/>
        <pt x="780" y="486" on="0"/>
        <pt x="799" y="498" on="0"/>
        <pt x="809" y="498" on="1"/>
        <pt x="815" y="498" on="0"/>
        <pt x="824" y="490" on="0"/>
        <pt x="824" y="483" on="1"/>
        <pt x="824" y="472" on="0"/>
        <pt x="808" y="454" on="0"/>
        <pt x="786" y="437" on="0"/>
        <pt x="762" y="427" on="0"/>
        <pt x="756" y="424" on="1"/>
        <pt x="601" y="370" on="1"/>
        <pt x="507" y="112" on="1"/>
        <pt x="505" y="102" on="0"/>
        <pt x="498" y="67" on="0"/>
        <pt x="485" y="33" on="0"/>
        <pt x="465" y="9" on="0"/>
        <pt x="451" y="9" on="1"/>
        <pt x="436" y="9" on="0"/>
        <pt x="420" y="49" on="0"/>
        <pt x="413" y="110" on="0"/>
        <pt x="408" y="184" on="0"/>
        <pt x="397" y="256" on="0"/>
        <pt x="375" y="312" on="0"/>
        <pt x="355" y="326" on="1"/>
        <pt x="354" y="326" on="0"/>
        <pt x="338" y="328" on="0"/>
        <pt x="337" y="328" on="1"/>
        <pt x="333" y="328" on="0"/>
        <pt x="318" y="326" on="0"/>
        <pt x="317" y="326" on="1"/>
        <pt x="307" y="325" on="0"/>
        <pt x="275" y="322" on="0"/>
        <pt x="246" y="319" on="0"/>
        <pt x="224" y="317" on="0"/>
        <pt x="224" y="317" on="1"/>
        <pt x="220" y="312" on="1"/>
        <pt x="117" y="93" on="1"/>
        <pt x="113" y="66" on="0"/>
        <pt x="85" y="28" on="0"/>
        <pt x="73" y="4" on="1"/>
        <pt x="70" y="4" on="0"/>
        <pt x="51" y="0" on="0"/>
        <pt x="49" y="0" on="1"/>
        <pt x="48" y="0" on="0"/>
        <pt x="37" y="4" on="0"/>
        <pt x="34" y="4" on="1"/>
        <pt x="32" y="5" on="0"/>
        <pt x="24" y="9" on="0"/>
        <pt x="24" y="10" on="1"/>
        <pt x="24" y="34" on="1"/>
      </contour>
      <contour>
        <pt x="415" y="334" on="1"/>
        <pt x="415" y="324" on="0"/>
        <pt x="429" y="281" on="0"/>
        <pt x="448" y="229" on="0"/>
        <pt x="465" y="180" on="0"/>
        <pt x="468" y="166" on="1"/>
        <pt x="469" y="170" on="0"/>
        <pt x="476" y="193" on="0"/>
        <pt x="484" y="218" on="0"/>
        <pt x="490" y="239" on="0"/>
        <pt x="492" y="244" on="1"/>
        <pt x="493" y="245" on="0"/>
        <pt x="497" y="253" on="0"/>
        <pt x="498" y="254" on="1"/>
        <pt x="501" y="264" on="0"/>
        <pt x="513" y="294" on="0"/>
        <pt x="524" y="324" on="0"/>
        <pt x="532" y="346" on="0"/>
        <pt x="532" y="346" on="1"/>
        <pt x="532" y="356" on="1"/>
        <pt x="530" y="356" on="0"/>
        <pt x="524" y="356" on="0"/>
        <pt x="522" y="355" on="1"/>
        <pt x="516" y="355" on="0"/>
        <pt x="485" y="349" on="0"/>
        <pt x="451" y="343" on="0"/>
        <pt x="420" y="337" on="0"/>
        <pt x="415" y="337" on="1"/>
      </contour>
      <contour>
        <pt x="103" y="390" on="1"/>
        <pt x="117" y="379" on="0"/>
        <pt x="158" y="371" on="0"/>
        <pt x="176" y="371" on="1"/>
        <pt x="184" y="371" on="0"/>
        <pt x="194" y="390" on="0"/>
        <pt x="194" y="397" on="1"/>
        <pt x="194" y="400" on="1"/>
        <pt x="192" y="400" on="0"/>
        <pt x="168" y="405" on="0"/>
        <pt x="166" y="405" on="1"/>
        <pt x="165" y="405" on="0"/>
        <pt x="147" y="404" on="0"/>
        <pt x="124" y="400" on="0"/>
        <pt x="104" y="394" on="0"/>
      </contour>
      <contour>
        <pt x="260" y="386" on="1"/>
        <pt x="247" y="386" on="0"/>
        <pt x="247" y="371" on="1"/>
        <pt x="287" y="371" on="1"/>
        <pt x="292" y="375" on="1"/>
        <pt x="285" y="380" on="0"/>
        <pt x="269" y="386" on="0"/>
      </contour>
    </TTGlyph>
    <TTGlyph name="Hbar" xMin="24" yMin="0" xMax="824" yMax="868">
      <contour>
        <pt x="268" y="560" on="1"/>
        <pt x="270" y="565" on="0"/>
        <pt x="278" y="571" on="1"/>
        <pt x="371" y="752" on="1"/>
        <pt x="234" y="722" on="1"/>
        <pt x="204" y="722" on="1"/>
        <pt x="193" y="722" on="0"/>
        <pt x="157" y="724" on="0"/>
        <pt x="123" y="733" on="0"/>
        <pt x="98" y="751" on="0"/>
        <pt x="98" y="769" on="1"/>
        <pt x="98" y="792" on="0"/>
        <pt x="111" y="829" on="0"/>
        <pt x="137" y="829" on="1"/>
        <pt x="148" y="829" on="0"/>
        <pt x="157" y="813" on="0"/>
        <pt x="160" y="793" on="0"/>
        <pt x="166" y="774" on="0"/>
        <pt x="175" y="770" on="1"/>
        <pt x="184" y="770" on="1"/>
        <pt x="189" y="770" on="0"/>
        <pt x="202" y="769" on="0"/>
        <pt x="208" y="769" on="1"/>
        <pt x="217" y="769" on="1"/>
        <pt x="238" y="769" on="0"/>
        <pt x="273" y="773" on="0"/>
        <pt x="306" y="780" on="0"/>
        <pt x="339" y="792" on="0"/>
        <pt x="360" y="800" on="1"/>
        <pt x="373" y="805" on="0"/>
        <pt x="399" y="828" on="0"/>
        <pt x="424" y="851" on="0"/>
        <pt x="450" y="868" on="0"/>
        <pt x="464" y="868" on="1"/>
        <pt x="483" y="868" on="0"/>
        <pt x="483" y="847" on="1"/>
        <pt x="483" y="839" on="0"/>
        <pt x="481" y="827" on="0"/>
        <pt x="477" y="819" on="1"/>
        <pt x="352" y="588" on="1"/>
        <pt x="364" y="588" on="0"/>
        <pt x="373" y="589" on="1"/>
        <pt x="399" y="589" on="0"/>
        <pt x="439" y="589" on="0"/>
        <pt x="489" y="588" on="0"/>
        <pt x="535" y="588" on="1"/>
        <pt x="569" y="588" on="0"/>
        <pt x="603" y="585" on="1"/>
        <pt x="614" y="584" on="0"/>
        <pt x="625" y="582" on="1"/>
        <pt x="706" y="790" on="1"/>
        <pt x="710" y="797" on="0"/>
        <pt x="729" y="809" on="0"/>
        <pt x="736" y="809" on="1"/>
        <pt x="749" y="809" on="0"/>
        <pt x="756" y="786" on="0"/>
        <pt x="756" y="777" on="1"/>
        <pt x="756" y="770" on="1"/>
        <pt x="653" y="507" on="1"/>
        <pt x="649" y="499" on="0"/>
        <pt x="638" y="474" on="0"/>
        <pt x="628" y="450" on="0"/>
        <pt x="621" y="428" on="0"/>
        <pt x="619" y="424" on="1"/>
        <pt x="622" y="424" on="0"/>
        <pt x="634" y="427" on="0"/>
        <pt x="648" y="429" on="0"/>
        <pt x="661" y="433" on="0"/>
        <pt x="662" y="434" on="1"/>
        <pt x="669" y="436" on="0"/>
        <pt x="701" y="448" on="0"/>
        <pt x="719" y="455" on="1"/>
        <pt x="752" y="469" on="1"/>
        <pt x="769" y="475" on="0"/>
        <pt x="775" y="478" on="1"/>
        <pt x="780" y="486" on="0"/>
        <pt x="799" y="498" on="0"/>
        <pt x="809" y="498" on="1"/>
        <pt x="815" y="498" on="0"/>
        <pt x="824" y="490" on="0"/>
        <pt x="824" y="483" on="1"/>
        <pt x="824" y="472" on="0"/>
        <pt x="808" y="454" on="0"/>
        <pt x="786" y="437" on="0"/>
        <pt x="762" y="427" on="0"/>
        <pt x="756" y="424" on="1"/>
        <pt x="601" y="370" on="1"/>
        <pt x="507" y="112" on="1"/>
        <pt x="505" y="102" on="0"/>
        <pt x="498" y="67" on="0"/>
        <pt x="485" y="33" on="0"/>
        <pt x="465" y="9" on="0"/>
        <pt x="451" y="9" on="1"/>
        <pt x="436" y="9" on="0"/>
        <pt x="420" y="49" on="0"/>
        <pt x="413" y="110" on="0"/>
        <pt x="408" y="184" on="0"/>
        <pt x="397" y="256" on="0"/>
        <pt x="375" y="312" on="0"/>
        <pt x="355" y="326" on="1"/>
        <pt x="354" y="326" on="0"/>
        <pt x="338" y="328" on="0"/>
        <pt x="337" y="328" on="1"/>
        <pt x="333" y="328" on="0"/>
        <pt x="318" y="326" on="0"/>
        <pt x="317" y="326" on="1"/>
        <pt x="307" y="325" on="0"/>
        <pt x="275" y="322" on="0"/>
        <pt x="246" y="319" on="0"/>
        <pt x="235" y="318" on="1"/>
        <pt x="224" y="317" on="1"/>
        <pt x="220" y="312" on="1"/>
        <pt x="117" y="93" on="1"/>
        <pt x="113" y="66" on="0"/>
        <pt x="85" y="28" on="0"/>
        <pt x="73" y="4" on="1"/>
        <pt x="70" y="4" on="0"/>
        <pt x="51" y="0" on="0"/>
        <pt x="49" y="0" on="1"/>
        <pt x="48" y="0" on="0"/>
        <pt x="42" y="2" on="1"/>
        <pt x="34" y="4" on="1"/>
        <pt x="32" y="5" on="0"/>
        <pt x="24" y="9" on="0"/>
        <pt x="24" y="10" on="1"/>
        <pt x="24" y="34" on="1"/>
        <pt x="147" y="278" on="1"/>
        <pt x="147" y="279" on="0"/>
        <pt x="150" y="289" on="0"/>
        <pt x="155" y="301" on="0"/>
        <pt x="159" y="313" on="0"/>
        <pt x="160" y="317" on="1"/>
        <pt x="160" y="321" on="1"/>
        <pt x="147" y="322" on="0"/>
        <pt x="103" y="328" on="0"/>
        <pt x="63" y="343" on="0"/>
        <pt x="33" y="367" on="0"/>
        <pt x="33" y="388" on="1"/>
        <pt x="33" y="408" on="0"/>
        <pt x="61" y="433" on="0"/>
        <pt x="101" y="448" on="0"/>
        <pt x="143" y="454" on="0"/>
        <pt x="157" y="454" on="1"/>
        <pt x="176" y="454" on="0"/>
        <pt x="202" y="453" on="0"/>
        <pt x="222" y="449" on="1"/>
        <pt x="222" y="463" on="1"/>
        <pt x="268" y="553" on="1"/>
        <pt x="267" y="555" on="0"/>
      </contour>
      <contour>
        <pt x="277" y="434" on="1"/>
        <pt x="332" y="415" on="0"/>
        <pt x="375" y="381" on="1"/>
        <pt x="381" y="381" on="1"/>
        <pt x="545" y="405" on="1"/>
        <pt x="555" y="409" on="1"/>
        <pt x="558" y="418" on="0"/>
        <pt x="573" y="456" on="0"/>
        <pt x="591" y="499" on="0"/>
        <pt x="607" y="538" on="0"/>
        <pt x="609" y="546" on="1"/>
        <pt x="610" y="547" on="0"/>
        <pt x="612" y="551" on="1"/>
        <pt x="606" y="551" on="1"/>
        <pt x="562" y="550" on="0"/>
        <pt x="492" y="544" on="1"/>
        <pt x="447" y="539" on="0"/>
        <pt x="400" y="537" on="1"/>
        <pt x="361" y="535" on="0"/>
        <pt x="324" y="535" on="1"/>
        <pt x="277" y="449" on="1"/>
      </contour>
      <contour>
        <pt x="415" y="334" on="1"/>
        <pt x="415" y="324" on="0"/>
        <pt x="429" y="281" on="0"/>
        <pt x="448" y="229" on="0"/>
        <pt x="465" y="180" on="0"/>
        <pt x="468" y="166" on="1"/>
        <pt x="469" y="171" on="0"/>
        <pt x="472" y="181" on="1"/>
        <pt x="476" y="193" on="0"/>
        <pt x="484" y="218" on="0"/>
        <pt x="490" y="239" on="0"/>
        <pt x="492" y="244" on="1"/>
        <pt x="493" y="245" on="0"/>
        <pt x="497" y="253" on="0"/>
        <pt x="498" y="254" on="1"/>
        <pt x="501" y="264" on="0"/>
        <pt x="513" y="294" on="0"/>
        <pt x="524" y="324" on="0"/>
        <pt x="527" y="335" on="1"/>
        <pt x="532" y="346" on="1"/>
        <pt x="532" y="356" on="1"/>
        <pt x="526" y="356" on="1"/>
        <pt x="524" y="356" on="0"/>
        <pt x="522" y="355" on="1"/>
        <pt x="516" y="355" on="0"/>
        <pt x="485" y="349" on="0"/>
        <pt x="451" y="343" on="0"/>
        <pt x="420" y="337" on="0"/>
        <pt x="415" y="337" on="1"/>
      </contour>
      <contour>
        <pt x="103" y="390" on="1"/>
        <pt x="117" y="379" on="0"/>
        <pt x="158" y="371" on="0"/>
        <pt x="176" y="371" on="1"/>
        <pt x="184" y="371" on="0"/>
        <pt x="194" y="390" on="0"/>
        <pt x="194" y="397" on="1"/>
        <pt x="194" y="400" on="1"/>
        <pt x="192" y="400" on="0"/>
        <pt x="168" y="405" on="0"/>
        <pt x="166" y="405" on="1"/>
        <pt x="165" y="405" on="0"/>
        <pt x="147" y="404" on="0"/>
        <pt x="124" y="400" on="0"/>
        <pt x="104" y="394" on="0"/>
      </contour>
      <contour>
        <pt x="260" y="386" on="1"/>
        <pt x="247" y="386" on="0"/>
        <pt x="247" y="371" on="1"/>
        <pt x="287" y="371" on="1"/>
        <pt x="292" y="375" on="1"/>
        <pt x="285" y="380" on="0"/>
        <pt x="269" y="386" on="0"/>
      </contour>
    </TTGlyph>
    <TTGlyph name="Hcircumflex" xMin="24" yMin="0" xMax="824" yMax="1200">
      <component glyphName="H" x="0" y="0" flags="0x1204"/>
      <component glyphName="circumflex" x="351" y="270" flags="0x1004"/>
    </TTGlyph>
    <TTGlyph name="I" xMin="10" yMin="-1" xMax="693" yMax="751">
      <contour>
        <pt x="454" y="127" on="1"/>
        <pt x="427" y="109" on="0"/>
        <pt x="367" y="74" on="0"/>
        <pt x="302" y="47" on="0"/>
        <pt x="236" y="30" on="0"/>
        <pt x="202" y="30" on="1"/>
        <pt x="162" y="30" on="0"/>
        <pt x="112" y="72" on="0"/>
        <pt x="82" y="134" on="0"/>
        <pt x="64" y="205" on="0"/>
        <pt x="54" y="234" on="1"/>
        <pt x="50" y="246" on="0"/>
        <pt x="36" y="260" on="0"/>
        <pt x="21" y="274" on="0"/>
        <pt x="10" y="292" on="0"/>
        <pt x="10" y="305" on="1"/>
        <pt x="10" y="315" on="0"/>
        <pt x="33" y="332" on="0"/>
        <pt x="41" y="332" on="1"/>
        <pt x="50" y="332" on="0"/>
        <pt x="67" y="316" on="0"/>
        <pt x="91" y="297" on="0"/>
        <pt x="121" y="282" on="0"/>
        <pt x="141" y="282" on="1"/>
        <pt x="154" y="282" on="0"/>
        <pt x="188" y="283" on="0"/>
        <pt x="200" y="287" on="1"/>
        <pt x="209" y="291" on="0"/>
        <pt x="211" y="296" on="0"/>
        <pt x="210" y="300" on="0"/>
        <pt x="214" y="302" on="0"/>
        <pt x="225" y="302" on="1"/>
        <pt x="233" y="302" on="0"/>
        <pt x="254" y="299" on="0"/>
        <pt x="272" y="290" on="0"/>
        <pt x="283" y="275" on="0"/>
        <pt x="283" y="265" on="1"/>
        <pt x="283" y="247" on="0"/>
        <pt x="259" y="239" on="0"/>
        <pt x="244" y="238" on="1"/>
        <pt x="237" y="238" on="0"/>
        <pt x="199" y="238" on="0"/>
        <pt x="157" y="236" on="0"/>
        <pt x="120" y="234" on="0"/>
        <pt x="112" y="234" on="1"/>
        <pt x="116" y="215" on="0"/>
        <pt x="128" y="162" on="0"/>
        <pt x="148" y="115" on="0"/>
        <pt x="183" y="82" on="0"/>
        <pt x="209" y="82" on="1"/>
        <pt x="240" y="82" on="0"/>
        <pt x="300" y="97" on="0"/>
        <pt x="356" y="122" on="0"/>
        <pt x="409" y="154" on="0"/>
        <pt x="434" y="170" on="1"/>
        <pt x="438" y="174" on="0"/>
        <pt x="439" y="178" on="0"/>
        <pt x="439" y="183" on="1"/>
        <pt x="439" y="220" on="0"/>
        <pt x="424" y="296" on="0"/>
        <pt x="424" y="336" on="1"/>
        <pt x="424" y="362" on="0"/>
        <pt x="432" y="444" on="0"/>
        <pt x="450" y="535" on="0"/>
        <pt x="480" y="629" on="0"/>
        <pt x="525" y="705" on="0"/>
        <pt x="585" y="751" on="0"/>
        <pt x="625" y="751" on="1"/>
        <pt x="643" y="751" on="0"/>
        <pt x="666" y="731" on="0"/>
        <pt x="681" y="697" on="0"/>
        <pt x="689" y="657" on="0"/>
        <pt x="693" y="617" on="0"/>
        <pt x="693" y="584" on="0"/>
        <pt x="693" y="575" on="1"/>
        <pt x="693" y="533" on="0"/>
        <pt x="680" y="445" on="0"/>
        <pt x="655" y="361" on="0"/>
        <pt x="616" y="282" on="0"/>
        <pt x="590" y="248" on="1"/>
        <pt x="570" y="222" on="0"/>
        <pt x="525" y="185" on="0"/>
        <pt x="502" y="161" on="1"/>
        <pt x="513" y="118" on="0"/>
        <pt x="551" y="55" on="0"/>
        <pt x="585" y="30" on="1"/>
        <pt x="589" y="26" on="0"/>
        <pt x="590" y="22" on="0"/>
        <pt x="590" y="16" on="1"/>
        <pt x="590" y="6" on="0"/>
        <pt x="579" y="-1" on="0"/>
        <pt x="570" y="-1" on="1"/>
        <pt x="553" y="-1" on="0"/>
        <pt x="532" y="10" on="0"/>
        <pt x="515" y="26" on="0"/>
        <pt x="499" y="45" on="0"/>
        <pt x="489" y="53" on="1"/>
      </contour>
      <contour>
        <pt x="477" y="342" on="1"/>
        <pt x="477" y="326" on="0"/>
        <pt x="477" y="300" on="0"/>
        <pt x="479" y="276" on="0"/>
        <pt x="481" y="250" on="0"/>
        <pt x="483" y="234" on="1"/>
        <pt x="484" y="229" on="0"/>
        <pt x="488" y="215" on="0"/>
        <pt x="489" y="215" on="1"/>
        <pt x="493" y="215" on="1"/>
        <pt x="494" y="215" on="0"/>
        <pt x="506" y="226" on="0"/>
        <pt x="521" y="241" on="0"/>
        <pt x="537" y="258" on="0"/>
        <pt x="542" y="264" on="1"/>
        <pt x="598" y="328" on="0"/>
        <pt x="645" y="485" on="0"/>
        <pt x="645" y="571" on="1"/>
        <pt x="645" y="574" on="0"/>
        <pt x="645" y="592" on="0"/>
        <pt x="644" y="613" on="0"/>
        <pt x="644" y="631" on="0"/>
        <pt x="644" y="634" on="1"/>
        <pt x="643" y="637" on="0"/>
        <pt x="640" y="654" on="0"/>
        <pt x="634" y="672" on="0"/>
        <pt x="630" y="689" on="0"/>
        <pt x="629" y="692" on="1"/>
        <pt x="628" y="694" on="0"/>
        <pt x="625" y="700" on="0"/>
        <pt x="625" y="702" on="1"/>
        <pt x="595" y="699" on="0"/>
        <pt x="551" y="656" on="0"/>
        <pt x="517" y="590" on="0"/>
        <pt x="496" y="510" on="0"/>
        <pt x="482" y="432" on="0"/>
        <pt x="477" y="364" on="0"/>
      </contour>
    </TTGlyph>
    <TTGlyph name="Iacute" xMin="10" yMin="-1" xMax="693" yMax="979">
      <component glyphName="I" x="0" y="0" flags="0x1204"/>
      <component glyphName="acute" x="331" y="225" flags="0x1004"/>
    </TTGlyph>
    <TTGlyph name="Ibreve" xMin="10" yMin="-1" xMax="693" yMax="976">
      <component glyphName="I" x="0" y="0" flags="0x1204"/>
      <component glyphName="breve" x="434" y="336" flags="0x1004"/>
    </TTGlyph>
    <TTGlyph name="Icircumflex" xMin="10" yMin="-1" xMax="752" yMax="1042">
      <component glyphName="I" x="0" y="0" flags="0x1204"/>
      <component glyphName="circumflex" x="385" y="112" flags="0x1004"/>
    </TTGlyph>
    <TTGlyph name="Idieresis" xMin="10" yMin="-1" xMax="787" yMax="940">
      <component glyphName="I" x="0" y="0" flags="0x1204"/>
      <component glyphName="dieresis" x="197" y="235" flags="0x1004"/>
    </TTGlyph>
    <TTGlyph name="Idotaccent" xMin="10" yMin="-1" xMax="693" yMax="903">
      <component glyphName="I" x="0" y="0" flags="0x1204"/>
      <component glyphName="dotaccent" x="577" y="320" flags="0x1004"/>
    </TTGlyph>
    <TTGlyph name="Igrave" xMin="10" yMin="-1" xMax="695" yMax="959">
      <component glyphName="I" x="0" y="0" flags="0x1204"/>
      <component glyphName="grave" x="334" y="211" flags="0x1004"/>
    </TTGlyph>
    <TTGlyph name="Imacron" xMin="10" yMin="-1" xMax="734" yMax="896">
      <component glyphName="I" x="0" y="0" flags="0x1204"/>
      <component glyphName="macron" x="313" y="246" flags="0x1004"/>
    </TTGlyph>
    <TTGlyph name="Iogonek" xMin="10" yMin="-198" xMax="693" yMax="751">
      <contour>
        <pt x="620" y="-178" on="1"/>
        <pt x="639" y="-192" on="0"/>
        <pt x="624" y="-202" on="0"/>
        <pt x="581" y="-194" on="0"/>
        <pt x="524" y="-171" on="0"/>
        <pt x="479" y="-134" on="0"/>
        <pt x="457" y="-86" on="0"/>
        <pt x="472" y="-56" on="1"/>
        <pt x="499" y="0" on="0"/>
        <pt x="513" y="18" on="1"/>
        <pt x="515" y="22" on="0"/>
        <pt x="517" y="23" on="1"/>
        <pt x="507" y="35" on="1"/>
        <pt x="499" y="45" on="0"/>
        <pt x="489" y="53" on="1"/>
        <pt x="454" y="127" on="1"/>
        <pt x="427" y="109" on="0"/>
        <pt x="367" y="74" on="0"/>
        <pt x="302" y="47" on="0"/>
        <pt x="236" y="30" on="0"/>
        <pt x="202" y="30" on="1"/>
        <pt x="162" y="30" on="0"/>
        <pt x="112" y="72" on="0"/>
        <pt x="82" y="134" on="0"/>
        <pt x="64" y="205" on="0"/>
        <pt x="54" y="234" on="1"/>
        <pt x="50" y="246" on="0"/>
        <pt x="36" y="260" on="0"/>
        <pt x="21" y="274" on="0"/>
        <pt x="10" y="292" on="0"/>
        <pt x="10" y="305" on="1"/>
        <pt x="10" y="315" on="0"/>
        <pt x="33" y="332" on="0"/>
        <pt x="41" y="332" on="1"/>
        <pt x="50" y="332" on="0"/>
        <pt x="67" y="316" on="0"/>
        <pt x="91" y="297" on="0"/>
        <pt x="121" y="282" on="0"/>
        <pt x="141" y="282" on="1"/>
        <pt x="154" y="282" on="0"/>
        <pt x="188" y="283" on="0"/>
        <pt x="200" y="287" on="1"/>
        <pt x="209" y="291" on="0"/>
        <pt x="211" y="296" on="0"/>
        <pt x="210" y="300" on="0"/>
        <pt x="214" y="302" on="0"/>
        <pt x="225" y="302" on="1"/>
        <pt x="233" y="302" on="0"/>
        <pt x="254" y="299" on="0"/>
        <pt x="272" y="290" on="0"/>
        <pt x="283" y="275" on="0"/>
        <pt x="283" y="265" on="1"/>
        <pt x="283" y="247" on="0"/>
        <pt x="259" y="239" on="0"/>
        <pt x="244" y="238" on="1"/>
        <pt x="237" y="238" on="0"/>
        <pt x="199" y="238" on="0"/>
        <pt x="157" y="236" on="0"/>
        <pt x="120" y="234" on="0"/>
        <pt x="112" y="234" on="1"/>
        <pt x="116" y="215" on="0"/>
        <pt x="128" y="162" on="0"/>
        <pt x="148" y="115" on="0"/>
        <pt x="183" y="82" on="0"/>
        <pt x="209" y="82" on="1"/>
        <pt x="240" y="82" on="0"/>
        <pt x="300" y="97" on="0"/>
        <pt x="356" y="122" on="0"/>
        <pt x="409" y="154" on="0"/>
        <pt x="434" y="170" on="1"/>
        <pt x="438" y="174" on="0"/>
        <pt x="439" y="178" on="0"/>
        <pt x="439" y="183" on="1"/>
        <pt x="439" y="220" on="0"/>
        <pt x="424" y="296" on="0"/>
        <pt x="424" y="336" on="1"/>
        <pt x="424" y="362" on="0"/>
        <pt x="432" y="444" on="0"/>
        <pt x="450" y="535" on="0"/>
        <pt x="480" y="629" on="0"/>
        <pt x="525" y="705" on="0"/>
        <pt x="585" y="751" on="0"/>
        <pt x="625" y="751" on="1"/>
        <pt x="643" y="751" on="0"/>
        <pt x="666" y="731" on="0"/>
        <pt x="681" y="697" on="0"/>
        <pt x="689" y="657" on="0"/>
        <pt x="693" y="617" on="0"/>
        <pt x="693" y="600" on="1"/>
        <pt x="693" y="575" on="1"/>
        <pt x="693" y="533" on="0"/>
        <pt x="680" y="445" on="0"/>
        <pt x="655" y="361" on="0"/>
        <pt x="616" y="282" on="0"/>
        <pt x="590" y="248" on="1"/>
        <pt x="570" y="222" on="0"/>
        <pt x="525" y="185" on="0"/>
        <pt x="502" y="161" on="1"/>
        <pt x="513" y="118" on="0"/>
        <pt x="551" y="55" on="0"/>
        <pt x="585" y="30" on="1"/>
        <pt x="589" y="26" on="0"/>
        <pt x="590" y="22" on="0"/>
        <pt x="590" y="16" on="1"/>
        <pt x="590" y="6" on="0"/>
        <pt x="579" y="-1" on="0"/>
        <pt x="570" y="-1" on="1"/>
        <pt x="553" y="-1" on="0"/>
        <pt x="543" y="4" on="1"/>
        <pt x="540" y="5" on="0"/>
        <pt x="538" y="6" on="1"/>
        <pt x="538" y="4" on="1"/>
        <pt x="538" y="-18" on="0"/>
        <pt x="534" y="-68" on="0"/>
        <pt x="530" y="-111" on="0"/>
        <pt x="534" y="-114" on="1"/>
      </contour>
      <contour>
        <pt x="477" y="342" on="1"/>
        <pt x="477" y="312" on="1"/>
        <pt x="477" y="300" on="0"/>
        <pt x="479" y="276" on="0"/>
        <pt x="481" y="250" on="0"/>
        <pt x="483" y="234" on="1"/>
        <pt x="484" y="229" on="0"/>
        <pt x="488" y="215" on="0"/>
        <pt x="489" y="215" on="1"/>
        <pt x="493" y="215" on="1"/>
        <pt x="494" y="215" on="0"/>
        <pt x="506" y="226" on="0"/>
        <pt x="521" y="241" on="0"/>
        <pt x="537" y="258" on="0"/>
        <pt x="542" y="264" on="1"/>
        <pt x="598" y="328" on="0"/>
        <pt x="645" y="485" on="0"/>
        <pt x="645" y="571" on="1"/>
        <pt x="645" y="583" on="1"/>
        <pt x="645" y="592" on="0"/>
        <pt x="644" y="613" on="0"/>
        <pt x="644" y="622" on="1"/>
        <pt x="644" y="634" on="1"/>
        <pt x="643" y="637" on="0"/>
        <pt x="640" y="654" on="0"/>
        <pt x="634" y="672" on="0"/>
        <pt x="630" y="689" on="0"/>
        <pt x="629" y="692" on="1"/>
        <pt x="628" y="694" on="0"/>
        <pt x="625" y="700" on="0"/>
        <pt x="625" y="702" on="1"/>
        <pt x="595" y="699" on="0"/>
        <pt x="551" y="656" on="0"/>
        <pt x="517" y="590" on="0"/>
        <pt x="496" y="510" on="0"/>
        <pt x="482" y="432" on="0"/>
        <pt x="477" y="364" on="0"/>
      </contour>
    </TTGlyph>
    <TTGlyph name="Itilde" xMin="10" yMin="-1" xMax="791" yMax="1043">
      <component glyphName="I" x="0" y="0" flags="0x1204"/>
      <component glyphName="tilde" x="279" y="274" flags="0x1004"/>
    </TTGlyph>
    <TTGlyph name="J" xMin="34" yMin="-533" xMax="522" yMax="649">
      <contour>
        <pt x="136" y="-363" on="1"/>
        <pt x="136" y="-305" on="0"/>
        <pt x="175" y="-205" on="0"/>
        <pt x="234" y="-113" on="0"/>
        <pt x="301" y="-23" on="0"/>
        <pt x="328" y="23" on="1"/>
        <pt x="324" y="23" on="1"/>
        <pt x="301" y="23" on="0"/>
        <pt x="257" y="17" on="0"/>
        <pt x="234" y="17" on="1"/>
        <pt x="187" y="17" on="0"/>
        <pt x="113" y="85" on="0"/>
        <pt x="62" y="188" on="0"/>
        <pt x="34" y="306" on="0"/>
        <pt x="34" y="355" on="1"/>
        <pt x="38" y="385" on="0"/>
        <pt x="49" y="452" on="0"/>
        <pt x="67" y="516" on="0"/>
        <pt x="94" y="575" on="0"/>
        <pt x="134" y="621" on="0"/>
        <pt x="190" y="648" on="0"/>
        <pt x="229" y="649" on="1"/>
        <pt x="248" y="649" on="0"/>
        <pt x="280" y="629" on="0"/>
        <pt x="303" y="598" on="0"/>
        <pt x="318" y="560" on="0"/>
        <pt x="321" y="541" on="1"/>
        <pt x="355" y="179" on="1"/>
        <pt x="365" y="185" on="0"/>
        <pt x="394" y="184" on="0"/>
        <pt x="402" y="184" on="1"/>
        <pt x="434" y="184" on="1"/>
        <pt x="441" y="177" on="0"/>
        <pt x="449" y="175" on="0"/>
        <pt x="456" y="175" on="1"/>
        <pt x="463" y="175" on="1"/>
        <pt x="471" y="180" on="0"/>
        <pt x="492" y="194" on="0"/>
        <pt x="511" y="203" on="0"/>
        <pt x="523" y="202" on="0"/>
        <pt x="520" y="184" on="0"/>
        <pt x="498" y="145" on="0"/>
        <pt x="472" y="111" on="1"/>
        <pt x="466" y="97" on="0"/>
        <pt x="440" y="75" on="0"/>
        <pt x="414" y="51" on="0"/>
        <pt x="394" y="26" on="0"/>
        <pt x="394" y="11" on="1"/>
        <pt x="394" y="9" on="0"/>
        <pt x="395" y="0" on="0"/>
        <pt x="395" y="-1" on="1"/>
        <pt x="434" y="-196" on="1"/>
        <pt x="434" y="-196" on="0"/>
        <pt x="435" y="-218" on="0"/>
        <pt x="436" y="-248" on="0"/>
        <pt x="438" y="-279" on="0"/>
        <pt x="438" y="-289" on="1"/>
        <pt x="438" y="-294" on="1"/>
        <pt x="438" y="-329" on="0"/>
        <pt x="418" y="-412" on="0"/>
        <pt x="378" y="-484" on="0"/>
        <pt x="316" y="-533" on="0"/>
        <pt x="274" y="-533" on="1"/>
        <pt x="240" y="-533" on="0"/>
        <pt x="189" y="-501" on="0"/>
        <pt x="154" y="-452" on="0"/>
        <pt x="136" y="-392" on="0"/>
      </contour>
      <contour>
        <pt x="185" y="-369" on="1"/>
        <pt x="185" y="-386" on="0"/>
        <pt x="197" y="-426" on="0"/>
        <pt x="220" y="-461" on="0"/>
        <pt x="251" y="-484" on="0"/>
        <pt x="271" y="-484" on="1"/>
        <pt x="306" y="-484" on="0"/>
        <pt x="348" y="-439" on="0"/>
        <pt x="373" y="-376" on="0"/>
        <pt x="381" y="-307" on="0"/>
        <pt x="381" y="-284" on="1"/>
        <pt x="381" y="-250" on="0"/>
        <pt x="376" y="-191" on="0"/>
        <pt x="368" y="-133" on="0"/>
        <pt x="355" y="-75" on="0"/>
        <pt x="346" y="-41" on="1"/>
        <pt x="342" y="-45" on="1"/>
        <pt x="339" y="-48" on="0"/>
        <pt x="319" y="-76" on="0"/>
        <pt x="293" y="-112" on="0"/>
        <pt x="269" y="-148" on="0"/>
        <pt x="264" y="-158" on="1"/>
        <pt x="249" y="-182" on="0"/>
        <pt x="221" y="-232" on="0"/>
        <pt x="199" y="-285" on="0"/>
        <pt x="185" y="-340" on="0"/>
      </contour>
      <contour>
        <pt x="87" y="367" on="1"/>
        <pt x="87" y="322" on="0"/>
        <pt x="102" y="217" on="0"/>
        <pt x="136" y="127" on="0"/>
        <pt x="194" y="67" on="0"/>
        <pt x="239" y="67" on="1"/>
        <pt x="244" y="67" on="0"/>
        <pt x="269" y="65" on="0"/>
        <pt x="296" y="67" on="0"/>
        <pt x="318" y="74" on="0"/>
        <pt x="318" y="83" on="1"/>
        <pt x="318" y="84" on="0"/>
        <pt x="317" y="85" on="0"/>
        <pt x="317" y="87" on="1"/>
        <pt x="317" y="91" on="1"/>
        <pt x="268" y="531" on="1"/>
        <pt x="266" y="542" on="0"/>
        <pt x="256" y="564" on="0"/>
        <pt x="242" y="583" on="0"/>
        <pt x="223" y="596" on="0"/>
        <pt x="212" y="596" on="1"/>
        <pt x="175" y="596" on="0"/>
        <pt x="127" y="544" on="0"/>
        <pt x="98" y="472" on="0"/>
        <pt x="87" y="393" on="0"/>
      </contour>
      <contour>
        <pt x="360" y="150" on="1"/>
        <pt x="360" y="149" on="0"/>
        <pt x="361" y="147" on="0"/>
        <pt x="361" y="145" on="1"/>
        <pt x="361" y="142" on="0"/>
        <pt x="364" y="129" on="0"/>
        <pt x="367" y="113" on="0"/>
        <pt x="371" y="100" on="0"/>
        <pt x="371" y="97" on="1"/>
        <pt x="372" y="97" on="0"/>
        <pt x="375" y="95" on="0"/>
        <pt x="376" y="95" on="1"/>
        <pt x="380" y="95" on="0"/>
        <pt x="393" y="103" on="0"/>
        <pt x="407" y="114" on="0"/>
        <pt x="416" y="127" on="0"/>
        <pt x="416" y="132" on="1"/>
        <pt x="416" y="136" on="0"/>
        <pt x="415" y="144" on="0"/>
        <pt x="410" y="145" on="1"/>
        <pt x="408" y="146" on="0"/>
        <pt x="395" y="148" on="0"/>
        <pt x="382" y="148" on="0"/>
        <pt x="369" y="150" on="0"/>
        <pt x="366" y="150" on="1"/>
      </contour>
    </TTGlyph>
    <TTGlyph name="Jcircumflex" xMin="34" yMin="-533" xMax="522" yMax="1033">
      <component glyphName="J" x="0" y="0" flags="0x1204"/>
      <component glyphName="circumflex" x="-4" y="103" flags="0x1004"/>
    </TTGlyph>
    <TTGlyph name="K" xMin="20" yMin="-7" xMax="742" yMax="805">
      <contour>
        <pt x="234" y="44" on="1"/>
        <pt x="232" y="37" on="0"/>
        <pt x="212" y="24" on="0"/>
        <pt x="204" y="24" on="1"/>
        <pt x="194" y="24" on="0"/>
        <pt x="180" y="38" on="0"/>
        <pt x="180" y="48" on="1"/>
        <pt x="180" y="49" on="0"/>
        <pt x="181" y="57" on="0"/>
        <pt x="181" y="58" on="1"/>
        <pt x="242" y="302" on="1"/>
        <pt x="234" y="302" on="1"/>
        <pt x="197" y="287" on="0"/>
        <pt x="131" y="263" on="0"/>
        <pt x="93" y="263" on="1"/>
        <pt x="77" y="263" on="0"/>
        <pt x="50" y="276" on="0"/>
        <pt x="31" y="299" on="0"/>
        <pt x="20" y="328" on="0"/>
        <pt x="20" y="344" on="1"/>
        <pt x="20" y="375" on="0"/>
        <pt x="42" y="434" on="0"/>
        <pt x="83" y="480" on="0"/>
        <pt x="138" y="508" on="0"/>
        <pt x="171" y="508" on="1"/>
        <pt x="197" y="508" on="0"/>
        <pt x="247" y="495" on="0"/>
        <pt x="268" y="478" on="1"/>
        <pt x="277" y="498" on="1"/>
        <pt x="321" y="780" on="1"/>
        <pt x="323" y="788" on="0"/>
        <pt x="341" y="805" on="0"/>
        <pt x="348" y="805" on="1"/>
        <pt x="366" y="805" on="0"/>
        <pt x="381" y="776" on="0"/>
        <pt x="381" y="760" on="1"/>
        <pt x="381" y="756" on="1"/>
        <pt x="326" y="438" on="1"/>
        <pt x="326" y="416" on="1"/>
        <pt x="328" y="416" on="0"/>
        <pt x="331" y="414" on="0"/>
        <pt x="332" y="415" on="1"/>
        <pt x="333" y="415" on="0"/>
        <pt x="340" y="420" on="0"/>
        <pt x="349" y="426" on="0"/>
        <pt x="358" y="432" on="0"/>
        <pt x="360" y="434" on="1"/>
        <pt x="361" y="434" on="0"/>
        <pt x="365" y="437" on="0"/>
        <pt x="366" y="438" on="1"/>
        <pt x="429" y="484" on="0"/>
        <pt x="554" y="582" on="0"/>
        <pt x="609" y="639" on="1"/>
        <pt x="616" y="646" on="0"/>
        <pt x="644" y="689" on="0"/>
        <pt x="677" y="735" on="0"/>
        <pt x="707" y="771" on="0"/>
        <pt x="717" y="771" on="1"/>
        <pt x="727" y="771" on="0"/>
        <pt x="742" y="757" on="0"/>
        <pt x="742" y="746" on="1"/>
        <pt x="742" y="744" on="0"/>
        <pt x="741" y="742" on="0"/>
        <pt x="741" y="741" on="1"/>
        <pt x="741" y="739" on="0"/>
        <pt x="737" y="728" on="0"/>
        <pt x="736" y="726" on="1"/>
        <pt x="733" y="720" on="0"/>
        <pt x="720" y="699" on="0"/>
        <pt x="707" y="679" on="0"/>
        <pt x="697" y="664" on="0"/>
        <pt x="697" y="663" on="1"/>
        <pt x="571" y="536" on="1"/>
        <pt x="341" y="366" on="1"/>
        <pt x="337" y="362" on="0"/>
        <pt x="336" y="359" on="0"/>
        <pt x="336" y="354" on="1"/>
        <pt x="336" y="349" on="1"/>
        <pt x="336" y="347" on="0"/>
        <pt x="337" y="346" on="1"/>
        <pt x="526" y="61" on="1"/>
        <pt x="528" y="52" on="0"/>
        <pt x="538" y="40" on="0"/>
        <pt x="548" y="29" on="0"/>
        <pt x="555" y="16" on="0"/>
        <pt x="555" y="7" on="1"/>
        <pt x="555" y="-4" on="0"/>
        <pt x="548" y="-7" on="0"/>
        <pt x="537" y="-7" on="1"/>
        <pt x="526" y="-7" on="0"/>
        <pt x="506" y="5" on="0"/>
        <pt x="488" y="24" on="0"/>
        <pt x="475" y="47" on="0"/>
        <pt x="472" y="56" on="1"/>
        <pt x="298" y="273" on="1"/>
      </contour>
      <contour>
        <pt x="68" y="358" on="1"/>
        <pt x="68" y="340" on="0"/>
        <pt x="84" y="311" on="0"/>
        <pt x="104" y="311" on="1"/>
        <pt x="124" y="311" on="0"/>
        <pt x="164" y="321" on="0"/>
        <pt x="202" y="337" on="0"/>
        <pt x="238" y="357" on="0"/>
        <pt x="254" y="366" on="1"/>
        <pt x="254" y="368" on="0"/>
        <pt x="255" y="381" on="0"/>
        <pt x="255" y="382" on="1"/>
        <pt x="255" y="399" on="0"/>
        <pt x="238" y="426" on="0"/>
        <pt x="213" y="445" on="0"/>
        <pt x="182" y="454" on="0"/>
        <pt x="167" y="454" on="1"/>
        <pt x="147" y="454" on="0"/>
        <pt x="111" y="440" on="0"/>
        <pt x="84" y="414" on="0"/>
        <pt x="68" y="379" on="0"/>
      </contour>
    </TTGlyph>
    <TTGlyph name="Kcommaaccent" xMin="20" yMin="-330" xMax="742" yMax="805">
      <component glyphName="K" x="0" y="0" flags="0x1204"/>
      <component glyphName="commaaccent" x="100" y="0" flags="0x1004"/>
    </TTGlyph>
    <TTGlyph name="L" xMin="18" yMin="-1" xMax="931" yMax="878">
      <contour>
        <pt x="405" y="49" on="1"/>
        <pt x="402" y="55" on="0"/>
        <pt x="390" y="87" on="0"/>
        <pt x="376" y="123" on="0"/>
        <pt x="363" y="155" on="0"/>
        <pt x="360" y="161" on="1"/>
        <pt x="358" y="165" on="0"/>
        <pt x="355" y="173" on="0"/>
        <pt x="351" y="175" on="1"/>
        <pt x="329" y="154" on="0"/>
        <pt x="276" y="108" on="0"/>
        <pt x="217" y="71" on="0"/>
        <pt x="153" y="48" on="0"/>
        <pt x="121" y="48" on="1"/>
        <pt x="86" y="48" on="0"/>
        <pt x="46" y="97" on="0"/>
        <pt x="24" y="166" on="0"/>
        <pt x="18" y="238" on="0"/>
        <pt x="18" y="261" on="1"/>
        <pt x="18" y="307" on="0"/>
        <pt x="48" y="382" on="0"/>
        <pt x="103" y="435" on="0"/>
        <pt x="179" y="463" on="0"/>
        <pt x="226" y="463" on="1"/>
        <pt x="259" y="463" on="0"/>
        <pt x="309" y="432" on="0"/>
        <pt x="344" y="383" on="0"/>
        <pt x="367" y="325" on="0"/>
        <pt x="375" y="298" on="1"/>
        <pt x="384" y="303" on="0"/>
        <pt x="409" y="340" on="0"/>
        <pt x="436" y="385" on="0"/>
        <pt x="461" y="430" on="0"/>
        <pt x="468" y="444" on="1"/>
        <pt x="471" y="449" on="0"/>
        <pt x="492" y="490" on="0"/>
        <pt x="517" y="538" on="0"/>
        <pt x="538" y="580" on="0"/>
        <pt x="541" y="585" on="1"/>
        <pt x="542" y="587" on="0"/>
        <pt x="550" y="598" on="0"/>
        <pt x="551" y="600" on="1"/>
        <pt x="550" y="600" on="0"/>
        <pt x="550" y="601" on="1"/>
        <pt x="550" y="603" on="1"/>
        <pt x="550" y="606" on="1"/>
        <pt x="504" y="606" on="0"/>
        <pt x="419" y="620" on="0"/>
        <pt x="355" y="658" on="0"/>
        <pt x="316" y="724" on="0"/>
        <pt x="316" y="778" on="1"/>
        <pt x="316" y="781" on="0"/>
        <pt x="317" y="805" on="0"/>
        <pt x="317" y="809" on="1"/>
        <pt x="320" y="819" on="0"/>
        <pt x="336" y="832" on="0"/>
        <pt x="346" y="834" on="1"/>
        <pt x="355" y="836" on="0"/>
        <pt x="364" y="812" on="0"/>
        <pt x="371" y="772" on="0"/>
        <pt x="382" y="726" on="0"/>
        <pt x="409" y="685" on="0"/>
        <pt x="454" y="655" on="0"/>
        <pt x="492" y="653" on="1"/>
        <pt x="494" y="653" on="0"/>
        <pt x="517" y="652" on="0"/>
        <pt x="525" y="652" on="1"/>
        <pt x="530" y="652" on="0"/>
        <pt x="549" y="652" on="0"/>
        <pt x="568" y="653" on="0"/>
        <pt x="585" y="658" on="0"/>
        <pt x="589" y="663" on="1"/>
        <pt x="595" y="670" on="0"/>
        <pt x="624" y="705" on="0"/>
        <pt x="654" y="743" on="0"/>
        <pt x="682" y="778" on="0"/>
        <pt x="688" y="785" on="1"/>
        <pt x="705" y="802" on="0"/>
        <pt x="747" y="836" on="0"/>
        <pt x="793" y="862" on="0"/>
        <pt x="843" y="878" on="0"/>
        <pt x="869" y="878" on="1"/>
        <pt x="887" y="878" on="0"/>
        <pt x="912" y="864" on="0"/>
        <pt x="926" y="841" on="0"/>
        <pt x="931" y="812" on="0"/>
        <pt x="931" y="797" on="1"/>
        <pt x="931" y="768" on="0"/>
        <pt x="902" y="724" on="0"/>
        <pt x="856" y="690" on="0"/>
        <pt x="803" y="666" on="0"/>
        <pt x="779" y="658" on="1"/>
        <pt x="771" y="655" on="0"/>
        <pt x="729" y="643" on="0"/>
        <pt x="680" y="628" on="0"/>
        <pt x="637" y="616" on="0"/>
        <pt x="628" y="615" on="1"/>
        <pt x="621" y="608" on="0"/>
        <pt x="604" y="588" on="0"/>
        <pt x="600" y="580" on="1"/>
        <pt x="477" y="355" on="1"/>
        <pt x="476" y="355" on="0"/>
        <pt x="473" y="352" on="0"/>
        <pt x="472" y="351" on="1"/>
        <pt x="472" y="349" on="0"/>
        <pt x="466" y="338" on="0"/>
        <pt x="460" y="325" on="0"/>
        <pt x="454" y="313" on="0"/>
        <pt x="454" y="312" on="1"/>
        <pt x="451" y="308" on="0"/>
        <pt x="436" y="285" on="0"/>
        <pt x="418" y="260" on="0"/>
        <pt x="403" y="238" on="0"/>
        <pt x="400" y="234" on="1"/>
        <pt x="400" y="231" on="1"/>
        <pt x="400" y="229" on="1"/>
        <pt x="407" y="203" on="0"/>
        <pt x="418" y="166" on="0"/>
        <pt x="429" y="132" on="0"/>
        <pt x="445" y="94" on="0"/>
        <pt x="458" y="68" on="1"/>
        <pt x="462" y="61" on="0"/>
        <pt x="476" y="49" on="0"/>
        <pt x="491" y="37" on="0"/>
        <pt x="502" y="24" on="0"/>
        <pt x="502" y="17" on="1"/>
        <pt x="502" y="-1" on="0"/>
        <pt x="484" y="-1" on="1"/>
        <pt x="458" y="-1" on="0"/>
        <pt x="418" y="29" on="0"/>
      </contour>
      <contour>
        <pt x="68" y="271" on="1"/>
        <pt x="68" y="259" on="0"/>
        <pt x="72" y="204" on="0"/>
        <pt x="85" y="147" on="0"/>
        <pt x="112" y="103" on="0"/>
        <pt x="135" y="103" on="1"/>
        <pt x="162" y="103" on="0"/>
        <pt x="205" y="127" on="0"/>
        <pt x="229" y="137" on="1"/>
        <pt x="332" y="234" on="1"/>
        <pt x="332" y="238" on="1"/>
        <pt x="332" y="256" on="0"/>
        <pt x="315" y="314" on="0"/>
        <pt x="285" y="370" on="0"/>
        <pt x="245" y="409" on="0"/>
        <pt x="222" y="409" on="1"/>
        <pt x="189" y="409" on="0"/>
        <pt x="132" y="393" on="0"/>
        <pt x="92" y="359" on="0"/>
        <pt x="68" y="307" on="0"/>
      </contour>
      <contour>
        <pt x="860" y="824" on="1"/>
        <pt x="836" y="824" on="0"/>
        <pt x="788" y="804" on="0"/>
        <pt x="744" y="772" on="0"/>
        <pt x="706" y="734" on="0"/>
        <pt x="692" y="717" on="1"/>
        <pt x="688" y="713" on="0"/>
        <pt x="677" y="697" on="0"/>
        <pt x="666" y="684" on="0"/>
        <pt x="658" y="673" on="0"/>
        <pt x="658" y="673" on="1"/>
        <pt x="658" y="668" on="1"/>
        <pt x="662" y="668" on="1"/>
        <pt x="663" y="668" on="0"/>
        <pt x="689" y="676" on="0"/>
        <pt x="724" y="687" on="0"/>
        <pt x="760" y="698" on="0"/>
        <pt x="770" y="702" on="1"/>
        <pt x="785" y="707" on="0"/>
        <pt x="824" y="724" on="0"/>
        <pt x="859" y="748" on="0"/>
        <pt x="883" y="778" on="0"/>
        <pt x="883" y="797" on="1"/>
        <pt x="883" y="813" on="0"/>
        <pt x="874" y="824" on="0"/>
      </contour>
    </TTGlyph>
    <TTGlyph name="Lacute" xMin="18" yMin="-1" xMax="931" yMax="1132">
      <component glyphName="L" x="0" y="0" flags="0x1204"/>
      <component glyphName="acute" x="442" y="378" flags="0x1004"/>
    </TTGlyph>
    <TTGlyph name="Lcaron" xMin="18" yMin="-1" xMax="931" yMax="1186">
      <component glyphName="L" x="0" y="0" flags="0x1204"/>
      <component glyphName="caron" x="388" y="282" flags="0x1004"/>
    </TTGlyph>
    <TTGlyph name="Lcommaaccent" xMin="18" yMin="-330" xMax="931" yMax="878">
      <component glyphName="L" x="0" y="0" flags="0x1204"/>
      <component glyphName="commaaccent" x="119" y="0" flags="0x1004"/>
    </TTGlyph>
    <TTGlyph name="Ldot" xMin="18" yMin="-1" xMax="931" yMax="878">
      <component glyphName="L" x="0" y="0" flags="0x1004"/>
      <component glyphName="periodcentered" x="513" y="130" flags="0x1004"/>
    </TTGlyph>
    <TTGlyph name="Lslash" xMin="-14" yMin="8" xMax="900" yMax="887">
      <contour>
        <pt x="229" y="498" on="1"/>
        <pt x="231" y="505" on="0"/>
        <pt x="255" y="521" on="0"/>
        <pt x="262" y="523" on="1"/>
        <pt x="309" y="526" on="0"/>
        <pt x="408" y="534" on="0"/>
        <pt x="457" y="537" on="1"/>
        <pt x="481" y="539" on="1"/>
        <pt x="489" y="554" on="0"/>
        <pt x="496" y="568" on="1"/>
        <pt x="507" y="589" on="0"/>
        <pt x="509" y="594" on="1"/>
        <pt x="510" y="596" on="0"/>
        <pt x="518" y="607" on="0"/>
        <pt x="519" y="609" on="1"/>
        <pt x="518" y="610" on="1"/>
        <pt x="518" y="615" on="1"/>
        <pt x="472" y="615" on="0"/>
        <pt x="388" y="629" on="0"/>
        <pt x="323" y="667" on="0"/>
        <pt x="284" y="733" on="0"/>
        <pt x="284" y="787" on="1"/>
        <pt x="284" y="790" on="0"/>
        <pt x="285" y="814" on="0"/>
        <pt x="285" y="818" on="1"/>
        <pt x="289" y="828" on="0"/>
        <pt x="304" y="841" on="0"/>
        <pt x="314" y="843" on="1"/>
        <pt x="324" y="845" on="0"/>
        <pt x="333" y="821" on="0"/>
        <pt x="339" y="781" on="0"/>
        <pt x="351" y="735" on="0"/>
        <pt x="377" y="694" on="0"/>
        <pt x="422" y="664" on="0"/>
        <pt x="461" y="662" on="1"/>
        <pt x="463" y="662" on="0"/>
        <pt x="486" y="661" on="0"/>
        <pt x="493" y="661" on="1"/>
        <pt x="499" y="661" on="0"/>
        <pt x="517" y="661" on="0"/>
        <pt x="536" y="662" on="0"/>
        <pt x="553" y="667" on="0"/>
        <pt x="558" y="672" on="1"/>
        <pt x="563" y="679" on="0"/>
        <pt x="592" y="714" on="0"/>
        <pt x="623" y="752" on="0"/>
        <pt x="651" y="787" on="0"/>
        <pt x="656" y="794" on="1"/>
        <pt x="673" y="811" on="0"/>
        <pt x="715" y="845" on="0"/>
        <pt x="761" y="871" on="0"/>
        <pt x="812" y="887" on="0"/>
        <pt x="838" y="887" on="1"/>
        <pt x="856" y="887" on="0"/>
        <pt x="880" y="873" on="0"/>
        <pt x="895" y="850" on="0"/>
        <pt x="900" y="821" on="0"/>
        <pt x="900" y="806" on="1"/>
        <pt x="900" y="777" on="0"/>
        <pt x="870" y="733" on="0"/>
        <pt x="824" y="699" on="0"/>
        <pt x="771" y="675" on="0"/>
        <pt x="748" y="667" on="1"/>
        <pt x="740" y="664" on="0"/>
        <pt x="697" y="652" on="0"/>
        <pt x="649" y="637" on="0"/>
        <pt x="606" y="625" on="0"/>
        <pt x="597" y="624" on="1"/>
        <pt x="589" y="617" on="0"/>
        <pt x="572" y="597" on="0"/>
        <pt x="569" y="589" on="1"/>
        <pt x="544" y="544" on="1"/>
        <pt x="556" y="544" on="1"/>
        <pt x="606" y="548" on="0"/>
        <pt x="652" y="548" on="1"/>
        <pt x="686" y="548" on="0"/>
        <pt x="754" y="543" on="0"/>
        <pt x="786" y="531" on="1"/>
        <pt x="769" y="515" on="1"/>
        <pt x="751" y="512" on="1"/>
        <pt x="734" y="510" on="0"/>
        <pt x="679" y="504" on="0"/>
        <pt x="611" y="497" on="0"/>
        <pt x="576" y="493" on="1"/>
        <pt x="543" y="490" on="0"/>
        <pt x="512" y="486" on="1"/>
        <pt x="445" y="364" on="1"/>
        <pt x="445" y="364" on="0"/>
        <pt x="442" y="361" on="0"/>
        <pt x="441" y="360" on="1"/>
        <pt x="437" y="353" on="1"/>
        <pt x="435" y="347" on="0"/>
        <pt x="428" y="334" on="0"/>
        <pt x="423" y="322" on="0"/>
        <pt x="422" y="321" on="1"/>
        <pt x="419" y="317" on="0"/>
        <pt x="404" y="294" on="0"/>
        <pt x="387" y="269" on="0"/>
        <pt x="372" y="247" on="0"/>
        <pt x="368" y="243" on="1"/>
        <pt x="368" y="238" on="1"/>
        <pt x="375" y="212" on="0"/>
        <pt x="386" y="175" on="0"/>
        <pt x="398" y="141" on="0"/>
        <pt x="414" y="103" on="0"/>
        <pt x="427" y="77" on="1"/>
        <pt x="430" y="70" on="0"/>
        <pt x="445" y="58" on="0"/>
        <pt x="460" y="46" on="0"/>
        <pt x="471" y="33" on="0"/>
        <pt x="471" y="26" on="1"/>
        <pt x="471" y="8" on="0"/>
        <pt x="453" y="8" on="1"/>
        <pt x="427" y="8" on="0"/>
        <pt x="387" y="38" on="0"/>
        <pt x="373" y="58" on="1"/>
        <pt x="371" y="64" on="0"/>
        <pt x="358" y="96" on="0"/>
        <pt x="345" y="132" on="0"/>
        <pt x="337" y="148" on="1"/>
        <pt x="328" y="170" on="1"/>
        <pt x="327" y="174" on="0"/>
        <pt x="323" y="182" on="0"/>
        <pt x="319" y="184" on="1"/>
        <pt x="298" y="163" on="0"/>
        <pt x="245" y="117" on="0"/>
        <pt x="185" y="80" on="0"/>
        <pt x="121" y="57" on="0"/>
        <pt x="89" y="57" on="1"/>
        <pt x="55" y="57" on="0"/>
        <pt x="14" y="106" on="0"/>
        <pt x="-7" y="175" on="0"/>
        <pt x="-14" y="247" on="0"/>
        <pt x="-14" y="270" on="1"/>
        <pt x="-14" y="316" on="0"/>
        <pt x="16" y="391" on="0"/>
        <pt x="71" y="444" on="0"/>
        <pt x="148" y="472" on="0"/>
        <pt x="194" y="472" on="1"/>
        <pt x="228" y="472" on="0"/>
        <pt x="277" y="441" on="0"/>
        <pt x="312" y="392" on="0"/>
        <pt x="336" y="334" on="0"/>
        <pt x="344" y="307" on="1"/>
        <pt x="353" y="312" on="0"/>
        <pt x="378" y="349" on="0"/>
        <pt x="405" y="394" on="0"/>
        <pt x="429" y="439" on="0"/>
        <pt x="436" y="453" on="1"/>
        <pt x="439" y="458" on="0"/>
        <pt x="450" y="479" on="1"/>
        <pt x="450" y="480" on="0"/>
        <pt x="451" y="481" on="1"/>
        <pt x="407" y="477" on="0"/>
        <pt x="360" y="475" on="1"/>
        <pt x="313" y="473" on="0"/>
        <pt x="269" y="473" on="1"/>
        <pt x="265" y="473" on="0"/>
        <pt x="250" y="475" on="0"/>
        <pt x="236" y="481" on="0"/>
        <pt x="227" y="490" on="0"/>
      </contour>
      <contour>
        <pt x="37" y="280" on="1"/>
        <pt x="37" y="268" on="0"/>
        <pt x="40" y="213" on="0"/>
        <pt x="54" y="156" on="0"/>
        <pt x="81" y="112" on="0"/>
        <pt x="103" y="112" on="1"/>
        <pt x="130" y="112" on="0"/>
        <pt x="174" y="136" on="0"/>
        <pt x="198" y="146" on="1"/>
        <pt x="301" y="243" on="1"/>
        <pt x="301" y="247" on="1"/>
        <pt x="301" y="265" on="0"/>
        <pt x="283" y="323" on="0"/>
        <pt x="254" y="379" on="0"/>
        <pt x="213" y="418" on="0"/>
        <pt x="191" y="418" on="1"/>
        <pt x="157" y="418" on="0"/>
        <pt x="101" y="402" on="0"/>
        <pt x="60" y="368" on="0"/>
        <pt x="37" y="316" on="0"/>
      </contour>
      <contour>
        <pt x="829" y="833" on="1"/>
        <pt x="805" y="833" on="0"/>
        <pt x="757" y="813" on="0"/>
        <pt x="713" y="781" on="0"/>
        <pt x="675" y="743" on="0"/>
        <pt x="661" y="726" on="1"/>
        <pt x="657" y="722" on="0"/>
        <pt x="645" y="706" on="0"/>
        <pt x="634" y="693" on="0"/>
        <pt x="630" y="688" on="1"/>
        <pt x="626" y="682" on="1"/>
        <pt x="626" y="677" on="1"/>
        <pt x="631" y="677" on="1"/>
        <pt x="632" y="677" on="0"/>
        <pt x="658" y="685" on="0"/>
        <pt x="692" y="696" on="0"/>
        <pt x="728" y="707" on="0"/>
        <pt x="739" y="711" on="1"/>
        <pt x="753" y="716" on="0"/>
        <pt x="793" y="733" on="0"/>
        <pt x="827" y="757" on="0"/>
        <pt x="851" y="787" on="0"/>
        <pt x="851" y="806" on="1"/>
        <pt x="851" y="822" on="0"/>
        <pt x="842" y="833" on="0"/>
      </contour>
    </TTGlyph>
    <TTGlyph name="M" xMin="24" yMin="0" xMax="1355" yMax="746">
      <contour>
        <pt x="594" y="68" on="1"/>
        <pt x="597" y="79" on="0"/>
        <pt x="610" y="136" on="0"/>
        <pt x="624" y="200" on="0"/>
        <pt x="636" y="256" on="0"/>
        <pt x="639" y="268" on="1"/>
        <pt x="642" y="283" on="0"/>
        <pt x="643" y="327" on="0"/>
        <pt x="644" y="371" on="0"/>
        <pt x="643" y="409" on="0"/>
        <pt x="643" y="421" on="1"/>
        <pt x="643" y="507" on="1"/>
        <pt x="643" y="510" on="0"/>
        <pt x="639" y="536" on="0"/>
        <pt x="634" y="568" on="0"/>
        <pt x="629" y="598" on="0"/>
        <pt x="628" y="605" on="1"/>
        <pt x="626" y="616" on="0"/>
        <pt x="619" y="644" on="0"/>
        <pt x="607" y="670" on="0"/>
        <pt x="587" y="688" on="0"/>
        <pt x="572" y="688" on="1"/>
        <pt x="554" y="688" on="0"/>
        <pt x="498" y="661" on="0"/>
        <pt x="444" y="620" on="0"/>
        <pt x="402" y="574" on="0"/>
        <pt x="399" y="555" on="1"/>
        <pt x="371" y="395" on="1"/>
        <pt x="371" y="390" on="1"/>
        <pt x="369" y="380" on="0"/>
        <pt x="363" y="346" on="0"/>
        <pt x="355" y="314" on="0"/>
        <pt x="351" y="289" on="0"/>
        <pt x="350" y="287" on="1"/>
        <pt x="348" y="281" on="0"/>
        <pt x="341" y="253" on="0"/>
        <pt x="331" y="221" on="0"/>
        <pt x="323" y="194" on="0"/>
        <pt x="321" y="190" on="1"/>
        <pt x="319" y="185" on="0"/>
        <pt x="305" y="153" on="0"/>
        <pt x="289" y="115" on="0"/>
        <pt x="274" y="82" on="0"/>
        <pt x="273" y="78" on="1"/>
        <pt x="267" y="64" on="0"/>
        <pt x="258" y="39" on="0"/>
        <pt x="245" y="20" on="0"/>
        <pt x="225" y="9" on="0"/>
        <pt x="208" y="9" on="1"/>
        <pt x="205" y="9" on="0"/>
        <pt x="195" y="10" on="0"/>
        <pt x="194" y="10" on="1"/>
        <pt x="190" y="20" on="1"/>
        <pt x="190" y="21" on="0"/>
        <pt x="189" y="29" on="0"/>
        <pt x="189" y="40" on="0"/>
        <pt x="189" y="49" on="0"/>
        <pt x="189" y="52" on="1"/>
        <pt x="189" y="185" on="0"/>
        <pt x="234" y="312" on="1"/>
        <pt x="234" y="317" on="1"/>
        <pt x="234" y="319" on="0"/>
        <pt x="243" y="347" on="0"/>
        <pt x="255" y="382" on="0"/>
        <pt x="268" y="418" on="0"/>
        <pt x="273" y="429" on="1"/>
        <pt x="276" y="437" on="0"/>
        <pt x="295" y="476" on="0"/>
        <pt x="317" y="519" on="0"/>
        <pt x="337" y="558" on="0"/>
        <pt x="341" y="566" on="1"/>
        <pt x="346" y="580" on="0"/>
        <pt x="346" y="614" on="0"/>
        <pt x="346" y="629" on="1"/>
        <pt x="346" y="632" on="0"/>
        <pt x="346" y="643" on="0"/>
        <pt x="346" y="655" on="0"/>
        <pt x="346" y="666" on="0"/>
        <pt x="346" y="668" on="1"/>
        <pt x="343" y="692" on="0"/>
        <pt x="319" y="692" on="1"/>
        <pt x="316" y="692" on="1"/>
        <pt x="312" y="691" on="0"/>
        <pt x="298" y="688" on="0"/>
        <pt x="297" y="688" on="1"/>
        <pt x="112" y="600" on="1"/>
        <pt x="96" y="592" on="0"/>
        <pt x="82" y="589" on="0"/>
        <pt x="68" y="589" on="1"/>
        <pt x="49" y="589" on="0"/>
        <pt x="24" y="607" on="0"/>
        <pt x="24" y="629" on="1"/>
        <pt x="24" y="639" on="0"/>
        <pt x="43" y="654" on="0"/>
        <pt x="52" y="654" on="1"/>
        <pt x="63" y="654" on="0"/>
        <pt x="76" y="643" on="0"/>
        <pt x="85" y="643" on="1"/>
        <pt x="120" y="643" on="0"/>
        <pt x="182" y="676" on="0"/>
        <pt x="243" y="714" on="0"/>
        <pt x="307" y="746" on="0"/>
        <pt x="344" y="746" on="1"/>
        <pt x="357" y="746" on="0"/>
        <pt x="376" y="732" on="0"/>
        <pt x="391" y="710" on="0"/>
        <pt x="400" y="687" on="0"/>
        <pt x="405" y="678" on="1"/>
        <pt x="403" y="670" on="0"/>
        <pt x="406" y="655" on="0"/>
        <pt x="409" y="649" on="1"/>
        <pt x="427" y="665" on="0"/>
        <pt x="466" y="698" on="0"/>
        <pt x="510" y="724" on="0"/>
        <pt x="558" y="742" on="0"/>
        <pt x="582" y="742" on="1"/>
        <pt x="613" y="742" on="0"/>
        <pt x="654" y="709" on="0"/>
        <pt x="679" y="657" on="0"/>
        <pt x="692" y="592" on="0"/>
        <pt x="699" y="526" on="0"/>
        <pt x="703" y="465" on="0"/>
        <pt x="706" y="444" on="1"/>
        <pt x="719" y="473" on="0"/>
        <pt x="758" y="541" on="0"/>
        <pt x="806" y="607" on="0"/>
        <pt x="864" y="667" on="0"/>
        <pt x="928" y="713" on="0"/>
        <pt x="997" y="741" on="0"/>
        <pt x="1033" y="741" on="1"/>
        <pt x="1076" y="741" on="0"/>
        <pt x="1123" y="703" on="0"/>
        <pt x="1143" y="644" on="0"/>
        <pt x="1146" y="573" on="0"/>
        <pt x="1146" y="540" on="1"/>
        <pt x="1146" y="478" on="1"/>
        <pt x="1111" y="107" on="1"/>
        <pt x="1111" y="106" on="0"/>
        <pt x="1111" y="93" on="0"/>
        <pt x="1111" y="90" on="1"/>
        <pt x="1111" y="80" on="0"/>
        <pt x="1111" y="64" on="0"/>
        <pt x="1116" y="53" on="1"/>
        <pt x="1119" y="53" on="0"/>
        <pt x="1140" y="52" on="0"/>
        <pt x="1143" y="52" on="1"/>
        <pt x="1185" y="52" on="0"/>
        <pt x="1259" y="78" on="0"/>
        <pt x="1297" y="98" on="1"/>
        <pt x="1304" y="102" on="0"/>
        <pt x="1312" y="109" on="0"/>
        <pt x="1320" y="114" on="0"/>
        <pt x="1330" y="118" on="0"/>
        <pt x="1338" y="118" on="1"/>
        <pt x="1347" y="118" on="0"/>
        <pt x="1355" y="114" on="0"/>
        <pt x="1355" y="104" on="1"/>
        <pt x="1355" y="91" on="0"/>
        <pt x="1328" y="66" on="0"/>
        <pt x="1285" y="44" on="0"/>
        <pt x="1233" y="25" on="0"/>
        <pt x="1184" y="12" on="0"/>
        <pt x="1144" y="4" on="0"/>
        <pt x="1135" y="4" on="1"/>
        <pt x="1089" y="4" on="0"/>
        <pt x="1052" y="41" on="0"/>
        <pt x="1052" y="89" on="1"/>
        <pt x="1052" y="117" on="1"/>
        <pt x="1086" y="507" on="1"/>
        <pt x="1086" y="508" on="0"/>
        <pt x="1086" y="519" on="0"/>
        <pt x="1087" y="534" on="0"/>
        <pt x="1087" y="549" on="0"/>
        <pt x="1087" y="553" on="1"/>
        <pt x="1087" y="570" on="0"/>
        <pt x="1089" y="616" on="0"/>
        <pt x="1081" y="658" on="0"/>
        <pt x="1057" y="688" on="0"/>
        <pt x="1033" y="688" on="1"/>
        <pt x="1023" y="688" on="0"/>
        <pt x="995" y="679" on="0"/>
        <pt x="967" y="668" on="0"/>
        <pt x="941" y="656" on="0"/>
        <pt x="935" y="653" on="1"/>
        <pt x="886" y="629" on="0"/>
        <pt x="810" y="546" on="0"/>
        <pt x="752" y="445" on="0"/>
        <pt x="713" y="337" on="0"/>
        <pt x="701" y="287" on="1"/>
        <pt x="700" y="276" on="0"/>
        <pt x="693" y="223" on="0"/>
        <pt x="684" y="162" on="0"/>
        <pt x="675" y="109" on="0"/>
        <pt x="673" y="98" on="1"/>
        <pt x="670" y="82" on="0"/>
        <pt x="665" y="47" on="0"/>
        <pt x="655" y="18" on="0"/>
        <pt x="635" y="0" on="0"/>
        <pt x="616" y="0" on="1"/>
        <pt x="609" y="0" on="0"/>
        <pt x="594" y="6" on="0"/>
        <pt x="594" y="14" on="1"/>
      </contour>
      <contour>
        <pt x="258" y="200" on="1"/>
        <pt x="256" y="201" on="0"/>
        <pt x="256" y="194" on="0"/>
        <pt x="258" y="195" on="1"/>
        <pt x="260" y="196" on="0"/>
        <pt x="260" y="199" on="0"/>
      </contour>
      <contour>
        <pt x="311" y="395" on="1"/>
        <pt x="304" y="384" on="0"/>
        <pt x="287" y="338" on="0"/>
        <pt x="273" y="284" on="0"/>
        <pt x="263" y="232" on="0"/>
        <pt x="263" y="215" on="1"/>
        <pt x="263" y="210" on="1"/>
        <pt x="283" y="250" on="0"/>
        <pt x="311" y="347" on="0"/>
        <pt x="311" y="392" on="1"/>
      </contour>
    </TTGlyph>
    <TTGlyph name="N" xMin="24" yMin="0" xMax="1117" yMax="873">
      <contour>
        <pt x="726" y="53" on="1"/>
        <pt x="726" y="56" on="0"/>
        <pt x="726" y="70" on="0"/>
        <pt x="725" y="85" on="0"/>
        <pt x="725" y="100" on="0"/>
        <pt x="725" y="103" on="1"/>
        <pt x="725" y="172" on="0"/>
        <pt x="746" y="310" on="0"/>
        <pt x="751" y="381" on="1"/>
        <pt x="755" y="453" on="0"/>
        <pt x="760" y="598" on="0"/>
        <pt x="760" y="671" on="1"/>
        <pt x="760" y="686" on="0"/>
        <pt x="761" y="732" on="0"/>
        <pt x="753" y="775" on="0"/>
        <pt x="730" y="805" on="0"/>
        <pt x="706" y="805" on="1"/>
        <pt x="663" y="805" on="0"/>
        <pt x="596" y="772" on="0"/>
        <pt x="542" y="718" on="0"/>
        <pt x="499" y="648" on="0"/>
        <pt x="463" y="576" on="0"/>
        <pt x="431" y="506" on="0"/>
        <pt x="414" y="478" on="1"/>
        <pt x="385" y="321" on="1"/>
        <pt x="385" y="317" on="1"/>
        <pt x="383" y="309" on="0"/>
        <pt x="377" y="280" on="0"/>
        <pt x="371" y="252" on="0"/>
        <pt x="365" y="230" on="0"/>
        <pt x="365" y="229" on="1"/>
        <pt x="364" y="225" on="0"/>
        <pt x="349" y="182" on="0"/>
        <pt x="330" y="130" on="0"/>
        <pt x="312" y="77" on="0"/>
        <pt x="307" y="64" on="1"/>
        <pt x="300" y="46" on="0"/>
        <pt x="282" y="39" on="0"/>
        <pt x="265" y="39" on="1"/>
        <pt x="257" y="39" on="0"/>
        <pt x="243" y="42" on="0"/>
        <pt x="243" y="52" on="1"/>
        <pt x="243" y="108" on="0"/>
        <pt x="270" y="211" on="0"/>
        <pt x="306" y="310" on="0"/>
        <pt x="342" y="410" on="0"/>
        <pt x="350" y="463" on="1"/>
        <pt x="394" y="722" on="1"/>
        <pt x="394" y="822" on="1"/>
        <pt x="199" y="722" on="1"/>
        <pt x="173" y="708" on="0"/>
        <pt x="104" y="692" on="0"/>
        <pt x="76" y="692" on="1"/>
        <pt x="50" y="692" on="0"/>
        <pt x="24" y="709" on="0"/>
        <pt x="24" y="736" on="1"/>
        <pt x="24" y="749" on="0"/>
        <pt x="40" y="761" on="0"/>
        <pt x="51" y="761" on="1"/>
        <pt x="59" y="761" on="0"/>
        <pt x="68" y="755" on="0"/>
        <pt x="76" y="747" on="0"/>
        <pt x="85" y="741" on="0"/>
        <pt x="93" y="741" on="1"/>
        <pt x="126" y="741" on="0"/>
        <pt x="194" y="763" on="0"/>
        <pt x="259" y="796" on="0"/>
        <pt x="321" y="833" on="0"/>
        <pt x="350" y="849" on="1"/>
        <pt x="364" y="856" on="0"/>
        <pt x="391" y="873" on="0"/>
        <pt x="407" y="873" on="1"/>
        <pt x="422" y="873" on="0"/>
        <pt x="442" y="853" on="0"/>
        <pt x="454" y="824" on="0"/>
        <pt x="458" y="793" on="0"/>
        <pt x="458" y="782" on="1"/>
        <pt x="458" y="780" on="1"/>
        <pt x="457" y="776" on="0"/>
        <pt x="453" y="746" on="0"/>
        <pt x="448" y="712" on="0"/>
        <pt x="444" y="681" on="0"/>
        <pt x="444" y="678" on="1"/>
        <pt x="444" y="677" on="0"/>
        <pt x="443" y="665" on="0"/>
        <pt x="443" y="663" on="1"/>
        <pt x="443" y="661" on="0"/>
        <pt x="444" y="651" on="0"/>
        <pt x="444" y="649" on="1"/>
        <pt x="464" y="687" on="0"/>
        <pt x="520" y="762" on="0"/>
        <pt x="589" y="822" on="0"/>
        <pt x="672" y="859" on="0"/>
        <pt x="719" y="859" on="1"/>
        <pt x="754" y="859" on="0"/>
        <pt x="796" y="816" on="0"/>
        <pt x="817" y="756" on="0"/>
        <pt x="823" y="689" on="0"/>
        <pt x="823" y="664" on="1"/>
        <pt x="823" y="594" on="0"/>
        <pt x="811" y="454" on="0"/>
        <pt x="796" y="315" on="0"/>
        <pt x="784" y="175" on="0"/>
        <pt x="784" y="106" on="1"/>
        <pt x="784" y="98" on="0"/>
        <pt x="783" y="68" on="0"/>
        <pt x="790" y="58" on="1"/>
        <pt x="792" y="58" on="1"/>
        <pt x="795" y="58" on="1"/>
        <pt x="797" y="59" on="0"/>
        <pt x="810" y="62" on="0"/>
        <pt x="823" y="65" on="0"/>
        <pt x="836" y="67" on="0"/>
        <pt x="839" y="68" on="1"/>
        <pt x="845" y="72" on="0"/>
        <pt x="880" y="93" on="0"/>
        <pt x="919" y="116" on="0"/>
        <pt x="953" y="137" on="0"/>
        <pt x="960" y="141" on="1"/>
        <pt x="968" y="147" on="0"/>
        <pt x="994" y="175" on="0"/>
        <pt x="1023" y="211" on="0"/>
        <pt x="1053" y="250" on="0"/>
        <pt x="1078" y="283" on="0"/>
        <pt x="1098" y="303" on="0"/>
        <pt x="1102" y="303" on="1"/>
        <pt x="1111" y="303" on="0"/>
        <pt x="1117" y="290" on="0"/>
        <pt x="1117" y="283" on="1"/>
        <pt x="1117" y="254" on="0"/>
        <pt x="1078" y="190" on="0"/>
        <pt x="1015" y="128" on="0"/>
        <pt x="937" y="70" on="0"/>
        <pt x="859" y="26" on="0"/>
        <pt x="788" y="0" on="0"/>
        <pt x="765" y="0" on="1"/>
        <pt x="756" y="0" on="0"/>
        <pt x="742" y="12" on="0"/>
        <pt x="733" y="28" on="0"/>
        <pt x="727" y="46" on="0"/>
      </contour>
    </TTGlyph>
    <TTGlyph name="Nacute" xMin="24" yMin="0" xMax="1117" yMax="1055">
      <component glyphName="N" x="0" y="0" flags="0x1204"/>
      <component glyphName="acute" x="372" y="301" flags="0x1004"/>
    </TTGlyph>
    <TTGlyph name="Ncaron" xMin="24" yMin="0" xMax="1117" yMax="1205">
      <component glyphName="N" x="0" y="0" flags="0x1204"/>
      <component glyphName="caron" x="361" y="301" flags="0x1004"/>
    </TTGlyph>
    <TTGlyph name="Ncommaaccent" xMin="24" yMin="-330" xMax="1117" yMax="873">
      <component glyphName="N" x="0" y="0" flags="0x1204"/>
      <component glyphName="commaaccent" x="344" y="0" flags="0x1004"/>
    </TTGlyph>
    <TTGlyph name="Ntilde" xMin="24" yMin="0" xMax="1117" yMax="1140">
      <component glyphName="N" x="0" y="0" flags="0x1204"/>
      <component glyphName="tilde" x="391" y="371" flags="0x1004"/>
    </TTGlyph>
    <TTGlyph name="O" xMin="23" yMin="-1" xMax="639" yMax="805">
      <contour>
        <pt x="23" y="174" on="1"/>
        <pt x="23" y="176" on="0"/>
        <pt x="23" y="187" on="0"/>
        <pt x="24" y="201" on="0"/>
        <pt x="24" y="212" on="0"/>
        <pt x="24" y="215" on="1"/>
        <pt x="36" y="307" on="0"/>
        <pt x="66" y="461" on="0"/>
        <pt x="118" y="598" on="0"/>
        <pt x="202" y="724" on="0"/>
        <pt x="268" y="790" on="1"/>
        <pt x="281" y="802" on="0"/>
        <pt x="320" y="800" on="0"/>
        <pt x="337" y="800" on="1"/>
        <pt x="369" y="800" on="0"/>
        <pt x="436" y="778" on="0"/>
        <pt x="463" y="760" on="1"/>
        <pt x="472" y="760" on="1"/>
        <pt x="490" y="760" on="0"/>
        <pt x="526" y="775" on="0"/>
        <pt x="561" y="791" on="0"/>
        <pt x="596" y="805" on="0"/>
        <pt x="614" y="805" on="1"/>
        <pt x="624" y="805" on="0"/>
        <pt x="639" y="796" on="0"/>
        <pt x="639" y="784" on="1"/>
        <pt x="639" y="777" on="0"/>
        <pt x="606" y="760" on="0"/>
        <pt x="562" y="743" on="0"/>
        <pt x="522" y="730" on="0"/>
        <pt x="516" y="726" on="1"/>
        <pt x="535" y="703" on="0"/>
        <pt x="560" y="659" on="0"/>
        <pt x="575" y="611" on="0"/>
        <pt x="580" y="560" on="0"/>
        <pt x="580" y="530" on="1"/>
        <pt x="580" y="454" on="0"/>
        <pt x="542" y="315" on="0"/>
        <pt x="469" y="193" on="0"/>
        <pt x="364" y="91" on="0"/>
        <pt x="297" y="53" on="1"/>
        <pt x="259" y="33" on="0"/>
        <pt x="175" y="-1" on="0"/>
        <pt x="131" y="-1" on="1"/>
        <pt x="97" y="-1" on="0"/>
        <pt x="55" y="33" on="0"/>
        <pt x="31" y="85" on="0"/>
        <pt x="23" y="146" on="0"/>
      </contour>
      <contour>
        <pt x="82" y="185" on="1"/>
        <pt x="82" y="167" on="0"/>
        <pt x="83" y="121" on="0"/>
        <pt x="94" y="81" on="0"/>
        <pt x="120" y="53" on="0"/>
        <pt x="146" y="53" on="1"/>
        <pt x="178" y="53" on="0"/>
        <pt x="242" y="77" on="0"/>
        <pt x="301" y="113" on="0"/>
        <pt x="355" y="157" on="0"/>
        <pt x="380" y="175" on="1"/>
        <pt x="417" y="208" on="0"/>
        <pt x="474" y="294" on="0"/>
        <pt x="497" y="337" on="1"/>
        <pt x="515" y="378" on="0"/>
        <pt x="527" y="465" on="0"/>
        <pt x="527" y="509" on="1"/>
        <pt x="527" y="535" on="0"/>
        <pt x="526" y="594" on="0"/>
        <pt x="512" y="648" on="0"/>
        <pt x="481" y="693" on="0"/>
        <pt x="454" y="706" on="1"/>
        <pt x="448" y="706" on="0"/>
        <pt x="423" y="702" on="0"/>
        <pt x="395" y="697" on="0"/>
        <pt x="371" y="693" on="0"/>
        <pt x="365" y="692" on="1"/>
        <pt x="364" y="692" on="0"/>
        <pt x="349" y="688" on="0"/>
        <pt x="332" y="683" on="0"/>
        <pt x="318" y="679" on="0"/>
        <pt x="316" y="678" on="1"/>
        <pt x="314" y="678" on="1"/>
        <pt x="304" y="678" on="0"/>
        <pt x="294" y="687" on="0"/>
        <pt x="286" y="697" on="0"/>
        <pt x="275" y="706" on="0"/>
        <pt x="265" y="706" on="1"/>
        <pt x="263" y="706" on="1"/>
        <pt x="231" y="682" on="0"/>
        <pt x="183" y="608" on="0"/>
        <pt x="146" y="526" on="0"/>
        <pt x="121" y="441" on="0"/>
        <pt x="112" y="405" on="1"/>
        <pt x="109" y="395" on="0"/>
        <pt x="100" y="342" on="0"/>
        <pt x="91" y="283" on="0"/>
        <pt x="83" y="230" on="0"/>
        <pt x="82" y="220" on="1"/>
      </contour>
      <contour>
        <pt x="380" y="746" on="1"/>
        <pt x="376" y="746" on="0"/>
        <pt x="376" y="736" on="0"/>
        <pt x="380" y="736" on="1"/>
        <pt x="384" y="736" on="0"/>
        <pt x="384" y="746" on="0"/>
      </contour>
    </TTGlyph>
    <TTGlyph name="OE" xMin="24" yMin="-68" xMax="795" yMax="582">
      <contour>
        <pt x="304" y="499" on="1"/>
        <pt x="304" y="499" on="0"/>
        <pt x="303" y="508" on="0"/>
        <pt x="303" y="510" on="1"/>
        <pt x="303" y="522" on="0"/>
        <pt x="310" y="540" on="0"/>
        <pt x="322" y="540" on="1"/>
        <pt x="337" y="540" on="1"/>
        <pt x="341" y="540" on="0"/>
        <pt x="370" y="537" on="0"/>
        <pt x="404" y="535" on="0"/>
        <pt x="433" y="532" on="0"/>
        <pt x="436" y="532" on="1"/>
        <pt x="472" y="532" on="0"/>
        <pt x="553" y="547" on="0"/>
        <pt x="633" y="566" on="0"/>
        <pt x="707" y="582" on="0"/>
        <pt x="737" y="582" on="1"/>
        <pt x="747" y="582" on="0"/>
        <pt x="765" y="579" on="0"/>
        <pt x="769" y="565" on="1"/>
        <pt x="774" y="548" on="0"/>
        <pt x="727" y="524" on="0"/>
        <pt x="650" y="507" on="0"/>
        <pt x="555" y="496" on="0"/>
        <pt x="467" y="490" on="0"/>
        <pt x="399" y="484" on="0"/>
        <pt x="387" y="482" on="1"/>
        <pt x="387" y="477" on="1"/>
        <pt x="387" y="457" on="0"/>
        <pt x="394" y="409" on="0"/>
        <pt x="403" y="357" on="0"/>
        <pt x="411" y="310" on="0"/>
        <pt x="412" y="291" on="1"/>
        <pt x="417" y="291" on="0"/>
        <pt x="441" y="290" on="0"/>
        <pt x="445" y="290" on="1"/>
        <pt x="510" y="290" on="0"/>
        <pt x="637" y="306" on="0"/>
        <pt x="702" y="307" on="1"/>
        <pt x="709" y="309" on="0"/>
        <pt x="717" y="304" on="0"/>
        <pt x="720" y="296" on="0"/>
        <pt x="720" y="292" on="1"/>
        <pt x="720" y="283" on="1"/>
        <pt x="720" y="283" on="0"/>
        <pt x="721" y="274" on="0"/>
        <pt x="719" y="265" on="0"/>
        <pt x="715" y="257" on="0"/>
        <pt x="711" y="257" on="1"/>
        <pt x="414" y="257" on="1"/>
        <pt x="416" y="241" on="0"/>
        <pt x="416" y="226" on="1"/>
        <pt x="416" y="198" on="0"/>
        <pt x="409" y="174" on="1"/>
        <pt x="409" y="164" on="0"/>
        <pt x="408" y="153" on="1"/>
        <pt x="404" y="102" on="0"/>
        <pt x="404" y="49" on="1"/>
        <pt x="404" y="26" on="0"/>
        <pt x="427" y="0" on="0"/>
        <pt x="460" y="-14" on="0"/>
        <pt x="499" y="-17" on="0"/>
        <pt x="516" y="-17" on="1"/>
        <pt x="556" y="-17" on="0"/>
        <pt x="627" y="-14" on="0"/>
        <pt x="692" y="2" on="0"/>
        <pt x="751" y="31" on="0"/>
        <pt x="778" y="58" on="1"/>
        <pt x="778" y="58" on="1"/>
        <pt x="781" y="59" on="1"/>
        <pt x="791" y="59" on="0"/>
        <pt x="795" y="44" on="0"/>
        <pt x="795" y="37" on="1"/>
        <pt x="795" y="20" on="0"/>
        <pt x="761" y="-10" on="0"/>
        <pt x="708" y="-33" on="0"/>
        <pt x="643" y="-50" on="0"/>
        <pt x="580" y="-62" on="0"/>
        <pt x="526" y="-68" on="0"/>
        <pt x="511" y="-68" on="1"/>
        <pt x="486" y="-68" on="0"/>
        <pt x="431" y="-60" on="0"/>
        <pt x="384" y="-39" on="0"/>
        <pt x="354" y="1" on="0"/>
        <pt x="354" y="33" on="1"/>
        <pt x="354" y="84" on="1"/>
        <pt x="343" y="74" on="0"/>
        <pt x="330" y="64" on="1"/>
        <pt x="292" y="36" on="0"/>
        <pt x="200" y="6" on="0"/>
        <pt x="154" y="6" on="1"/>
        <pt x="143" y="6" on="1"/>
        <pt x="136" y="6" on="0"/>
        <pt x="118" y="7" on="0"/>
        <pt x="103" y="8" on="0"/>
        <pt x="100" y="8" on="1"/>
        <pt x="73" y="14" on="0"/>
        <pt x="43" y="49" on="0"/>
        <pt x="28" y="95" on="0"/>
        <pt x="24" y="145" on="0"/>
        <pt x="24" y="166" on="1"/>
        <pt x="24" y="215" on="0"/>
        <pt x="41" y="299" on="0"/>
        <pt x="76" y="373" on="0"/>
        <pt x="130" y="440" on="0"/>
        <pt x="166" y="473" on="1"/>
        <pt x="167" y="475" on="0"/>
        <pt x="181" y="486" on="0"/>
        <pt x="197" y="498" on="0"/>
        <pt x="214" y="507" on="0"/>
        <pt x="220" y="507" on="1"/>
        <pt x="232" y="507" on="0"/>
        <pt x="248" y="490" on="0"/>
        <pt x="248" y="477" on="1"/>
        <pt x="248" y="473" on="1"/>
        <pt x="247" y="472" on="0"/>
        <pt x="241" y="458" on="0"/>
        <pt x="240" y="456" on="1"/>
        <pt x="240" y="453" on="1"/>
        <pt x="240" y="446" on="0"/>
        <pt x="269" y="433" on="0"/>
        <pt x="307" y="419" on="0"/>
        <pt x="342" y="405" on="0"/>
        <pt x="348" y="398" on="1"/>
        <pt x="351" y="394" on="1"/>
        <pt x="348" y="415" on="0"/>
        <pt x="343" y="432" on="1"/>
        <pt x="333" y="463" on="0"/>
      </contour>
      <contour>
        <pt x="82" y="171" on="1"/>
        <pt x="82" y="146" on="0"/>
        <pt x="84" y="104" on="0"/>
        <pt x="98" y="74" on="0"/>
        <pt x="130" y="57" on="0"/>
        <pt x="158" y="57" on="1"/>
        <pt x="195" y="57" on="0"/>
        <pt x="269" y="79" on="0"/>
        <pt x="328" y="122" on="0"/>
        <pt x="347" y="154" on="1"/>
        <pt x="350" y="159" on="0"/>
        <pt x="354" y="165" on="1"/>
        <pt x="354" y="300" on="1"/>
        <pt x="342" y="328" on="0"/>
        <pt x="322" y="349" on="1"/>
        <pt x="301" y="373" on="0"/>
        <pt x="243" y="408" on="0"/>
        <pt x="207" y="423" on="1"/>
        <pt x="184" y="418" on="0"/>
        <pt x="148" y="387" on="0"/>
        <pt x="120" y="343" on="0"/>
        <pt x="100" y="289" on="0"/>
        <pt x="87" y="236" on="0"/>
        <pt x="82" y="188" on="0"/>
      </contour>
    </TTGlyph>
    <TTGlyph name="Oacute" xMin="23" yMin="-1" xMax="639" yMax="1055">
      <component glyphName="O" x="0" y="0" flags="0x1204"/>
      <component glyphName="acute" x="130" y="301" flags="0x1004"/>
    </TTGlyph>
    <TTGlyph name="Obreve" xMin="23" yMin="-1" xMax="639" yMax="1095">
      <component glyphName="O" x="0" y="0" flags="0x1204"/>
      <component glyphName="breve" x="280" y="455" flags="0x1004"/>
    </TTGlyph>
    <TTGlyph name="Ocircumflex" xMin="23" yMin="-1" xMax="639" yMax="1231">
      <component glyphName="O" x="0" y="0" flags="0x1204"/>
      <component glyphName="circumflex" x="110" y="301" flags="0x1004"/>
    </TTGlyph>
    <TTGlyph name="Odieresis" xMin="23" yMin="-1" xMax="639" yMax="959">
      <component glyphName="O" x="0" y="0" flags="0x1204"/>
      <component glyphName="dieresis" x="-6" y="254" flags="0x1004"/>
    </TTGlyph>
    <TTGlyph name="Ograve" xMin="23" yMin="-1" xMax="639" yMax="1049">
      <component glyphName="O" x="0" y="0" flags="0x1204"/>
      <component glyphName="grave" x="33" y="301" flags="0x1004"/>
    </TTGlyph>
    <TTGlyph name="Ohungarumlaut" xMin="23" yMin="-1" xMax="639" yMax="1080">
      <component glyphName="O" x="0" y="0" flags="0x1204"/>
      <component glyphName="hungarumlaut" x="160" y="301" flags="0x1004"/>
    </TTGlyph>
    <TTGlyph name="Omacron" xMin="23" yMin="-1" xMax="639" yMax="951">
      <component glyphName="O" x="0" y="0" flags="0x1204"/>
      <component glyphName="macron" x="110" y="301" flags="0x1004"/>
    </TTGlyph>
    <TTGlyph name="Oslash" xMin="23" yMin="-1" xMax="639" yMax="832">
      <contour>
        <pt x="23" y="174" on="1"/>
        <pt x="23" y="182" on="1"/>
        <pt x="23" y="187" on="0"/>
        <pt x="24" y="201" on="0"/>
        <pt x="24" y="206" on="1"/>
        <pt x="24" y="215" on="1"/>
        <pt x="36" y="307" on="0"/>
        <pt x="66" y="461" on="0"/>
        <pt x="118" y="598" on="0"/>
        <pt x="202" y="724" on="0"/>
        <pt x="268" y="790" on="1"/>
        <pt x="281" y="802" on="0"/>
        <pt x="320" y="800" on="0"/>
        <pt x="337" y="800" on="1"/>
        <pt x="369" y="800" on="0"/>
        <pt x="436" y="778" on="0"/>
        <pt x="463" y="760" on="1"/>
        <pt x="472" y="760" on="1"/>
        <pt x="489" y="760" on="0"/>
        <pt x="505" y="766" on="1"/>
        <pt x="532" y="814" on="1"/>
        <pt x="537" y="822" on="0"/>
        <pt x="557" y="832" on="0"/>
        <pt x="566" y="832" on="1"/>
        <pt x="579" y="832" on="0"/>
        <pt x="582" y="814" on="0"/>
        <pt x="582" y="804" on="1"/>
        <pt x="582" y="800" on="1"/>
        <pt x="598" y="805" on="0"/>
        <pt x="614" y="805" on="1"/>
        <pt x="624" y="805" on="0"/>
        <pt x="639" y="796" on="0"/>
        <pt x="639" y="784" on="1"/>
        <pt x="639" y="777" on="0"/>
        <pt x="606" y="760" on="0"/>
        <pt x="584" y="751" on="1"/>
        <pt x="567" y="745" on="0"/>
        <pt x="551" y="739" on="1"/>
        <pt x="530" y="706" on="1"/>
        <pt x="540" y="694" on="0"/>
        <pt x="547" y="680" on="1"/>
        <pt x="560" y="659" on="0"/>
        <pt x="575" y="611" on="0"/>
        <pt x="580" y="560" on="0"/>
        <pt x="580" y="530" on="1"/>
        <pt x="580" y="454" on="0"/>
        <pt x="542" y="315" on="0"/>
        <pt x="469" y="193" on="0"/>
        <pt x="364" y="91" on="0"/>
        <pt x="297" y="53" on="1"/>
        <pt x="259" y="33" on="0"/>
        <pt x="175" y="-1" on="0"/>
        <pt x="131" y="-1" on="1"/>
        <pt x="115" y="-1" on="0"/>
        <pt x="102" y="3" on="1"/>
        <pt x="101" y="0" on="1"/>
        <pt x="99" y="-1" on="0"/>
        <pt x="98" y="-1" on="1"/>
        <pt x="94" y="-1" on="1"/>
        <pt x="80" y="-1" on="0"/>
        <pt x="77" y="6" on="1"/>
        <pt x="76" y="11" on="0"/>
        <pt x="75" y="17" on="1"/>
        <pt x="54" y="34" on="0"/>
        <pt x="43" y="58" on="1"/>
        <pt x="31" y="85" on="0"/>
        <pt x="23" y="146" on="0"/>
      </contour>
      <contour>
        <pt x="82" y="185" on="1"/>
        <pt x="82" y="167" on="0"/>
        <pt x="83" y="121" on="0"/>
        <pt x="88" y="101" on="1"/>
        <pt x="89" y="95" on="0"/>
        <pt x="92" y="90" on="1"/>
        <pt x="93" y="91" on="1"/>
        <pt x="374" y="565" on="1"/>
        <pt x="386" y="579" on="0"/>
        <pt x="404" y="609" on="0"/>
        <pt x="423" y="641" on="0"/>
        <pt x="444" y="670" on="0"/>
        <pt x="457" y="681" on="1"/>
        <pt x="467" y="698" on="1"/>
        <pt x="461" y="703" on="0"/>
        <pt x="454" y="706" on="1"/>
        <pt x="448" y="706" on="0"/>
        <pt x="423" y="702" on="0"/>
        <pt x="395" y="697" on="0"/>
        <pt x="371" y="693" on="0"/>
        <pt x="365" y="692" on="1"/>
        <pt x="364" y="692" on="0"/>
        <pt x="349" y="688" on="0"/>
        <pt x="332" y="683" on="0"/>
        <pt x="318" y="679" on="0"/>
        <pt x="316" y="678" on="1"/>
        <pt x="314" y="678" on="1"/>
        <pt x="304" y="678" on="0"/>
        <pt x="294" y="687" on="0"/>
        <pt x="286" y="697" on="0"/>
        <pt x="275" y="706" on="0"/>
        <pt x="265" y="706" on="1"/>
        <pt x="263" y="706" on="1"/>
        <pt x="231" y="682" on="0"/>
        <pt x="183" y="608" on="0"/>
        <pt x="146" y="526" on="0"/>
        <pt x="121" y="441" on="0"/>
        <pt x="112" y="405" on="1"/>
        <pt x="109" y="395" on="0"/>
        <pt x="100" y="342" on="0"/>
        <pt x="91" y="283" on="0"/>
        <pt x="83" y="230" on="0"/>
        <pt x="82" y="220" on="1"/>
      </contour>
      <contour>
        <pt x="146" y="53" on="1"/>
        <pt x="178" y="53" on="0"/>
        <pt x="242" y="77" on="0"/>
        <pt x="301" y="113" on="0"/>
        <pt x="355" y="157" on="0"/>
        <pt x="380" y="175" on="1"/>
        <pt x="417" y="208" on="0"/>
        <pt x="474" y="294" on="0"/>
        <pt x="497" y="337" on="1"/>
        <pt x="515" y="378" on="0"/>
        <pt x="527" y="465" on="0"/>
        <pt x="527" y="509" on="1"/>
        <pt x="527" y="535" on="0"/>
        <pt x="526" y="594" on="0"/>
        <pt x="518" y="621" on="1"/>
        <pt x="513" y="643" on="0"/>
        <pt x="502" y="662" on="1"/>
        <pt x="167" y="132" on="1"/>
        <pt x="128" y="55" on="1"/>
        <pt x="136" y="53" on="0"/>
      </contour>
      <contour>
        <pt x="380" y="746" on="1"/>
        <pt x="376" y="746" on="0"/>
        <pt x="376" y="736" on="0"/>
        <pt x="380" y="736" on="1"/>
        <pt x="384" y="736" on="0"/>
        <pt x="384" y="746" on="0"/>
      </contour>
    </TTGlyph>
    <TTGlyph name="Oslashacute" xMin="23" yMin="-1" xMax="639" yMax="1055">
      <component glyphName="Oslash" x="0" y="0" flags="0x1204"/>
      <component glyphName="acute" x="130" y="301" flags="0x1004"/>
    </TTGlyph>
    <TTGlyph name="Otilde" xMin="23" yMin="-1" xMax="639" yMax="1070">
      <component glyphName="O" x="0" y="0" flags="0x1204"/>
      <component glyphName="tilde" x="37" y="301" flags="0x1004"/>
    </TTGlyph>
    <TTGlyph name="P" xMin="19" yMin="0" xMax="536" yMax="824">
      <contour>
        <pt x="160" y="605" on="1"/>
        <pt x="166" y="615" on="1"/>
        <pt x="190" y="726" on="1"/>
        <pt x="193" y="738" on="0"/>
        <pt x="208" y="742" on="0"/>
        <pt x="216" y="742" on="1"/>
        <pt x="236" y="742" on="0"/>
        <pt x="244" y="724" on="0"/>
        <pt x="244" y="705" on="1"/>
        <pt x="244" y="701" on="0"/>
        <pt x="243" y="688" on="0"/>
        <pt x="243" y="688" on="1"/>
        <pt x="160" y="371" on="1"/>
        <pt x="160" y="362" on="1"/>
        <pt x="160" y="356" on="0"/>
        <pt x="165" y="348" on="0"/>
        <pt x="175" y="351" on="1"/>
        <pt x="202" y="352" on="0"/>
        <pt x="265" y="355" on="0"/>
        <pt x="333" y="364" on="0"/>
        <pt x="397" y="383" on="0"/>
        <pt x="447" y="416" on="0"/>
        <pt x="478" y="467" on="0"/>
        <pt x="478" y="504" on="1"/>
        <pt x="478" y="551" on="0"/>
        <pt x="427" y="645" on="0"/>
        <pt x="349" y="723" on="0"/>
        <pt x="253" y="771" on="0"/>
        <pt x="207" y="771" on="1"/>
        <pt x="184" y="771" on="0"/>
        <pt x="149" y="752" on="0"/>
        <pt x="121" y="731" on="0"/>
        <pt x="95" y="712" on="0"/>
        <pt x="83" y="712" on="1"/>
        <pt x="63" y="712" on="0"/>
        <pt x="63" y="732" on="1"/>
        <pt x="63" y="733" on="0"/>
        <pt x="64" y="735" on="0"/>
        <pt x="64" y="736" on="1"/>
        <pt x="72" y="757" on="0"/>
        <pt x="102" y="789" on="0"/>
        <pt x="139" y="813" on="0"/>
        <pt x="182" y="824" on="0"/>
        <pt x="203" y="824" on="1"/>
        <pt x="219" y="824" on="0"/>
        <pt x="248" y="824" on="0"/>
        <pt x="264" y="819" on="1"/>
        <pt x="313" y="797" on="0"/>
        <pt x="410" y="738" on="0"/>
        <pt x="488" y="661" on="0"/>
        <pt x="536" y="562" on="0"/>
        <pt x="536" y="503" on="1"/>
        <pt x="536" y="456" on="0"/>
        <pt x="498" y="391" on="0"/>
        <pt x="434" y="347" on="0"/>
        <pt x="353" y="323" on="0"/>
        <pt x="267" y="312" on="0"/>
        <pt x="184" y="311" on="0"/>
        <pt x="151" y="312" on="1"/>
        <pt x="147" y="307" on="1"/>
        <pt x="73" y="24" on="1"/>
        <pt x="70" y="13" on="0"/>
        <pt x="50" y="0" on="0"/>
        <pt x="39" y="0" on="1"/>
        <pt x="32" y="0" on="0"/>
        <pt x="24" y="10" on="0"/>
        <pt x="20" y="22" on="0"/>
        <pt x="19" y="36" on="0"/>
        <pt x="20" y="39" on="1"/>
      </contour>
    </TTGlyph>
    <TTGlyph name="Q" xMin="23" yMin="-1" xMax="605" yMax="791">
      <contour>
        <pt x="39" y="147" on="1"/>
        <pt x="38" y="160" on="0"/>
        <pt x="33" y="231" on="0"/>
        <pt x="29" y="310" on="0"/>
        <pt x="25" y="381" on="0"/>
        <pt x="24" y="395" on="1"/>
        <pt x="24" y="396" on="0"/>
        <pt x="24" y="410" on="0"/>
        <pt x="23" y="429" on="0"/>
        <pt x="23" y="448" on="0"/>
        <pt x="23" y="454" on="1"/>
        <pt x="23" y="508" on="0"/>
        <pt x="50" y="628" on="0"/>
        <pt x="110" y="727" on="0"/>
        <pt x="204" y="791" on="0"/>
        <pt x="271" y="791" on="1"/>
        <pt x="286" y="791" on="0"/>
        <pt x="316" y="787" on="0"/>
        <pt x="331" y="780" on="1"/>
        <pt x="343" y="784" on="0"/>
        <pt x="361" y="788" on="0"/>
        <pt x="377" y="790" on="0"/>
        <pt x="395" y="791" on="0"/>
        <pt x="406" y="791" on="1"/>
        <pt x="463" y="791" on="0"/>
        <pt x="538" y="738" on="0"/>
        <pt x="585" y="655" on="0"/>
        <pt x="605" y="553" on="0"/>
        <pt x="605" y="505" on="1"/>
        <pt x="605" y="418" on="0"/>
        <pt x="549" y="265" on="0"/>
        <pt x="492" y="200" on="1"/>
        <pt x="492" y="199" on="0"/>
        <pt x="491" y="198" on="0"/>
        <pt x="491" y="197" on="1"/>
        <pt x="492" y="195" on="1"/>
        <pt x="494" y="193" on="0"/>
        <pt x="505" y="177" on="0"/>
        <pt x="507" y="175" on="1"/>
        <pt x="509" y="172" on="0"/>
        <pt x="526" y="155" on="0"/>
        <pt x="544" y="136" on="0"/>
        <pt x="562" y="120" on="0"/>
        <pt x="565" y="117" on="1"/>
        <pt x="565" y="114" on="1"/>
        <pt x="565" y="105" on="0"/>
        <pt x="551" y="97" on="0"/>
        <pt x="543" y="97" on="1"/>
        <pt x="535" y="97" on="0"/>
        <pt x="518" y="106" on="0"/>
        <pt x="502" y="118" on="0"/>
        <pt x="488" y="131" on="0"/>
        <pt x="482" y="137" on="1"/>
        <pt x="479" y="139" on="0"/>
        <pt x="469" y="147" on="0"/>
        <pt x="464" y="151" on="1"/>
        <pt x="459" y="156" on="0"/>
        <pt x="454" y="161" on="1"/>
        <pt x="444" y="156" on="1"/>
        <pt x="412" y="130" on="0"/>
        <pt x="345" y="75" on="0"/>
        <pt x="272" y="29" on="0"/>
        <pt x="193" y="-1" on="0"/>
        <pt x="148" y="-1" on="1"/>
        <pt x="117" y="-1" on="0"/>
        <pt x="79" y="27" on="0"/>
        <pt x="56" y="70" on="0"/>
        <pt x="44" y="122" on="0"/>
      </contour>
      <contour>
        <pt x="77" y="463" on="1"/>
        <pt x="77" y="445" on="0"/>
        <pt x="76" y="371" on="0"/>
        <pt x="77" y="278" on="0"/>
        <pt x="86" y="181" on="0"/>
        <pt x="105" y="100" on="0"/>
        <pt x="139" y="49" on="0"/>
        <pt x="165" y="49" on="1"/>
        <pt x="194" y="49" on="0"/>
        <pt x="254" y="72" on="0"/>
        <pt x="277" y="87" on="1"/>
        <pt x="284" y="93" on="0"/>
        <pt x="320" y="121" on="0"/>
        <pt x="361" y="152" on="0"/>
        <pt x="398" y="180" on="0"/>
        <pt x="405" y="185" on="1"/>
        <pt x="407" y="187" on="0"/>
        <pt x="413" y="193" on="0"/>
        <pt x="414" y="195" on="1"/>
        <pt x="414" y="195" on="0"/>
        <pt x="415" y="197" on="1"/>
        <pt x="415" y="197" on="0"/>
        <pt x="414" y="199" on="1"/>
        <pt x="414" y="200" on="1"/>
        <pt x="414" y="202" on="0"/>
        <pt x="410" y="208" on="0"/>
        <pt x="409" y="210" on="1"/>
        <pt x="337" y="307" on="1"/>
        <pt x="331" y="314" on="0"/>
        <pt x="326" y="333" on="0"/>
        <pt x="326" y="342" on="1"/>
        <pt x="326" y="349" on="0"/>
        <pt x="332" y="361" on="0"/>
        <pt x="340" y="361" on="1"/>
        <pt x="351" y="361" on="0"/>
        <pt x="373" y="343" on="0"/>
        <pt x="394" y="316" on="0"/>
        <pt x="414" y="283" on="0"/>
        <pt x="432" y="256" on="0"/>
        <pt x="448" y="238" on="0"/>
        <pt x="455" y="238" on="1"/>
        <pt x="458" y="238" on="1"/>
        <pt x="480" y="256" on="0"/>
        <pt x="510" y="304" on="0"/>
        <pt x="534" y="357" on="0"/>
        <pt x="550" y="413" on="0"/>
        <pt x="555" y="438" on="1"/>
        <pt x="553" y="459" on="0"/>
        <pt x="561" y="499" on="0"/>
        <pt x="561" y="520" on="1"/>
        <pt x="561" y="553" on="0"/>
        <pt x="545" y="629" on="0"/>
        <pt x="511" y="697" on="0"/>
        <pt x="456" y="742" on="0"/>
        <pt x="417" y="742" on="1"/>
        <pt x="415" y="742" on="0"/>
        <pt x="400" y="741" on="0"/>
        <pt x="399" y="741" on="1"/>
        <pt x="400" y="738" on="0"/>
        <pt x="405" y="727" on="0"/>
        <pt x="410" y="714" on="0"/>
        <pt x="414" y="701" on="0"/>
        <pt x="414" y="697" on="1"/>
        <pt x="414" y="690" on="0"/>
        <pt x="406" y="670" on="0"/>
        <pt x="393" y="652" on="0"/>
        <pt x="378" y="639" on="0"/>
        <pt x="371" y="639" on="1"/>
        <pt x="361" y="639" on="0"/>
        <pt x="355" y="645" on="0"/>
        <pt x="355" y="652" on="1"/>
        <pt x="355" y="665" on="0"/>
        <pt x="371" y="684" on="0"/>
        <pt x="371" y="695" on="1"/>
        <pt x="371" y="703" on="0"/>
        <pt x="357" y="715" on="0"/>
        <pt x="340" y="723" on="0"/>
        <pt x="321" y="727" on="0"/>
        <pt x="316" y="727" on="1"/>
        <pt x="298" y="727" on="0"/>
        <pt x="274" y="709" on="0"/>
        <pt x="258" y="702" on="1"/>
        <pt x="204" y="649" on="1"/>
        <pt x="199" y="643" on="0"/>
        <pt x="189" y="643" on="1"/>
        <pt x="175" y="643" on="0"/>
        <pt x="175" y="658" on="1"/>
        <pt x="175" y="667" on="0"/>
        <pt x="185" y="687" on="0"/>
        <pt x="201" y="706" on="0"/>
        <pt x="218" y="722" on="0"/>
        <pt x="224" y="726" on="1"/>
        <pt x="224" y="732" on="1"/>
        <pt x="179" y="725" on="0"/>
        <pt x="121" y="667" on="0"/>
        <pt x="89" y="588" on="0"/>
        <pt x="77" y="499" on="0"/>
      </contour>
    </TTGlyph>
    <TTGlyph name="R" xMin="23" yMin="4" xMax="599" yMax="674">
      <contour>
        <pt x="107" y="24" on="1"/>
        <pt x="115" y="44" on="0"/>
        <pt x="130" y="93" on="0"/>
        <pt x="143" y="144" on="0"/>
        <pt x="151" y="193" on="0"/>
        <pt x="151" y="215" on="1"/>
        <pt x="151" y="224" on="1"/>
        <pt x="135" y="226" on="0"/>
        <pt x="104" y="234" on="0"/>
        <pt x="82" y="249" on="0"/>
        <pt x="67" y="274" on="0"/>
        <pt x="67" y="292" on="1"/>
        <pt x="67" y="312" on="0"/>
        <pt x="79" y="337" on="0"/>
        <pt x="103" y="337" on="1"/>
        <pt x="120" y="337" on="0"/>
        <pt x="151" y="322" on="0"/>
        <pt x="165" y="312" on="1"/>
        <pt x="170" y="321" on="1"/>
        <pt x="224" y="526" on="1"/>
        <pt x="222" y="552" on="0"/>
        <pt x="231" y="605" on="0"/>
        <pt x="247" y="624" on="1"/>
        <pt x="246" y="624" on="0"/>
        <pt x="236" y="625" on="0"/>
        <pt x="234" y="625" on="1"/>
        <pt x="218" y="625" on="0"/>
        <pt x="186" y="616" on="0"/>
        <pt x="157" y="603" on="0"/>
        <pt x="127" y="592" on="0"/>
        <pt x="112" y="589" on="1"/>
        <pt x="110" y="589" on="0"/>
        <pt x="99" y="593" on="0"/>
        <pt x="97" y="596" on="1"/>
        <pt x="94" y="595" on="0"/>
        <pt x="80" y="591" on="0"/>
        <pt x="64" y="589" on="0"/>
        <pt x="50" y="586" on="0"/>
        <pt x="48" y="585" on="1"/>
        <pt x="43" y="585" on="1"/>
        <pt x="23" y="585" on="0"/>
        <pt x="23" y="605" on="1"/>
        <pt x="23" y="615" on="0"/>
        <pt x="49" y="627" on="0"/>
        <pt x="85" y="638" on="0"/>
        <pt x="121" y="647" on="0"/>
        <pt x="130" y="653" on="1"/>
        <pt x="153" y="661" on="0"/>
        <pt x="187" y="669" on="0"/>
        <pt x="219" y="673" on="0"/>
        <pt x="250" y="674" on="0"/>
        <pt x="271" y="674" on="1"/>
        <pt x="311" y="674" on="0"/>
        <pt x="392" y="655" on="0"/>
        <pt x="457" y="613" on="0"/>
        <pt x="498" y="545" on="0"/>
        <pt x="498" y="498" on="1"/>
        <pt x="498" y="454" on="0"/>
        <pt x="457" y="383" on="0"/>
        <pt x="396" y="327" on="0"/>
        <pt x="325" y="284" on="0"/>
        <pt x="264" y="255" on="0"/>
        <pt x="223" y="238" on="0"/>
        <pt x="223" y="237" on="1"/>
        <pt x="223" y="235" on="1"/>
        <pt x="223" y="234" on="0"/>
        <pt x="224" y="234" on="1"/>
        <pt x="245" y="195" on="0"/>
        <pt x="290" y="134" on="0"/>
        <pt x="345" y="91" on="0"/>
        <pt x="415" y="68" on="0"/>
        <pt x="461" y="68" on="1"/>
        <pt x="476" y="68" on="0"/>
        <pt x="506" y="76" on="0"/>
        <pt x="535" y="85" on="0"/>
        <pt x="563" y="93" on="0"/>
        <pt x="578" y="93" on="1"/>
        <pt x="584" y="93" on="0"/>
        <pt x="599" y="86" on="0"/>
        <pt x="599" y="78" on="1"/>
        <pt x="599" y="62" on="0"/>
        <pt x="554" y="40" on="0"/>
        <pt x="498" y="26" on="0"/>
        <pt x="444" y="20" on="0"/>
        <pt x="436" y="20" on="1"/>
        <pt x="364" y="20" on="0"/>
        <pt x="241" y="86" on="0"/>
        <pt x="204" y="151" on="1"/>
        <pt x="199" y="151" on="1"/>
        <pt x="197" y="139" on="0"/>
        <pt x="190" y="90" on="0"/>
        <pt x="175" y="41" on="0"/>
        <pt x="152" y="4" on="0"/>
        <pt x="136" y="4" on="1"/>
        <pt x="124" y="4" on="0"/>
        <pt x="107" y="10" on="0"/>
      </contour>
      <contour>
        <pt x="229" y="292" on="1"/>
        <pt x="234" y="292" on="1"/>
        <pt x="236" y="293" on="0"/>
        <pt x="247" y="297" on="0"/>
        <pt x="247" y="298" on="1"/>
        <pt x="280" y="313" on="0"/>
        <pt x="350" y="350" on="0"/>
        <pt x="408" y="400" on="0"/>
        <pt x="445" y="463" on="0"/>
        <pt x="445" y="505" on="1"/>
        <pt x="445" y="532" on="0"/>
        <pt x="416" y="576" on="0"/>
        <pt x="371" y="607" on="0"/>
        <pt x="319" y="624" on="0"/>
        <pt x="295" y="624" on="1"/>
        <pt x="282" y="624" on="1"/>
        <pt x="292" y="616" on="0"/>
        <pt x="293" y="598" on="0"/>
        <pt x="293" y="587" on="1"/>
        <pt x="293" y="584" on="0"/>
        <pt x="292" y="571" on="0"/>
        <pt x="292" y="571" on="1"/>
        <pt x="229" y="317" on="1"/>
      </contour>
    </TTGlyph>
    <TTGlyph name="Racute" xMin="23" yMin="4" xMax="599" yMax="892">
      <component glyphName="R" x="0" y="0" flags="0x1204"/>
      <component glyphName="acute" x="70" y="138" flags="0x1004"/>
    </TTGlyph>
    <TTGlyph name="Rcaron" xMin="23" yMin="4" xMax="599" yMax="995">
      <component glyphName="R" x="0" y="0" flags="0x1204"/>
      <component glyphName="caron" x="85" y="91" flags="0x1004"/>
    </TTGlyph>
    <TTGlyph name="Rcommaaccent" xMin="23" yMin="-330" xMax="599" yMax="674">
      <component glyphName="R" x="0" y="0" flags="0x1204"/>
      <component glyphName="commaaccent" x="85" y="0" flags="0x1004"/>
    </TTGlyph>
    <TTGlyph name="S" xMin="18" yMin="4" xMax="727" yMax="960">
      <contour>
        <pt x="248" y="166" on="1"/>
        <pt x="53" y="39" on="1"/>
        <pt x="47" y="39" on="1"/>
        <pt x="37" y="39" on="0"/>
        <pt x="18" y="49" on="0"/>
        <pt x="18" y="61" on="1"/>
        <pt x="18" y="69" on="0"/>
        <pt x="27" y="82" on="0"/>
        <pt x="34" y="87" on="1"/>
        <pt x="42" y="93" on="0"/>
        <pt x="84" y="117" on="0"/>
        <pt x="130" y="146" on="0"/>
        <pt x="173" y="170" on="0"/>
        <pt x="181" y="175" on="1"/>
        <pt x="185" y="179" on="0"/>
        <pt x="201" y="190" on="0"/>
        <pt x="214" y="201" on="0"/>
        <pt x="224" y="209" on="0"/>
        <pt x="224" y="210" on="1"/>
        <pt x="147" y="366" on="1"/>
        <pt x="142" y="373" on="0"/>
        <pt x="141" y="382" on="0"/>
        <pt x="141" y="390" on="1"/>
        <pt x="141" y="420" on="0"/>
        <pt x="170" y="420" on="1"/>
        <pt x="174" y="420" on="0"/>
        <pt x="203" y="409" on="0"/>
        <pt x="245" y="390" on="0"/>
        <pt x="291" y="368" on="0"/>
        <pt x="329" y="350" on="0"/>
        <pt x="355" y="337" on="0"/>
        <pt x="355" y="337" on="1"/>
        <pt x="444" y="429" on="1"/>
        <pt x="447" y="441" on="0"/>
        <pt x="476" y="475" on="0"/>
        <pt x="508" y="513" on="0"/>
        <pt x="532" y="552" on="0"/>
        <pt x="532" y="568" on="1"/>
        <pt x="532" y="571" on="1"/>
        <pt x="463" y="732" on="1"/>
        <pt x="453" y="755" on="0"/>
        <pt x="448" y="808" on="0"/>
        <pt x="448" y="834" on="1"/>
        <pt x="448" y="856" on="0"/>
        <pt x="462" y="901" on="0"/>
        <pt x="489" y="937" on="0"/>
        <pt x="527" y="960" on="0"/>
        <pt x="553" y="960" on="1"/>
        <pt x="580" y="960" on="0"/>
        <pt x="615" y="929" on="0"/>
        <pt x="636" y="883" on="0"/>
        <pt x="644" y="832" on="0"/>
        <pt x="644" y="811" on="1"/>
        <pt x="644" y="751" on="0"/>
        <pt x="617" y="642" on="0"/>
        <pt x="594" y="585" on="1"/>
        <pt x="594" y="571" on="1"/>
        <pt x="617" y="528" on="0"/>
        <pt x="665" y="436" on="0"/>
        <pt x="703" y="337" on="0"/>
        <pt x="727" y="238" on="0"/>
        <pt x="727" y="188" on="1"/>
        <pt x="727" y="149" on="0"/>
        <pt x="702" y="82" on="0"/>
        <pt x="656" y="32" on="0"/>
        <pt x="591" y="4" on="0"/>
        <pt x="551" y="4" on="1"/>
        <pt x="506" y="4" on="0"/>
        <pt x="425" y="31" on="0"/>
        <pt x="350" y="76" on="0"/>
        <pt x="283" y="134" on="0"/>
        <pt x="254" y="166" on="1"/>
      </contour>
      <contour>
        <pt x="298" y="200" on="1"/>
        <pt x="298" y="199" on="0"/>
        <pt x="309" y="187" on="0"/>
        <pt x="324" y="172" on="0"/>
        <pt x="340" y="156" on="0"/>
        <pt x="346" y="151" on="1"/>
        <pt x="349" y="148" on="0"/>
        <pt x="364" y="137" on="0"/>
        <pt x="379" y="124" on="0"/>
        <pt x="392" y="113" on="0"/>
        <pt x="394" y="112" on="1"/>
        <pt x="400" y="109" on="0"/>
        <pt x="424" y="95" on="0"/>
        <pt x="448" y="81" on="0"/>
        <pt x="470" y="69" on="0"/>
        <pt x="472" y="68" on="1"/>
        <pt x="495" y="58" on="0"/>
        <pt x="534" y="53" on="0"/>
        <pt x="554" y="53" on="1"/>
        <pt x="584" y="53" on="0"/>
        <pt x="627" y="76" on="0"/>
        <pt x="655" y="115" on="0"/>
        <pt x="668" y="166" on="0"/>
        <pt x="668" y="192" on="1"/>
        <pt x="668" y="220" on="0"/>
        <pt x="659" y="280" on="0"/>
        <pt x="649" y="307" on="1"/>
        <pt x="562" y="516" on="1"/>
        <pt x="483" y="405" on="1"/>
        <pt x="298" y="204" on="1"/>
      </contour>
      <contour>
        <pt x="220" y="332" on="1"/>
        <pt x="220" y="330" on="0"/>
        <pt x="223" y="319" on="0"/>
        <pt x="224" y="317" on="1"/>
        <pt x="228" y="310" on="0"/>
        <pt x="241" y="286" on="0"/>
        <pt x="254" y="265" on="0"/>
        <pt x="263" y="248" on="0"/>
        <pt x="264" y="248" on="1"/>
        <pt x="268" y="248" on="1"/>
        <pt x="271" y="248" on="0"/>
        <pt x="289" y="265" on="0"/>
        <pt x="309" y="284" on="0"/>
        <pt x="325" y="301" on="0"/>
        <pt x="326" y="302" on="1"/>
        <pt x="321" y="307" on="1"/>
        <pt x="234" y="332" on="1"/>
      </contour>
      <contour>
        <pt x="501" y="835" on="1"/>
        <pt x="501" y="779" on="0"/>
        <pt x="535" y="688" on="0"/>
        <pt x="561" y="639" on="1"/>
        <pt x="566" y="642" on="0"/>
        <pt x="574" y="661" on="0"/>
        <pt x="580" y="684" on="0"/>
        <pt x="584" y="704" on="0"/>
        <pt x="585" y="706" on="1"/>
        <pt x="585" y="708" on="0"/>
        <pt x="588" y="724" on="0"/>
        <pt x="590" y="745" on="0"/>
        <pt x="593" y="765" on="0"/>
        <pt x="594" y="770" on="1"/>
        <pt x="594" y="773" on="1"/>
        <pt x="594" y="777" on="0"/>
        <pt x="593" y="819" on="0"/>
        <pt x="587" y="868" on="0"/>
        <pt x="571" y="907" on="0"/>
        <pt x="555" y="907" on="1"/>
        <pt x="539" y="907" on="0"/>
        <pt x="517" y="895" on="0"/>
        <pt x="506" y="875" on="0"/>
        <pt x="501" y="849" on="0"/>
      </contour>
    </TTGlyph>
    <TTGlyph name="Sacute" xMin="18" yMin="4" xMax="727" yMax="1206">
      <component glyphName="S" x="0" y="0" flags="0x1204"/>
      <component glyphName="acute" x="308" y="452" flags="0x1004"/>
    </TTGlyph>
    <TTGlyph name="Scaron" xMin="18" yMin="4" xMax="727" yMax="1260">
      <component glyphName="S" x="0" y="0" flags="0x1204"/>
      <component glyphName="caron" x="298" y="356" flags="0x1004"/>
    </TTGlyph>
    <TTGlyph name="Scedilla" xMin="18" yMin="-367" xMax="735" yMax="960">
      <contour>
        <pt x="369" y="-347" on="1"/>
        <pt x="360" y="-343" on="0"/>
        <pt x="337" y="-330" on="0"/>
        <pt x="317" y="-314" on="0"/>
        <pt x="302" y="-293" on="0"/>
        <pt x="302" y="-281" on="1"/>
        <pt x="302" y="-279" on="0"/>
        <pt x="309" y="-274" on="0"/>
        <pt x="310" y="-273" on="1"/>
        <pt x="313" y="-273" on="1"/>
        <pt x="316" y="-272" on="1"/>
        <pt x="319" y="-273" on="1"/>
        <pt x="322" y="-275" on="0"/>
        <pt x="334" y="-287" on="0"/>
        <pt x="336" y="-290" on="1"/>
        <pt x="358" y="-297" on="0"/>
        <pt x="388" y="-307" on="0"/>
        <pt x="413" y="-312" on="0"/>
        <pt x="437" y="-315" on="0"/>
        <pt x="454" y="-315" on="1"/>
        <pt x="463" y="-315" on="0"/>
        <pt x="505" y="-321" on="0"/>
        <pt x="555" y="-328" on="0"/>
        <pt x="607" y="-331" on="0"/>
        <pt x="651" y="-325" on="0"/>
        <pt x="678" y="-307" on="0"/>
        <pt x="678" y="-288" on="1"/>
        <pt x="678" y="-286" on="0"/>
        <pt x="677" y="-280" on="0"/>
        <pt x="676" y="-280" on="1"/>
        <pt x="436" y="-131" on="1"/>
        <pt x="426" y="-125" on="0"/>
        <pt x="397" y="-98" on="0"/>
        <pt x="371" y="-66" on="0"/>
        <pt x="352" y="-31" on="0"/>
        <pt x="352" y="-15" on="1"/>
        <pt x="343" y="41" on="0"/>
        <pt x="347" y="67" on="1"/>
        <pt x="348" y="73" on="0"/>
        <pt x="350" y="78" on="1"/>
        <pt x="333" y="91" on="0"/>
        <pt x="317" y="105" on="1"/>
        <pt x="283" y="134" on="0"/>
        <pt x="254" y="166" on="1"/>
        <pt x="248" y="166" on="1"/>
        <pt x="53" y="39" on="1"/>
        <pt x="47" y="39" on="1"/>
        <pt x="37" y="39" on="0"/>
        <pt x="18" y="49" on="0"/>
        <pt x="18" y="61" on="1"/>
        <pt x="18" y="69" on="0"/>
        <pt x="27" y="82" on="0"/>
        <pt x="34" y="87" on="1"/>
        <pt x="42" y="93" on="0"/>
        <pt x="84" y="117" on="0"/>
        <pt x="130" y="146" on="0"/>
        <pt x="173" y="170" on="0"/>
        <pt x="181" y="175" on="1"/>
        <pt x="185" y="179" on="0"/>
        <pt x="201" y="190" on="0"/>
        <pt x="214" y="201" on="0"/>
        <pt x="224" y="209" on="0"/>
        <pt x="224" y="210" on="1"/>
        <pt x="147" y="366" on="1"/>
        <pt x="142" y="373" on="0"/>
        <pt x="141" y="382" on="0"/>
        <pt x="141" y="390" on="1"/>
        <pt x="141" y="420" on="0"/>
        <pt x="170" y="420" on="1"/>
        <pt x="174" y="420" on="0"/>
        <pt x="203" y="409" on="0"/>
        <pt x="245" y="390" on="0"/>
        <pt x="291" y="368" on="0"/>
        <pt x="329" y="350" on="0"/>
        <pt x="342" y="343" on="1"/>
        <pt x="355" y="337" on="1"/>
        <pt x="444" y="429" on="1"/>
        <pt x="447" y="441" on="0"/>
        <pt x="476" y="475" on="0"/>
        <pt x="508" y="513" on="0"/>
        <pt x="532" y="552" on="0"/>
        <pt x="532" y="568" on="1"/>
        <pt x="532" y="571" on="1"/>
        <pt x="463" y="732" on="1"/>
        <pt x="453" y="755" on="0"/>
        <pt x="448" y="808" on="0"/>
        <pt x="448" y="834" on="1"/>
        <pt x="448" y="856" on="0"/>
        <pt x="462" y="901" on="0"/>
        <pt x="489" y="937" on="0"/>
        <pt x="527" y="960" on="0"/>
        <pt x="553" y="960" on="1"/>
        <pt x="580" y="960" on="0"/>
        <pt x="615" y="929" on="0"/>
        <pt x="636" y="883" on="0"/>
        <pt x="644" y="832" on="0"/>
        <pt x="644" y="811" on="1"/>
        <pt x="644" y="751" on="0"/>
        <pt x="617" y="642" on="0"/>
        <pt x="594" y="585" on="1"/>
        <pt x="594" y="571" on="1"/>
        <pt x="617" y="528" on="0"/>
        <pt x="665" y="436" on="0"/>
        <pt x="703" y="337" on="0"/>
        <pt x="727" y="238" on="0"/>
        <pt x="727" y="188" on="1"/>
        <pt x="727" y="149" on="0"/>
        <pt x="702" y="82" on="0"/>
        <pt x="656" y="32" on="0"/>
        <pt x="591" y="4" on="0"/>
        <pt x="551" y="4" on="1"/>
        <pt x="506" y="4" on="0"/>
        <pt x="465" y="18" on="1"/>
        <pt x="442" y="25" on="0"/>
        <pt x="419" y="36" on="1"/>
        <pt x="420" y="31" on="0"/>
        <pt x="421" y="26" on="1"/>
        <pt x="423" y="6" on="0"/>
        <pt x="409" y="-6" on="1"/>
        <pt x="409" y="-41" on="0"/>
        <pt x="458" y="-93" on="0"/>
        <pt x="530" y="-133" on="0"/>
        <pt x="615" y="-167" on="0"/>
        <pt x="687" y="-204" on="0"/>
        <pt x="735" y="-248" on="0"/>
        <pt x="735" y="-277" on="1"/>
        <pt x="735" y="-320" on="0"/>
        <pt x="692" y="-358" on="0"/>
        <pt x="627" y="-369" on="0"/>
        <pt x="552" y="-365" on="0"/>
        <pt x="518" y="-365" on="1"/>
        <pt x="510" y="-365" on="0"/>
        <pt x="467" y="-360" on="0"/>
        <pt x="420" y="-355" on="0"/>
        <pt x="377" y="-349" on="0"/>
      </contour>
      <contour>
        <pt x="298" y="200" on="1"/>
        <pt x="298" y="199" on="0"/>
        <pt x="309" y="187" on="0"/>
        <pt x="316" y="179" on="1"/>
        <pt x="332" y="164" on="1"/>
        <pt x="340" y="156" on="0"/>
        <pt x="346" y="151" on="1"/>
        <pt x="349" y="148" on="0"/>
        <pt x="364" y="137" on="0"/>
        <pt x="379" y="124" on="0"/>
        <pt x="392" y="113" on="0"/>
        <pt x="394" y="112" on="1"/>
        <pt x="400" y="109" on="0"/>
        <pt x="424" y="95" on="0"/>
        <pt x="448" y="81" on="0"/>
        <pt x="470" y="69" on="0"/>
        <pt x="472" y="68" on="1"/>
        <pt x="495" y="58" on="0"/>
        <pt x="534" y="53" on="0"/>
        <pt x="554" y="53" on="1"/>
        <pt x="584" y="53" on="0"/>
        <pt x="627" y="76" on="0"/>
        <pt x="655" y="115" on="0"/>
        <pt x="668" y="166" on="0"/>
        <pt x="668" y="192" on="1"/>
        <pt x="668" y="220" on="0"/>
        <pt x="659" y="280" on="0"/>
        <pt x="649" y="307" on="1"/>
        <pt x="562" y="516" on="1"/>
        <pt x="483" y="405" on="1"/>
        <pt x="298" y="204" on="1"/>
      </contour>
      <contour>
        <pt x="501" y="835" on="1"/>
        <pt x="501" y="779" on="0"/>
        <pt x="535" y="688" on="0"/>
        <pt x="561" y="639" on="1"/>
        <pt x="566" y="642" on="0"/>
        <pt x="574" y="661" on="0"/>
        <pt x="580" y="684" on="0"/>
        <pt x="584" y="704" on="0"/>
        <pt x="585" y="706" on="1"/>
        <pt x="585" y="708" on="0"/>
        <pt x="588" y="724" on="0"/>
        <pt x="590" y="745" on="0"/>
        <pt x="593" y="765" on="0"/>
        <pt x="594" y="770" on="1"/>
        <pt x="594" y="773" on="1"/>
        <pt x="594" y="777" on="0"/>
        <pt x="593" y="819" on="0"/>
        <pt x="587" y="868" on="0"/>
        <pt x="571" y="907" on="0"/>
        <pt x="555" y="907" on="1"/>
        <pt x="539" y="907" on="0"/>
        <pt x="517" y="895" on="0"/>
        <pt x="506" y="875" on="0"/>
        <pt x="501" y="849" on="0"/>
      </contour>
      <contour>
        <pt x="220" y="332" on="1"/>
        <pt x="220" y="330" on="0"/>
        <pt x="223" y="319" on="0"/>
        <pt x="224" y="317" on="1"/>
        <pt x="228" y="310" on="0"/>
        <pt x="241" y="286" on="0"/>
        <pt x="254" y="265" on="0"/>
        <pt x="263" y="248" on="0"/>
        <pt x="264" y="248" on="1"/>
        <pt x="268" y="248" on="1"/>
        <pt x="271" y="248" on="0"/>
        <pt x="289" y="265" on="0"/>
        <pt x="309" y="284" on="0"/>
        <pt x="325" y="301" on="0"/>
        <pt x="326" y="302" on="1"/>
        <pt x="321" y="307" on="1"/>
        <pt x="234" y="332" on="1"/>
      </contour>
    </TTGlyph>
    <TTGlyph name="Scircumflex" xMin="18" yMin="4" xMax="727" yMax="1266">
      <component glyphName="S" x="0" y="0" flags="0x1204"/>
      <component glyphName="circumflex" x="296" y="336" flags="0x1004"/>
    </TTGlyph>
    <TTGlyph name="Scommaaccent" xMin="18" yMin="-282" xMax="727" yMax="960">
      <component glyphName="S" x="0" y="0" flags="0x1204"/>
      <component glyphName="commaaccent" x="278" y="12" scalex="0.865295410156" scaley="0.888427734375" flags="0x1004"/>
    </TTGlyph>
    <TTGlyph name="T" xMin="13" yMin="3" xMax="620" yMax="766">
      <contour>
        <pt x="238" y="112" on="1"/>
        <pt x="287" y="697" on="1"/>
        <pt x="293" y="706" on="1"/>
        <pt x="39" y="726" on="1"/>
        <pt x="30" y="727" on="0"/>
        <pt x="13" y="738" on="0"/>
        <pt x="13" y="748" on="1"/>
        <pt x="13" y="755" on="0"/>
        <pt x="18" y="762" on="0"/>
        <pt x="25" y="766" on="1"/>
        <pt x="68" y="766" on="1"/>
        <pt x="202" y="766" on="0"/>
        <pt x="471" y="755" on="0"/>
        <pt x="605" y="751" on="1"/>
        <pt x="611" y="746" on="0"/>
        <pt x="620" y="733" on="0"/>
        <pt x="620" y="726" on="1"/>
        <pt x="620" y="719" on="0"/>
        <pt x="603" y="702" on="0"/>
        <pt x="596" y="702" on="1"/>
        <pt x="339" y="702" on="1"/>
        <pt x="339" y="649" on="0"/>
        <pt x="325" y="552" on="0"/>
        <pt x="321" y="498" on="1"/>
        <pt x="320" y="490" on="0"/>
        <pt x="318" y="439" on="0"/>
        <pt x="314" y="372" on="0"/>
        <pt x="310" y="296" on="0"/>
        <pt x="306" y="229" on="0"/>
        <pt x="302" y="178" on="0"/>
        <pt x="302" y="170" on="1"/>
        <pt x="301" y="162" on="0"/>
        <pt x="304" y="130" on="0"/>
        <pt x="306" y="94" on="0"/>
        <pt x="303" y="55" on="0"/>
        <pt x="294" y="22" on="0"/>
        <pt x="274" y="3" on="0"/>
        <pt x="258" y="3" on="1"/>
        <pt x="256" y="3" on="0"/>
        <pt x="245" y="4" on="0"/>
        <pt x="244" y="4" on="1"/>
        <pt x="238" y="14" on="1"/>
      </contour>
    </TTGlyph>
    <TTGlyph name="Tbar" xMin="13" yMin="3" xMax="620" yMax="766">
      <contour>
        <pt x="238" y="112" on="1"/>
        <pt x="273" y="525" on="1"/>
        <pt x="248" y="524" on="0"/>
        <pt x="223" y="523" on="1"/>
        <pt x="176" y="521" on="0"/>
        <pt x="132" y="521" on="1"/>
        <pt x="128" y="521" on="0"/>
        <pt x="113" y="523" on="0"/>
        <pt x="99" y="528" on="0"/>
        <pt x="90" y="538" on="0"/>
        <pt x="92" y="545" on="1"/>
        <pt x="94" y="553" on="0"/>
        <pt x="118" y="569" on="0"/>
        <pt x="125" y="571" on="1"/>
        <pt x="172" y="573" on="0"/>
        <pt x="222" y="575" on="0"/>
        <pt x="242" y="574" on="1"/>
        <pt x="258" y="574" on="0"/>
        <pt x="276" y="573" on="1"/>
        <pt x="287" y="697" on="1"/>
        <pt x="293" y="706" on="1"/>
        <pt x="39" y="726" on="1"/>
        <pt x="30" y="727" on="0"/>
        <pt x="13" y="738" on="0"/>
        <pt x="13" y="748" on="1"/>
        <pt x="13" y="755" on="0"/>
        <pt x="18" y="762" on="0"/>
        <pt x="25" y="766" on="1"/>
        <pt x="68" y="766" on="1"/>
        <pt x="202" y="766" on="0"/>
        <pt x="471" y="755" on="0"/>
        <pt x="605" y="751" on="1"/>
        <pt x="611" y="746" on="0"/>
        <pt x="620" y="733" on="0"/>
        <pt x="620" y="726" on="1"/>
        <pt x="620" y="719" on="0"/>
        <pt x="603" y="702" on="0"/>
        <pt x="596" y="702" on="1"/>
        <pt x="339" y="702" on="1"/>
        <pt x="339" y="649" on="0"/>
        <pt x="332" y="600" on="1"/>
        <pt x="330" y="587" on="0"/>
        <pt x="328" y="573" on="1"/>
        <pt x="358" y="573" on="1"/>
        <pt x="392" y="573" on="0"/>
        <pt x="461" y="568" on="0"/>
        <pt x="492" y="556" on="1"/>
        <pt x="475" y="540" on="1"/>
        <pt x="473" y="538" on="0"/>
        <pt x="429" y="536" on="1"/>
        <pt x="388" y="535" on="0"/>
        <pt x="323" y="530" on="1"/>
        <pt x="321" y="498" on="1"/>
        <pt x="320" y="490" on="0"/>
        <pt x="318" y="439" on="0"/>
        <pt x="314" y="372" on="0"/>
        <pt x="310" y="296" on="0"/>
        <pt x="306" y="229" on="0"/>
        <pt x="302" y="178" on="0"/>
        <pt x="302" y="170" on="1"/>
        <pt x="301" y="162" on="0"/>
        <pt x="304" y="130" on="0"/>
        <pt x="306" y="94" on="0"/>
        <pt x="303" y="55" on="0"/>
        <pt x="294" y="22" on="0"/>
        <pt x="274" y="3" on="0"/>
        <pt x="258" y="3" on="1"/>
        <pt x="256" y="3" on="0"/>
        <pt x="245" y="4" on="0"/>
        <pt x="244" y="4" on="1"/>
        <pt x="238" y="14" on="1"/>
      </contour>
    </TTGlyph>
    <TTGlyph name="Tcaron" xMin="13" yMin="3" xMax="620" yMax="1104">
      <component glyphName="T" x="0" y="0" flags="0x1204"/>
      <component glyphName="caron" x="85" y="200" flags="0x1004"/>
    </TTGlyph>
    <TTGlyph name="Tcommaaccent" xMin="13" yMin="-330" xMax="620" yMax="766">
      <component glyphName="T" x="0" y="0" flags="0x1204"/>
      <component glyphName="commaaccent" x="37" y="0" flags="0x1004"/>
    </TTGlyph>
    <TTGlyph name="Thorn" xMin="14" yMin="-12" xMax="401" yMax="648">
      <contour>
        <pt x="143" y="241" on="1"/>
        <pt x="142" y="241" on="0"/>
        <pt x="139" y="237" on="0"/>
        <pt x="138" y="236" on="1"/>
        <pt x="133" y="229" on="0"/>
        <pt x="121" y="193" on="0"/>
        <pt x="108" y="148" on="0"/>
        <pt x="94" y="96" on="0"/>
        <pt x="82" y="49" on="0"/>
        <pt x="72" y="12" on="0"/>
        <pt x="69" y="4" on="1"/>
        <pt x="62" y="-6" on="0"/>
        <pt x="48" y="-12" on="0"/>
        <pt x="37" y="-12" on="1"/>
        <pt x="14" y="-12" on="0"/>
        <pt x="14" y="9" on="1"/>
        <pt x="25" y="52" on="0"/>
        <pt x="40" y="115" on="0"/>
        <pt x="51" y="167" on="0"/>
        <pt x="61" y="216" on="0"/>
        <pt x="74" y="271" on="0"/>
        <pt x="90" y="340" on="0"/>
        <pt x="115" y="436" on="0"/>
        <pt x="150" y="562" on="0"/>
        <pt x="175" y="648" on="1"/>
        <pt x="179" y="648" on="0"/>
        <pt x="193" y="642" on="0"/>
        <pt x="205" y="632" on="0"/>
        <pt x="215" y="621" on="0"/>
        <pt x="216" y="616" on="1"/>
        <pt x="211" y="574" on="0"/>
        <pt x="202" y="522" on="0"/>
        <pt x="189" y="469" on="0"/>
        <pt x="169" y="403" on="0"/>
        <pt x="153" y="348" on="1"/>
        <pt x="180" y="380" on="0"/>
        <pt x="250" y="423" on="0"/>
        <pt x="292" y="423" on="1"/>
        <pt x="296" y="423" on="0"/>
        <pt x="319" y="421" on="0"/>
        <pt x="323" y="421" on="1"/>
        <pt x="345" y="416" on="0"/>
        <pt x="375" y="382" on="0"/>
        <pt x="393" y="338" on="0"/>
        <pt x="401" y="292" on="0"/>
        <pt x="401" y="273" on="1"/>
        <pt x="401" y="262" on="0"/>
        <pt x="398" y="238" on="0"/>
        <pt x="385" y="205" on="0"/>
        <pt x="363" y="157" on="0"/>
        <pt x="343" y="124" on="1"/>
        <pt x="328" y="116" on="0"/>
        <pt x="302" y="103" on="0"/>
        <pt x="286" y="103" on="1"/>
        <pt x="264" y="103" on="0"/>
        <pt x="209" y="126" on="0"/>
        <pt x="163" y="164" on="0"/>
        <pt x="137" y="213" on="0"/>
      </contour>
      <contour>
        <pt x="167" y="256" on="1"/>
        <pt x="183" y="256" on="0"/>
        <pt x="202" y="231" on="0"/>
        <pt x="225" y="202" on="0"/>
        <pt x="262" y="177" on="0"/>
        <pt x="297" y="177" on="1"/>
        <pt x="319" y="177" on="1"/>
        <pt x="328" y="186" on="0"/>
        <pt x="338" y="214" on="0"/>
        <pt x="343" y="244" on="0"/>
        <pt x="344" y="274" on="0"/>
        <pt x="344" y="286" on="1"/>
        <pt x="344" y="301" on="0"/>
        <pt x="337" y="331" on="0"/>
        <pt x="323" y="357" on="0"/>
        <pt x="299" y="373" on="0"/>
        <pt x="282" y="373" on="1"/>
        <pt x="261" y="373" on="0"/>
        <pt x="219" y="348" on="0"/>
        <pt x="183" y="310" on="0"/>
        <pt x="155" y="268" on="0"/>
        <pt x="148" y="251" on="1"/>
        <pt x="153" y="256" on="0"/>
        <pt x="162" y="256" on="0"/>
      </contour>
    </TTGlyph>
    <TTGlyph name="U" xMin="20" yMin="-1" xMax="1119" yMax="853">
      <contour>
        <pt x="341" y="68" on="1"/>
        <pt x="341" y="91" on="0"/>
        <pt x="347" y="138" on="0"/>
        <pt x="354" y="184" on="0"/>
        <pt x="358" y="231" on="0"/>
        <pt x="355" y="254" on="1"/>
        <pt x="382" y="445" on="1"/>
        <pt x="298" y="332" on="1"/>
        <pt x="83" y="121" on="1"/>
        <pt x="73" y="106" on="0"/>
        <pt x="58" y="82" on="0"/>
        <pt x="39" y="82" on="1"/>
        <pt x="26" y="82" on="0"/>
        <pt x="20" y="94" on="0"/>
        <pt x="20" y="106" on="1"/>
        <pt x="20" y="122" on="0"/>
        <pt x="31" y="143" on="0"/>
        <pt x="44" y="156" on="1"/>
        <pt x="268" y="371" on="1"/>
        <pt x="351" y="483" on="1"/>
        <pt x="355" y="491" on="0"/>
        <pt x="366" y="513" on="0"/>
        <pt x="380" y="534" on="0"/>
        <pt x="392" y="551" on="0"/>
        <pt x="395" y="555" on="1"/>
        <pt x="412" y="614" on="0"/>
        <pt x="460" y="733" on="0"/>
        <pt x="493" y="785" on="1"/>
        <pt x="499" y="796" on="0"/>
        <pt x="514" y="796" on="1"/>
        <pt x="523" y="796" on="0"/>
        <pt x="542" y="786" on="0"/>
        <pt x="542" y="776" on="1"/>
        <pt x="542" y="775" on="0"/>
        <pt x="541" y="771" on="0"/>
        <pt x="541" y="770" on="1"/>
        <pt x="541" y="769" on="0"/>
        <pt x="537" y="753" on="0"/>
        <pt x="536" y="751" on="1"/>
        <pt x="523" y="725" on="0"/>
        <pt x="494" y="658" on="0"/>
        <pt x="468" y="586" on="0"/>
        <pt x="448" y="514" on="0"/>
        <pt x="445" y="483" on="1"/>
        <pt x="400" y="121" on="1"/>
        <pt x="400" y="58" on="1"/>
        <pt x="409" y="62" on="0"/>
        <pt x="451" y="85" on="0"/>
        <pt x="498" y="112" on="0"/>
        <pt x="538" y="136" on="0"/>
        <pt x="546" y="141" on="1"/>
        <pt x="553" y="147" on="0"/>
        <pt x="591" y="175" on="0"/>
        <pt x="633" y="208" on="0"/>
        <pt x="670" y="238" on="0"/>
        <pt x="679" y="244" on="1"/>
        <pt x="681" y="247" on="0"/>
        <pt x="703" y="268" on="0"/>
        <pt x="729" y="297" on="0"/>
        <pt x="754" y="324" on="0"/>
        <pt x="761" y="332" on="1"/>
        <pt x="772" y="344" on="0"/>
        <pt x="796" y="374" on="0"/>
        <pt x="817" y="409" on="0"/>
        <pt x="834" y="443" on="0"/>
        <pt x="839" y="458" on="1"/>
        <pt x="931" y="800" on="1"/>
        <pt x="932" y="805" on="0"/>
        <pt x="939" y="823" on="0"/>
        <pt x="948" y="841" on="0"/>
        <pt x="961" y="853" on="0"/>
        <pt x="970" y="853" on="1"/>
        <pt x="983" y="853" on="0"/>
        <pt x="996" y="830" on="0"/>
        <pt x="996" y="820" on="1"/>
        <pt x="996" y="817" on="0"/>
        <pt x="994" y="806" on="0"/>
        <pt x="994" y="805" on="1"/>
        <pt x="960" y="629" on="1"/>
        <pt x="960" y="624" on="1"/>
        <pt x="892" y="434" on="1"/>
        <pt x="863" y="185" on="1"/>
        <pt x="862" y="183" on="0"/>
        <pt x="862" y="180" on="1"/>
        <pt x="862" y="171" on="1"/>
        <pt x="862" y="150" on="0"/>
        <pt x="864" y="112" on="0"/>
        <pt x="876" y="85" on="0"/>
        <pt x="901" y="67" on="0"/>
        <pt x="924" y="67" on="1"/>
        <pt x="999" y="119" on="0"/>
        <pt x="1088" y="156" on="0"/>
        <pt x="1125" y="149" on="0"/>
        <pt x="1112" y="112" on="0"/>
        <pt x="1058" y="66" on="0"/>
        <pt x="967" y="22" on="0"/>
        <pt x="908" y="13" on="1"/>
        <pt x="877" y="13" on="0"/>
        <pt x="837" y="39" on="0"/>
        <pt x="814" y="81" on="0"/>
        <pt x="805" y="134" on="0"/>
        <pt x="805" y="161" on="1"/>
        <pt x="805" y="198" on="0"/>
        <pt x="814" y="270" on="0"/>
        <pt x="814" y="307" on="1"/>
        <pt x="814" y="321" on="1"/>
        <pt x="814" y="321" on="0"/>
        <pt x="810" y="318" on="0"/>
        <pt x="809" y="317" on="1"/>
        <pt x="791" y="295" on="0"/>
        <pt x="760" y="256" on="0"/>
        <pt x="725" y="219" on="0"/>
        <pt x="685" y="183" on="0"/>
        <pt x="658" y="166" on="1"/>
        <pt x="424" y="14" on="1"/>
        <pt x="414" y="7" on="0"/>
        <pt x="386" y="-1" on="0"/>
        <pt x="373" y="-1" on="1"/>
        <pt x="362" y="-1" on="0"/>
        <pt x="345" y="13" on="0"/>
        <pt x="341" y="24" on="1"/>
      </contour>
      <contour>
        <pt x="819" y="337" on="1"/>
        <pt x="815" y="337" on="0"/>
        <pt x="815" y="326" on="0"/>
        <pt x="819" y="326" on="1"/>
        <pt x="823" y="326" on="0"/>
        <pt x="823" y="337" on="0"/>
      </contour>
    </TTGlyph>
    <TTGlyph name="Uacute" xMin="20" yMin="-1" xMax="1119" yMax="1046">
      <component glyphName="U" x="0" y="0" flags="0x1204"/>
      <component glyphName="acute" x="534" y="292" flags="0x1004"/>
    </TTGlyph>
    <TTGlyph name="Ubreve" xMin="20" yMin="-1" xMax="1119" yMax="1018">
      <component glyphName="U" x="0" y="0" flags="0x1204"/>
      <component glyphName="breve" x="601" y="378" flags="0x1004"/>
    </TTGlyph>
    <TTGlyph name="Ucircumflex" xMin="20" yMin="-1" xMax="1119" yMax="1155">
      <component glyphName="U" x="0" y="0" flags="0x1204"/>
      <component glyphName="circumflex" x="517" y="225" flags="0x1004"/>
    </TTGlyph>
    <TTGlyph name="Udieresis" xMin="20" yMin="-1" xMax="1119" yMax="987">
      <component glyphName="U" x="0" y="0" flags="0x1204"/>
      <component glyphName="dieresis" x="373" y="282" flags="0x1004"/>
    </TTGlyph>
    <TTGlyph name="Ugrave" xMin="20" yMin="-1" xMax="1119" yMax="1006">
      <component glyphName="U" x="0" y="0" flags="0x1204"/>
      <component glyphName="grave" x="444" y="258" flags="0x1004"/>
    </TTGlyph>
    <TTGlyph name="Uhungarumlaut" xMin="20" yMin="-1" xMax="1119" yMax="1080">
      <component glyphName="U" x="0" y="0" flags="0x1204"/>
      <component glyphName="hungarumlaut" x="553" y="301" flags="0x1004"/>
    </TTGlyph>
    <TTGlyph name="Umacron" xMin="20" yMin="-1" xMax="1119" yMax="981">
      <component glyphName="U" x="0" y="0" flags="0x1204"/>
      <component glyphName="macron" x="499" y="331" flags="0x1004"/>
    </TTGlyph>
</ttFont>
